<svg width="4303" height="1610" viewBox="0 0 4303 1610" fill="none" xmlns="http://www.w3.org/2000/svg">
<path fill-rule="evenodd" clip-rule="evenodd" d="M0 1221.74L17.9292 1157.69C32.2725 1093.63 64.545 965.529 96.8175 997.555C129.09 1029.58 161.363 1221.74 197.221 1189.71C229.493 1157.69 261.766 901.477 294.038 869.451C326.311 837.425 358.583 1029.58 390.856 1029.58C423.128 1029.58 455.401 837.425 487.673 677.294C519.946 517.164 555.804 389.06 588.077 292.981C620.349 196.903 652.622 132.851 684.894 68.7989C717.167 4.7467 749.439 -59.3055 781.712 100.825C813.984 260.955 846.257 645.268 878.529 645.268C914.388 645.268 946.66 260.955 978.933 132.851C1011.21 4.7467 1043.48 132.851 1075.75 357.034C1108.02 581.216 1140.3 901.477 1172.57 933.503C1204.84 965.529 1237.11 709.321 1272.97 709.321C1305.24 709.321 1337.52 965.529 1369.79 965.529C1402.06 965.529 1434.33 709.321 1466.61 581.216C1498.88 453.112 1531.15 453.112 1563.42 357.034C1595.7 260.955 1631.55 68.7989 1663.83 164.877C1696.1 260.955 1728.37 645.268 1760.64 741.347C1792.92 837.425 1825.19 645.268 1857.46 645.268C1889.73 645.268 1922.01 837.425 1954.28 869.451C1990.14 901.477 2022.41 773.373 2054.68 613.242C2086.96 453.112 2119.23 260.955 2151.5 325.008C2183.77 389.06 2216.05 709.321 2248.32 869.451C2280.59 1029.58 2312.86 1029.58 2348.72 1125.66C2380.99 1221.74 2413.27 1413.89 2445.54 1317.82C2477.81 1221.74 2510.08 837.425 2542.36 581.216C2574.63 325.008 2606.9 196.903 2639.17 292.981C2671.45 389.06 2707.3 709.321 2739.58 869.451C2771.85 1029.58 2804.12 1029.58 2836.39 837.425C2868.67 645.268 2900.94 260.955 2933.21 100.825C2965.48 -59.3055 2997.76 4.7467 3030.03 100.825C3065.89 196.903 3098.16 325.008 3130.43 453.112C3162.71 581.216 3194.98 709.321 3227.25 837.425C3259.52 965.529 3291.8 1093.63 3324.07 901.477C3356.34 709.321 3388.61 196.903 3424.47 260.955C3456.74 325.008 3489.02 965.529 3521.29 1061.61C3553.56 1157.69 3585.83 709.321 3618.11 709.321C3650.38 709.321 3682.65 1157.69 3714.92 1093.63C3747.2 1029.58 3783.05 453.112 3815.33 196.903C3847.6 -59.3055 3879.87 4.7467 3912.14 68.7989C3944.42 132.851 3976.69 196.903 4008.96 421.086C4041.23 645.268 4073.51 1029.58 4105.78 965.529C4141.64 901.477 4173.91 389.06 4206.18 292.981C4238.46 196.903 4270.73 517.164 4285.07 677.294L4303 837.425V1606.05H4285.07C4270.73 1606.05 4238.46 1606.05 4206.18 1606.05C4173.91 1606.05 4141.64 1606.05 4105.78 1606.05C4073.51 1606.05 4041.23 1606.05 4008.96 1606.05C3976.69 1606.05 3944.42 1606.05 3912.14 1606.05C3879.87 1606.05 3847.6 1606.05 3815.33 1606.05C3783.05 1606.05 3747.2 1606.05 3714.92 1606.05C3682.65 1606.05 3650.38 1606.05 3618.11 1606.05C3585.83 1606.05 3553.56 1606.05 3521.29 1606.05C3489.02 1606.05 3456.74 1606.05 3424.47 1606.05C3388.61 1606.05 3356.34 1606.05 3324.07 1606.05C3291.8 1606.05 3259.52 1606.05 3227.25 1606.05C3194.98 1606.05 3162.71 1606.05 3130.43 1606.05C3098.16 1606.05 3065.89 1606.05 3030.03 1606.05C2997.76 1606.05 2965.48 1606.05 2933.21 1606.05C2900.94 1606.05 2868.67 1606.05 2836.39 1606.05C2804.12 1606.05 2771.85 1606.05 2739.58 1606.05C2707.3 1606.05 2671.45 1606.05 2639.17 1606.05C2606.9 1606.05 2574.63 1606.05 2542.36 1606.05C2510.08 1606.05 2477.81 1606.05 2445.54 1606.05C2413.27 1606.05 2380.99 1606.05 2348.72 1606.05C2312.86 1606.05 2280.59 1606.05 2248.32 1606.05C2216.05 1606.05 2183.77 1606.05 2151.5 1606.05C2119.23 1606.05 2086.96 1606.05 2054.68 1606.05C2022.41 1606.05 1990.14 1606.05 1954.28 1606.05C1922.01 1606.05 1889.73 1606.05 1857.46 1606.05C1825.19 1606.05 1792.92 1606.05 1760.64 1606.05C1728.37 1606.05 1696.1 1606.05 1663.83 1606.05C1631.55 1606.05 1595.7 1606.05 1563.42 1606.05C1531.15 1606.05 1498.88 1606.05 1466.61 1606.05C1434.33 1606.05 1402.06 1606.05 1369.79 1606.05C1337.52 1606.05 1305.24 1606.05 1272.97 1606.05C1237.11 1606.05 1204.84 1606.05 1172.57 1606.05C1140.3 1606.05 1108.02 1606.05 1075.75 1606.05C1043.48 1606.05 1011.21 1606.05 978.933 1606.05C946.66 1606.05 914.388 1606.05 878.529 1606.05C846.257 1606.05 813.984 1606.05 781.712 1606.05C749.439 1606.05 717.167 1606.05 684.894 1606.05C652.622 1606.05 620.349 1606.05 588.077 1606.05C555.804 1606.05 519.946 1606.05 487.673 1606.05C455.401 1606.05 423.128 1606.05 390.856 1606.05C358.583 1606.05 326.311 1606.05 294.038 1606.05C261.766 1606.05 229.493 1606.05 197.221 1606.05C161.363 1606.05 129.09 1606.05 96.8175 1606.05C64.545 1606.05 32.2725 1606.05 17.9292 1606.05H0V1221.74Z" fill="url(#paint0_linear)"/>
<path fill-rule="evenodd" clip-rule="evenodd" d="M0 1225.83L64.545 1162.46C129.09 1099.09 261.766 972.344 390.856 908.974C519.946 845.603 652.622 845.603 781.712 761.108C914.388 676.614 1043.48 507.625 1172.57 549.872C1305.24 592.119 1434.33 845.603 1563.42 930.097C1696.1 1014.59 1825.19 930.097 1954.28 887.85C2086.96 845.603 2216.05 845.603 2348.72 782.232C2477.81 718.861 2606.9 592.119 2739.58 718.861C2868.67 845.603 2997.76 1225.83 3130.43 1394.82C3259.52 1563.81 3388.61 1521.56 3521.29 1415.94C3650.38 1310.32 3783.05 1141.33 3912.14 1056.84C4041.23 972.344 4173.91 972.344 4238.46 972.344H4303V1606.05H4238.46C4173.91 1606.05 4041.23 1606.05 3912.14 1606.05C3783.05 1606.05 3650.38 1606.05 3521.29 1606.05C3388.61 1606.05 3259.52 1606.05 3130.43 1606.05C2997.76 1606.05 2868.67 1606.05 2739.58 1606.05C2606.9 1606.05 2477.81 1606.05 2348.72 1606.05C2216.05 1606.05 2086.96 1606.05 1954.28 1606.05C1825.19 1606.05 1696.1 1606.05 1563.42 1606.05C1434.33 1606.05 1305.24 1606.05 1172.57 1606.05C1043.48 1606.05 914.388 1606.05 781.712 1606.05C652.622 1606.05 519.946 1606.05 390.856 1606.05C261.766 1606.05 129.09 1606.05 64.545 1606.05H0V1225.83Z" fill="url(#paint1_linear)"/>
<path fill-rule="evenodd" clip-rule="evenodd" d="M1080.75 1227.68L1169.36 1189.45C1260.66 1151.22 1437.88 1074.76 1617.79 1125.73C1797.7 1176.71 1974.93 1355.12 2154.83 1367.87C2334.74 1380.61 2511.97 1227.68 2691.88 1151.22C2871.78 1074.76 3049.01 1074.76 3228.92 1074.76C3408.83 1074.76 3586.05 1074.76 3765.96 1163.96C3945.87 1253.17 4123.09 1431.59 4214.39 1520.79L4303 1610H4214.39C4123.09 1610 3945.87 1610 3765.96 1610C3586.05 1610 3408.83 1610 3228.92 1610C3049.01 1610 2871.78 1610 2691.88 1610C2511.97 1610 2334.74 1610 2154.83 1610C1974.93 1610 1797.7 1610 1617.79 1610C1437.88 1610 1260.66 1610 1169.36 1610H1080.75V1227.68Z" fill="url(#paint2_linear)"/>
<path fill-rule="evenodd" clip-rule="evenodd" d="M0 953.914L47.8638 1019.11C95.5747 1084.31 191.302 1214.78 286.877 1258.28C382.452 1301.69 478.179 1258.28 573.754 1203.89C669.328 1149.59 764.903 1084.31 860.631 1084.31C956.205 1084.31 1051.78 1149.59 1147.51 1138.69C1243.08 1127.8 1338.66 1040.9 1434.38 1008.3C1529.96 975.621 1625.53 997.405 1721.26 1051.71C1816.84 1106.09 1912.41 1193 2008.14 1279.98C2103.71 1366.97 2199.29 1453.87 2294.86 1432.16C2390.59 1410.38 2486.16 1279.98 2581.74 1236.49C2677.47 1193 2773.04 1236.49 2868.62 1290.87C2964.34 1345.18 3059.92 1410.38 3155.49 1464.76C3251.22 1519.07 3346.79 1562.56 3442.37 1529.96C3538.1 1497.36 3633.67 1388.67 3729.25 1356.07C3824.82 1323.47 3920.55 1366.97 4016.12 1388.67C4111.7 1410.38 4207.43 1410.38 4255.14 1410.38H4303V1606.05H4255.14C4207.43 1606.05 4111.7 1606.05 4016.12 1606.05C3920.55 1606.05 3824.82 1606.05 3729.25 1606.05C3633.67 1606.05 3538.1 1606.05 3442.37 1606.05C3346.79 1606.05 3251.22 1606.05 3155.49 1606.05C3059.92 1606.05 2964.34 1606.05 2868.62 1606.05C2773.04 1606.05 2677.47 1606.05 2581.74 1606.05C2486.16 1606.05 2390.59 1606.05 2294.86 1606.05C2199.29 1606.05 2103.71 1606.05 2008.14 1606.05C1912.41 1606.05 1816.84 1606.05 1721.26 1606.05C1625.53 1606.05 1529.96 1606.05 1434.38 1606.05C1338.66 1606.05 1243.08 1606.05 1147.51 1606.05C1051.78 1606.05 956.205 1606.05 860.631 1606.05C764.903 1606.05 669.328 1606.05 573.754 1606.05C478.179 1606.05 382.452 1606.05 286.877 1606.05C191.302 1606.05 95.5747 1606.05 47.8638 1606.05H0V953.914Z" fill="url(#paint3_linear)"/>
<defs>
<linearGradient id="paint0_linear" x1="2380.88" y1="317.19" x2="2366.65" y2="1270.4" gradientUnits="userSpaceOnUse">
<stop stop-color="#A62A2A"/>
<stop offset="1" stop-color="#DD4646"/>
</linearGradient>
<linearGradient id="paint1_linear" x1="2151.5" y1="543.203" x2="2151.5" y2="1606.05" gradientUnits="userSpaceOnUse">
<stop stop-color="#BC074F"/>
<stop offset="1" stop-color="#623A4A"/>
</linearGradient>
<linearGradient id="paint2_linear" x1="4637.72" y1="1360.02" x2="4637.72" y2="1895.26" gradientUnits="userSpaceOnUse">
<stop stop-color="#A81F01"/>
<stop offset="1" stop-color="#731B4F"/>
</linearGradient>
<linearGradient id="paint3_linear" x1="2151.76" y1="1294.46" x2="2151.69" y2="1606.05" gradientUnits="userSpaceOnUse">
<stop stop-color="#89207A"/>
<stop offset="1" stop-color="#4A1443"/>
</linearGradient>
</defs>
</svg>
