<?xml version="1.0" standalone="no"?>
<!DOCTYPE svg PUBLIC "-//W3C//DTD SVG 20010904//EN"
 "http://www.w3.org/TR/2001/REC-SVG-20010904/DTD/svg10.dtd">
<svg version="1.0" xmlns="http://www.w3.org/2000/svg"
 width="200.000000pt" height="200.000000pt" viewBox="0 0 200.000000 200.000000"
 preserveAspectRatio="xMidYMid meet">

<g transform="translate(0.000000,200.000000) scale(0.100000,-0.100000)"
fill="#000000" stroke="none">
<path d="M1200 1806 c0 -113 -4 -147 -25 -220 -14 -47 -25 -95 -25 -106 0 -11
-4 -20 -10 -20 -5 0 -10 13 -10 29 0 16 -5 31 -11 33 -8 3 -5 23 10 66 25 75
26 112 4 203 -13 54 -20 69 -35 69 -22 0 -22 1 -1 -41 30 -59 29 -145 -2 -222
-14 -37 -30 -95 -34 -129 l-7 -63 -8 47 c-5 27 -5 63 -2 82 7 34 -10 126 -23
126 -3 0 -5 -51 -4 -112 1 -62 -1 -106 -5 -98 -4 8 -14 26 -23 40 -27 40 -67
170 -72 230 -3 43 -8 56 -22 59 -14 2 -17 -2 -11 -20 3 -13 11 -54 16 -91 9
-63 18 -89 88 -272 27 -67 61 -251 49 -262 -2 -2 -12 40 -21 94 -20 106 -23
115 -36 107 -5 -3 -5 -20 0 -38 11 -42 23 -163 16 -156 -3 3 -10 36 -15 75
-12 81 -50 184 -69 184 -7 0 -18 13 -23 30 -6 16 -15 28 -19 25 -4 -3 0 -28
11 -55 23 -61 24 -71 3 -63 -13 5 -15 2 -9 -18 35 -107 30 -138 -7 -49 -25 59
-31 90 -32 148 0 39 -3 72 -7 72 -12 0 -21 -97 -14 -141 5 -29 4 -40 -4 -35
-7 4 -11 39 -11 86 0 43 -7 111 -15 150 -8 40 -13 76 -10 80 3 5 0 12 -6 15
-22 14 -27 -12 -14 -70 8 -33 15 -94 15 -135 0 -63 -2 -72 -14 -60 -7 8 -21
57 -31 108 -11 58 -22 91 -29 89 -13 -5 -12 -15 5 -76 9 -33 9 -48 1 -62 -7
-11 -8 -20 -2 -24 6 -3 10 -21 10 -38 l-1 -32 -13 36 c-7 20 -22 50 -34 67
-12 16 -22 35 -22 41 0 13 -17 15 -25 2 -3 -5 0 -13 6 -17 12 -7 48 -82 49
-101 0 -7 -20 9 -45 36 -52 56 -75 112 -75 187 0 43 -3 54 -16 54 -15 0 -16
-9 -11 -62 8 -83 30 -142 72 -197 23 -29 31 -47 24 -51 -8 -5 -7 -16 4 -36 17
-33 47 -136 46 -156 0 -7 -11 20 -25 61 -15 45 -43 98 -70 135 -69 91 -89 132
-124 244 -21 68 -36 102 -45 102 -17 0 -19 -11 -6 -25 4 -6 18 -48 31 -95 25
-95 47 -143 96 -212 33 -47 84 -141 84 -155 0 -11 -59 77 -71 106 -7 16 -13
21 -20 14 -10 -10 52 -122 96 -173 13 -14 26 -38 29 -54 7 -26 6 -28 -9 -16
-9 7 -23 26 -31 42 -8 15 -38 54 -67 87 -33 37 -61 82 -76 122 -43 114 -111
250 -120 244 -6 -3 7 -44 28 -93 21 -48 51 -121 66 -162 18 -46 43 -90 68
-117 22 -24 35 -43 29 -43 -5 0 -35 29 -67 65 -31 36 -63 65 -70 65 -7 0 -18
14 -25 31 -11 25 -68 118 -101 163 -4 5 -12 5 -18 1 -8 -4 -2 -17 18 -37 17
-17 45 -65 62 -107 17 -42 38 -87 46 -99 27 -43 8 -31 -70 43 -42 40 -79 70
-82 65 -6 -10 121 -140 162 -167 12 -8 39 -38 59 -66 l37 -51 -57 48 c-31 27
-59 46 -62 43 -7 -7 91 -100 134 -129 28 -18 49 -48 34 -48 -5 0 -26 13 -46
29 -21 17 -66 39 -101 51 -35 12 -66 27 -69 35 -12 31 -209 145 -251 145 -31
0 -13 -16 37 -34 51 -18 162 -85 154 -93 -2 -2 -21 3 -41 11 -46 19 -45 19
-45 1 0 -8 7 -15 16 -15 9 0 39 -8 66 -17 52 -19 95 -65 151 -164 l27 -47 -63
16 c-34 8 -88 28 -119 44 -31 16 -92 38 -135 49 -96 25 -105 27 -109 14 -2 -6
31 -18 73 -28 43 -10 101 -29 128 -41 l50 -23 -40 -8 c-22 -4 -43 -12 -46 -17
-3 -5 -22 -1 -43 7 -40 17 -87 17 -86 0 1 -5 9 -9 18 -8 41 6 73 -12 140 -79
40 -39 71 -71 70 -72 -2 -1 -24 -11 -51 -24 -26 -12 -47 -26 -47 -32 0 -12 17
-13 24 -1 3 4 26 16 51 25 l45 18 55 -58 55 -58 -51 -52 c-28 -28 -47 -54 -41
-58 5 -3 32 17 60 45 l51 51 33 -26 c37 -28 140 -76 163 -76 23 0 19 -7 -41
-76 -74 -84 -99 -92 -176 -53 -45 23 -48 23 -48 4 0 -8 7 -15 15 -15 8 0 29
-9 47 -20 18 -11 27 -20 21 -20 -7 0 -13 -4 -13 -9 0 -10 69 -4 118 11 19 6
64 40 104 79 39 38 80 74 92 80 11 6 -9 -18 -45 -53 -77 -73 -131 -158 -101
-158 4 0 18 20 29 44 12 25 46 64 80 92 31 27 74 65 94 84 20 19 43 34 52 32
14 -3 14 -7 -3 -35 -23 -38 -25 -47 -7 -47 7 0 19 16 26 35 14 40 23 43 51 15
37 -37 50 -87 50 -189 -1 -111 -12 -180 -31 -192 -20 -13 6 -28 51 -31 84 -4
336 -5 343 -1 4 3 1 15 -7 27 -34 53 -28 176 14 289 33 87 38 91 85 67 21 -11
47 -20 56 -20 9 0 33 -11 54 -25 39 -27 57 -26 39 2 -6 9 -40 27 -77 39 -94
32 -95 33 -57 64 l34 28 29 -21 c43 -32 89 -26 185 24 76 39 85 42 114 31 31
-11 53 -8 43 8 -3 4 -23 11 -46 15 -34 6 -51 1 -112 -29 -83 -41 -131 -53
-141 -37 -4 6 -1 11 7 11 8 0 50 24 93 54 44 29 117 72 163 95 79 40 84 42
102 25 15 -13 22 -15 31 -6 9 9 6 17 -10 35 l-23 24 51 54 c27 29 50 55 50 56
0 15 -34 -6 -76 -48 -48 -47 -53 -50 -75 -39 -13 7 -26 14 -28 16 -2 2 22 32
53 67 74 85 60 95 -16 12 -33 -36 -66 -65 -74 -65 -23 0 -16 13 21 40 42 30
109 109 101 117 -3 4 -22 -11 -42 -33 l-35 -39 31 47 c17 26 38 52 48 57 9 5
13 13 8 18 -4 4 -30 -16 -58 -46 -30 -32 -60 -56 -74 -57 -32 -3 -30 6 7 42
17 16 45 56 62 89 41 78 40 75 29 75 -5 0 -21 -23 -37 -51 -29 -55 -111 -152
-131 -157 -22 -6 1 63 36 107 19 23 30 44 26 48 -4 4 -16 -3 -26 -17 -29 -37
-24 -12 9 48 17 29 24 52 18 52 -15 0 -77 -112 -77 -138 0 -22 -73 -127 -95
-136 -8 -3 -15 -2 -15 2 0 9 57 99 88 141 16 21 19 31 10 31 -7 0 -24 -16 -37
-35 -17 -25 -27 -32 -36 -25 -8 6 -16 5 -25 -3 -10 -9 -10 -7 0 7 8 10 39 37
68 58 44 32 162 173 162 192 0 4 -6 6 -13 6 -7 0 -21 -16 -32 -36 -22 -42
-110 -135 -143 -153 -19 -10 -15 -1 18 40 23 29 55 79 70 110 20 39 39 61 60
70 32 15 40 29 16 29 -8 0 -29 -12 -47 -27 -32 -28 -89 -38 -89 -17 0 17 98
111 130 126 17 7 30 16 30 19 0 14 -14 18 -28 6 -13 -11 -14 -9 -2 13 36 67
52 190 25 190 -11 0 -15 -11 -15 -38 0 -90 -24 -135 -130 -242 -82 -82 -100
-96 -100 -77 0 13 15 37 35 57 32 31 46 60 29 60 -4 0 -22 -17 -40 -37 l-34
-38 5 55 c14 136 15 141 57 186 22 24 48 46 59 49 10 4 19 13 19 21 0 20 -11
17 -50 -16 -22 -20 -37 -27 -44 -20 -17 17 -23 12 -30 -22 -4 -18 -22 -57 -41
-87 -19 -30 -44 -83 -56 -118 -11 -34 -23 -63 -25 -63 -3 0 -2 10 1 21 5 15 3
20 -5 17 -7 -2 -18 -25 -25 -52 -7 -26 -17 -52 -24 -59 -20 -20 -13 55 10 92
22 36 16 58 -7 27 -23 -33 -17 4 10 57 13 26 19 50 15 53 -5 3 -20 -19 -34
-48 -22 -48 -25 -50 -25 -23 0 17 14 55 30 85 59 105 101 203 92 212 -5 5 -31
-35 -61 -94 -28 -57 -49 -95 -47 -86 3 9 8 63 12 118 4 64 13 114 24 135 17
32 16 45 -1 45 -11 0 -39 -92 -49 -161 -5 -34 -13 -65 -19 -68 -5 -3 -23 -42
-41 -86 -17 -44 -36 -84 -42 -90 -5 -5 -2 8 7 30 28 64 34 110 37 273 4 177
-13 205 -24 41 -13 -186 -26 -273 -46 -319 -19 -40 -21 -42 -21 -17 -1 18 -6
27 -17 27 -12 0 -14 -5 -9 -17 4 -10 10 -45 12 -78 3 -46 1 -56 -7 -43 -6 10
-13 52 -17 96 -5 65 -1 95 21 183 24 93 27 121 24 237 -2 97 -6 132 -15 132
-10 0 -13 -33 -13 -134z m149 -318 c-7 -29 -14 -47 -17 -40 -5 15 18 105 26
98 2 -3 -1 -29 -9 -58z m-237 -56 c0 -28 -5 -59 -11 -69 -8 -14 -10 -4 -11 48
0 59 6 86 17 75 2 -2 4 -26 5 -54z m424 -62 c-9 -69 -18 -95 -45 -135 -18 -27
-30 -41 -28 -30 3 11 9 38 13 60 6 39 63 199 69 193 1 -2 -3 -41 -9 -88z
m-248 -61 c-23 -84 -23 -84 -26 -39 -3 33 3 57 19 87 13 23 25 41 26 39 2 -2
-7 -41 -19 -87z m-150 -9 c1 -23 0 -23 -8 -5 -5 11 -8 34 -8 50 0 29 0 29 8 5
4 -14 8 -36 8 -50z m-379 7 c-1 -31 -1 -31 -9 -7 -11 36 -11 52 0 45 6 -3 10
-21 9 -38z m189 -57 l-1 -45 -7 45 c-4 25 -10 59 -13 75 l-7 30 14 -30 c9 -16
15 -50 14 -75z m-275 5 l7 -40 -14 35 c-7 19 -16 46 -20 60 -8 24 -7 24 7 5 8
-11 17 -38 20 -60z m44 28 c-3 -10 -5 -4 -5 12 0 17 2 24 5 18 2 -7 2 -21 0
-30z m190 5 c-3 -7 -5 -2 -5 12 0 14 2 19 5 13 2 -7 2 -19 0 -25z m440 -20
c-3 -7 -5 -2 -5 12 0 14 2 19 5 13 2 -7 2 -19 0 -25z m-482 -128 c19 -58 42
-131 50 -163 8 -32 24 -76 36 -98 11 -23 19 -43 17 -45 -9 -8 -67 124 -83 186
-20 77 -54 160 -66 160 -9 0 -29 65 -29 95 1 41 39 -28 75 -135z m265 50 c5
-45 12 -92 15 -104 5 -16 4 -17 -3 -6 -10 15 -32 141 -32 181 0 47 11 8 20
-71z m-589 -77 c34 -22 77 -88 66 -99 -2 -2 -19 16 -37 41 -19 25 -44 52 -57
61 -26 16 -113 130 -113 147 0 5 23 -20 50 -57 28 -36 69 -78 91 -93z m989
112 c-7 -9 -15 -13 -18 -10 -3 2 1 11 8 20 7 9 15 13 18 10 3 -2 -1 -11 -8
-20z m162 19 c11 -10 -56 -114 -105 -161 l-48 -48 45 88 c25 48 46 94 46 101
0 20 47 35 62 20z m-355 -26 c-3 -8 -6 -5 -6 6 -1 11 2 17 5 13 3 -3 4 -12 1
-19z m-607 -121 c0 -20 -13 3 -32 55 -10 29 -18 55 -17 58 1 9 49 -102 49
-113z m589 9 c-9 -8 -10 -3 -5 23 3 18 7 41 8 50 1 9 3 -1 5 -23 3 -22 -1 -43
-8 -50z m58 27 c-3 -10 -5 -4 -5 12 0 17 2 24 5 18 2 -7 2 -21 0 -30z m118
-29 c-14 -31 -25 -59 -25 -62 0 -3 -2 -3 -5 0 -11 10 36 118 51 118 2 0 -7
-25 -21 -56z m-796 -54 c6 -19 7 -30 2 -25 -5 6 -13 24 -17 40 -9 39 0 30 15
-15z m678 3 c-3 -10 -5 -4 -5 12 0 17 2 24 5 18 2 -7 2 -21 0 -30z m-982 -17
c19 -8 35 -17 35 -20 0 -11 -53 2 -68 17 -20 21 -12 21 33 3z m393 -88 c12
-32 20 -58 18 -58 -8 0 -49 76 -63 115 -14 39 -13 40 5 20 10 -11 28 -46 40
-77z m189 60 c-3 -7 -5 -2 -5 12 0 14 2 19 5 13 2 -7 2 -19 0 -25z m390 0 c-3
-8 -6 -5 -6 6 -1 11 2 17 5 13 3 -3 4 -12 1 -19z m-677 -52 c0 -5 -7 -1 -15
10 -8 10 -14 24 -14 29 0 6 6 1 14 -9 8 -11 15 -24 15 -30z m-216 10 c13 -12
31 -37 40 -54 15 -29 15 -31 -5 -37 -26 -8 -51 13 -83 72 l-25 43 25 0 c14 0
35 -11 48 -24z m1096 21 c0 -2 -10 -12 -22 -23 l-23 -19 19 23 c18 21 26 27
26 19z m50 -4 c-1 -17 -26 -40 -38 -35 -10 3 -9 8 4 23 17 19 34 25 34 12z
m-998 -78 c10 -19 10 -19 -8 -3 -10 9 -27 32 -37 50 l-18 33 26 -30 c14 -16
31 -39 37 -50z m-62 3 c0 -14 -19 1 -31 25 -12 22 -12 22 10 3 11 -11 21 -23
21 -28z m185 -13 c21 -27 42 -56 48 -63 9 -11 5 -11 -17 -1 -24 11 -76 91 -76
115 0 9 1 9 45 -51z m292 23 c-3 -8 -6 -5 -6 6 -1 11 2 17 5 13 3 -3 4 -12 1
-19z m523 18 c0 -2 -8 -10 -17 -17 -16 -13 -17 -12 -4 4 13 16 21 21 21 13z
m-55 -35 c-8 -17 -21 -33 -27 -37 -8 -5 -7 1 3 16 8 14 19 31 23 38 15 25 16
11 1 -17z m-97 -18 c-7 -16 -33 -52 -58 -79 -24 -27 -37 -38 -27 -24 9 14 33
51 54 82 41 61 51 68 31 21z m158 8 c-14 -26 -46 -50 -46 -34 0 7 51 63 57 63
2 0 -3 -13 -11 -29z m204 5 c0 -2 -7 -7 -16 -10 -8 -3 -12 -2 -9 4 6 10 25 14
25 6z m-1452 -47 c23 -22 42 -45 42 -52 0 -7 5 -18 11 -24 7 -7 -1 -12 -27
-16 -34 -6 -41 -2 -100 51 -56 50 -61 58 -47 70 32 24 75 14 121 -29z m109 7
c3 -3 -6 -11 -21 -17 -23 -11 -30 -10 -53 7 -46 34 -40 44 17 29 29 -8 54 -16
57 -19z m1219 -11 c-9 -14 -21 -25 -27 -25 -5 0 0 13 12 30 27 35 39 32 15 -5z
m-46 -4 c-10 -21 -30 -37 -30 -26 0 14 21 45 31 45 6 0 6 -7 -1 -19z m150 4
c-7 -8 -17 -15 -23 -15 -6 0 -2 7 9 15 25 19 30 19 14 0z m-1185 -22 l18 -26
-34 23 c-19 13 -36 25 -38 27 -2 2 5 3 16 3 11 0 29 -12 38 -27z m-84 -15 c10
-13 18 -26 19 -30 0 -15 -58 -8 -71 8 -11 14 -10 18 6 30 24 18 23 18 46 -8z
m1039 -8 c-6 -11 -13 -20 -16 -20 -2 0 0 9 6 20 6 11 13 20 16 20 2 0 0 -9 -6
-20z m-934 -47 c-8 -8 -45 17 -57 39 -10 18 -6 17 25 -7 20 -15 35 -30 32 -32z
m979 -35 c-38 -40 -73 -77 -78 -83 -18 -18 17 30 67 93 27 34 56 62 64 62 9 0
-14 -31 -53 -72z m111 34 l-29 -27 23 32 c13 18 26 30 29 28 3 -3 -8 -18 -23
-33z m74 34 c0 -2 -7 -9 -15 -16 -13 -11 -14 -10 -9 4 5 14 24 23 24 12z
m-294 -44 c-14 -14 -16 -14 -16 -1 0 20 23 44 29 28 2 -6 -4 -18 -13 -27z
m375 28 c29 -16 24 -24 -33 -50 -29 -14 -99 -53 -155 -87 -95 -59 -132 -76
-118 -53 3 5 34 25 68 44 34 19 89 62 122 96 60 60 80 69 116 50z m-1141 -64
c0 -5 -13 3 -30 19 -16 16 -30 30 -30 32 0 2 14 -6 30 -19 17 -12 30 -26 30
-32z m-266 35 c6 -9 -39 -21 -77 -21 -27 0 -10 17 23 23 43 7 49 7 54 -2z
m105 -7 c2 -2 -10 -4 -27 -4 -17 0 -34 4 -37 10 -5 9 53 3 64 -6z m94 -30 c39
-20 137 -95 157 -120 13 -16 13 -17 0 -9 -66 39 -200 134 -200 141 0 7 11 4
43 -12z m-154 -23 l20 -28 -26 -12 c-24 -11 -29 -9 -60 21 -30 29 -31 33 -16
40 37 14 62 8 82 -21z m106 -11 c2 0 5 -6 8 -14 8 -21 -62 3 -74 26 -10 18 -8
18 27 3 20 -8 38 -15 39 -15z m-13 -96 c38 -37 50 -53 35 -48 -51 16 -137 68
-137 84 0 5 8 11 18 13 9 3 19 5 21 6 2 0 30 -24 63 -55z m39 25 c16 -11 34
-29 40 -40 9 -18 8 -19 -8 -11 -22 13 -80 72 -69 72 4 0 21 -9 37 -21z m109
-19 c8 -5 10 -10 4 -10 -7 0 -22 9 -35 21 -19 16 -20 18 -4 10 11 -6 27 -15
35 -21z m-65 -151 c-93 -94 -130 -115 -55 -31 35 40 71 77 80 82 38 23 30 5
-25 -51z"/>
</g>
</svg>
