<?xml version="1.0" standalone="no"?>
<!DOCTYPE svg PUBLIC "-//W3C//DTD SVG 20010904//EN"
 "http://www.w3.org/TR/2001/REC-SVG-20010904/DTD/svg10.dtd">
<svg version="1.0" xmlns="http://www.w3.org/2000/svg"
 width="512.000000pt" height="512.000000pt" viewBox="0 0 512.000000 512.000000"
 preserveAspectRatio="xMidYMid meet">

<g transform="translate(0.000000,512.000000) scale(0.100000,-0.100000)"
fill="#000000" stroke="none">
<path d="M2832 4329 c-98 -12 -157 -36 -211 -85 -85 -77 -110 -188 -111 -485
0 -140 -1 -149 -29 -210 -28 -63 -85 -232 -114 -339 -76 -278 -106 -636 -76
-908 26 -242 109 -559 192 -732 l41 -85 7 -165 c3 -91 12 -182 18 -202 16 -50
55 -95 100 -114 84 -36 301 -26 449 21 138 44 231 105 383 252 l136 133 101
19 c55 11 137 29 181 41 l81 22 -57 62 c-88 95 -193 266 -258 421 -27 65 -82
246 -95 311 -82 434 38 898 321 1233 l62 75 -12 45 c-33 128 -125 274 -242
387 -129 123 -292 216 -472 268 -144 42 -263 52 -395 35z"/>
<path d="M1415 3740 c-105 -16 -165 -57 -204 -139 -24 -51 -26 -67 -26 -176 0
-115 1 -123 32 -185 17 -36 48 -84 68 -107 l35 -42 -87 -47 c-48 -26 -111 -57
-141 -68 -64 -23 -72 -38 -104 -180 -29 -130 -29 -356 1 -478 33 -138 41 -153
98 -172 26 -9 81 -35 121 -57 71 -39 73 -41 59 -63 -9 -12 -30 -63 -48 -112
-30 -82 -33 -99 -33 -209 -1 -102 2 -127 20 -166 33 -70 84 -113 165 -139 63
-21 83 -22 222 -17 178 6 232 18 482 109 94 34 171 62 172 63 1 1 -29 63 -67
139 -73 143 -134 317 -169 477 -91 426 -20 925 182 1273 38 65 39 70 22 82
-25 18 -300 126 -400 157 -162 50 -306 71 -400 57z"/>
<path d="M4098 3452 c-193 -302 -287 -698 -249 -1053 15 -134 58 -322 101
-434 50 -128 158 -325 220 -398 8 -9 162 57 260 111 579 319 829 785 613 1139
-101 165 -304 349 -565 513 -107 67 -316 179 -333 180 -5 0 -27 -26 -47 -58z
m500 -717 c49 -21 81 -52 103 -100 76 -165 -120 -334 -273 -234 -72 47 -106
140 -79 221 33 99 152 153 249 113z"/>
<path d="M295 3150 c-134 -19 -219 -113 -272 -302 -26 -92 -26 -484 0 -576 60
-214 157 -304 327 -304 88 0 143 13 215 49 54 28 235 142 235 149 0 3 -9 22
-20 44 -47 92 -64 186 -64 350 0 164 17 258 64 350 11 22 20 41 20 43 0 7
-230 133 -293 161 -32 14 -74 28 -95 31 -20 4 -44 8 -52 10 -8 1 -38 -1 -65
-5z"/>
</g>
</svg>
