<?xml version="1.0" standalone="no"?>
<!DOCTYPE svg PUBLIC "-//W3C//DTD SVG 20010904//EN"
 "http://www.w3.org/TR/2001/REC-SVG-20010904/DTD/svg10.dtd">
<svg version="1.0" xmlns="http://www.w3.org/2000/svg"
 width="834.000000pt" height="834.000000pt" viewBox="0 0 834.000000 834.000000"
 preserveAspectRatio="xMidYMid meet">

<g transform="translate(0.000000,834.000000) scale(0.100000,-0.100000)"
fill="#000000" stroke="none">
<path d="M4554 6065 c-4 -8 1 -32 9 -53 8 -20 18 -62 22 -92 3 -30 13 -90 21
-134 21 -118 19 -254 -7 -318 -63 -163 -140 -291 -206 -344 -85 -67 -89 -68
-438 -146 -49 -10 -126 -28 -170 -38 -44 -10 -123 -28 -175 -40 -52 -12 -131
-30 -175 -40 -44 -10 -123 -28 -175 -39 -52 -11 -138 -29 -190 -40 -137 -30
-248 -44 -289 -36 -20 4 -69 22 -109 41 -40 19 -79 34 -87 34 -7 0 -34 -27
-59 -59 -81 -105 -154 -163 -237 -188 -100 -30 -182 -51 -254 -64 l-60 -11
-150 77 c-345 178 -1144 575 -1360 675 -218 102 -385 136 -385 80 0 -11 6 -20
13 -20 6 -1 39 -38 72 -83 108 -150 188 -246 207 -253 11 -3 39 -1 63 6 51 14
55 12 186 -95 461 -377 775 -667 850 -784 25 -39 28 -51 24 -100 -12 -120 -38
-279 -56 -337 -10 -33 -19 -67 -19 -75 0 -8 -11 -36 -25 -64 -13 -27 -25 -54
-25 -60 0 -5 -16 -32 -35 -60 -38 -55 -33 -80 14 -68 190 47 449 276 625 553
16 25 37 57 47 72 10 15 33 54 50 88 45 88 57 94 190 87 87 -4 120 -11 163
-30 70 -32 116 -92 116 -151 0 -66 11 -75 62 -47 24 13 48 28 54 32 12 10 118
69 181 101 40 21 46 21 110 8 137 -27 223 -93 223 -172 0 -36 1 -38 33 -38 17
0 75 9 127 20 52 11 140 30 195 41 55 11 132 27 170 36 54 11 79 13 110 5 22
-6 67 -13 100 -17 33 -3 123 -15 200 -25 384 -53 883 -98 959 -86 39 7 66 -5
66 -29 0 -22 -141 -165 -215 -220 -140 -103 -378 -225 -530 -272 -16 -5 -31
-17 -33 -26 -3 -15 11 -17 139 -17 110 0 144 3 153 14 7 9 57 20 131 30 243
33 491 103 681 192 28 13 54 24 57 24 3 0 54 28 113 61 114 64 184 113 271
187 l53 44 142 -11 c79 -6 165 -14 192 -16 60 -5 484 22 543 35 23 6 84 16
135 24 134 22 320 63 483 108 97 27 95 26 95 36 0 15 -20 27 -85 52 -55 21
-95 51 -95 69 0 4 100 13 223 19 306 17 546 64 650 129 40 25 43 31 25 55 -18
21 -310 175 -483 253 -33 15 -85 38 -115 52 -130 59 -130 59 -287 122 -27 10
-82 31 -123 46 -41 15 -96 36 -122 46 -26 11 -53 19 -60 19 -7 0 -35 8 -63 19
-106 40 -389 117 -538 147 -37 7 -72 16 -77 19 -5 3 -42 12 -82 20 -40 7 -127
25 -193 40 -66 15 -151 33 -190 41 -141 29 -329 88 -431 135 -159 74 -236 142
-384 339 -152 203 -344 390 -465 455 -55 28 -83 32 -91 10z m1612 -1573 c59
-39 98 -355 62 -497 -11 -43 -17 -50 -40 -53 -41 -5 -52 25 -39 102 6 35 11
90 11 124 0 71 -33 251 -51 280 -7 10 -9 27 -6 36 7 16 43 21 63 8z m-135
-129 c10 -11 15 -54 17 -138 3 -103 1 -124 -13 -138 -20 -20 -26 -21 -49 -4
-16 11 -19 32 -22 142 -2 83 1 134 8 142 15 18 43 16 59 -4z m379 -3 c6 -11
11 -74 11 -141 1 -98 -2 -124 -14 -137 -13 -12 -21 -13 -40 -5 -24 11 -25 16
-29 145 -4 112 -3 135 10 146 23 18 50 15 62 -8z m1254 -36 c18 -17 19 -24 10
-48 -12 -30 -74 -13 -74 20 0 14 27 44 40 44 5 0 16 -7 24 -16z"/>
</g>
</svg>
