<?xml version="1.0" encoding="utf-8"?>
<!-- Generator: Adobe Illustrator 25.3.1, SVG Export Plug-In . SVG Version: 6.00 Build 0)  -->
<svg version="1.1" id="Capa_1" xmlns="http://www.w3.org/2000/svg" xmlns:xlink="http://www.w3.org/1999/xlink" x="0px" y="0px"
	 viewBox="0 0 792 792" style="enable-background:new 0 0 792 792;" xml:space="preserve">
<style type="text/css">
	.st0{fill:#FFFFFF;}
</style>
<g>
	<g id="_x38__12_">
		<g>
			<path class="st0" d="M282.9,0H169.7c-31.2,0-56.6,25.3-56.6,56.6v678.9c0,31.2,25.3,56.6,56.6,56.6h113.1
				c31.3,0,56.6-25.3,56.6-56.6V56.6C339.4,25.3,314.1,0,282.9,0z M622.3,0H509.1c-31.3,0-56.6,25.3-56.6,56.6v678.9
				c0,31.2,25.3,56.6,56.6,56.6h113.1c31.3,0,56.6-25.3,56.6-56.6V56.6C678.9,25.3,653.5,0,622.3,0z"/>
		</g>
	</g>
</g>
</svg>
