<?xml version="1.0" encoding="UTF-8" standalone="no"?>
<svg
   xmlns:dc="http://purl.org/dc/elements/1.1/"
   xmlns:cc="http://creativecommons.org/ns#"
   xmlns:rdf="http://www.w3.org/1999/02/22-rdf-syntax-ns#"
   xmlns:svg="http://www.w3.org/2000/svg"
   xmlns="http://www.w3.org/2000/svg"
   xmlns:sodipodi="http://sodipodi.sourceforge.net/DTD/sodipodi-0.dtd"
   xmlns:inkscape="http://www.inkscape.org/namespaces/inkscape"
   inkscape:version="1.0beta2 (2b71d25, 2019-12-03)"
   sodipodi:docname="CDU.svg"
   viewBox="0 0 377.94666 110.16"
   height="110.16"
   width="377.94666"
   xml:space="preserve"
   id="svg1064"
   version="1.1"><metadata
     id="metadata1070"><rdf:RDF><cc:Work
         rdf:about=""><dc:format>image/svg+xml</dc:format><dc:type
           rdf:resource="http://purl.org/dc/dcmitype/StillImage" /><dc:title></dc:title></cc:Work></rdf:RDF></metadata><defs
     id="defs1068" /><sodipodi:namedview
     inkscape:current-layer="g1072"
     inkscape:window-maximized="0"
     inkscape:window-y="26"
     inkscape:window-x="0"
     inkscape:cy="100.51319"
     inkscape:cx="173.99358"
     inkscape:zoom="1.7957983"
     showgrid="false"
     id="namedview1066"
     inkscape:window-height="874"
     inkscape:window-width="1440"
     inkscape:pageshadow="2"
     inkscape:pageopacity="0"
     guidetolerance="10"
     gridtolerance="10"
     objecttolerance="10"
     borderopacity="1"
     inkscape:document-rotation="0"
     bordercolor="#666666"
     pagecolor="#ffffff" /><g
     transform="matrix(1.3333333,0,0,-1.3333333,0,110.16)"
     inkscape:label="ink_ext_XXXXXX"
     inkscape:groupmode="layer"
     id="g1072"><g
       transform="scale(0.1)"
       id="g1074"><path
         inkscape:connector-curvature="0"
         id="path1076"
         style="fill:#ed1c24;fill-opacity:1;fill-rule:evenodd;stroke:none"
         d="m 1348.55,641.793 c 62.31,0 99.9,-9.746 128.44,-33.234 47.48,-39.075 66.81,-112.192 54.47,-193.059 -18.11,-118.531 -68.24,-226.043 -236.41,-226.043 h -145.79 l 69.29,452.336 h 130 z m 87.79,170.684 c 254.64,0 396.74,-149.411 368.95,-396.934 C 1778.04,172.77 1646.68,13.7695 1341.28,13.7695 H 853.871 L 976.328,812.477 h 460.012 v 0" /><path
         inkscape:connector-curvature="0"
         id="path1078"
         style="fill:#ed1c24;fill-opacity:1;fill-rule:nonzero;stroke:none"
         d="m 2232.81,812.477 -68.67,-447.93 c -15.35,-100.113 39.9,-174.777 146.97,-174.777 91.21,0 168.03,61.378 185.42,174.796 l 68.68,447.911 h 269.44 L 2770.13,391.641 C 2734.57,159.695 2605.21,0 2291.91,0 c -208.16,0 -323.64,75.3281 -373.44,172.359 -37.28,72.625 -38.94,158.047 -27.95,229.707 l 62.91,410.411 h 279.38 v 0" /><path
         inkscape:connector-curvature="0"
         id="path1080"
         style="fill:#ed1c24;fill-opacity:1;fill-rule:nonzero;stroke:none"
         d="m 781.781,226.441 c -40.226,-12.457 -132.406,-23.046 -224.168,-23.046 -206.965,0 -278.605,97.3 -270.968,212.148 8.507,127.93 118.96,218.32 333.621,218.32 86.547,0 179.148,-22.218 201.629,-29.215 l 28.894,187.715 C 810.977,803.516 697.488,826.246 542.035,826.246 160.309,826.246 29.6953,615.258 4.85938,460.852 -30.0781,243.695 108.477,0 476.406,0 593.633,0 713.461,17.3867 752.188,35.3477 l 29.593,191.0933 v 0" /></g></g></svg>
