<?xml version="1.0" encoding="UTF-8" standalone="no"?>
<svg xmlns="http://www.w3.org/2000/svg" version="1.1" width="500" height="500" viewBox="0 0 340 340">
	<rect width="340" height="340" fill="#E2001A"/>
	<path id="S" d="M 87,239 L 100,219 C 28,179 -6,266 59,277 C 91,282 63,309 33,283 L 20,305 C 94,354 142,256 66,249 C 50,248 49,223 87,239 z" style="fill:#ffffff;stroke:none"/>
	<path id="P" d="M 110,210 V 315 H 140 V 280 H 163 C 200,280 201,209 163,210 H 110 z M 140,233 H 152 C 165,233 165,258 152,258 H 140 V 233 z" style="fill:#ffffff;fill-rule:evenodd;stroke:none"/>
	<path id="D" d="M 198,210 V 315 H 244 C 303,316 303,210 245,210 H 198 z M 227,235 H 232 C 269,235 269,291 232,291 H 227 V 235 z" style="fill:#ffffff;fill-rule:evenodd;stroke:none"/>
</svg>