<?xml version="1.0" encoding="utf-8"?>
<!-- Generator: Adobe Illustrator 25.2.3, SVG Export Plug-In . SVG Version: 6.00 Build 0)  -->
<svg version="1.1" id="Ebene_1" xmlns="http://www.w3.org/2000/svg" xmlns:xlink="http://www.w3.org/1999/xlink" x="0px" y="0px"
	 viewBox="0 0 100 100" style="enable-background:new 0 0 100 100;" xml:space="preserve">
<style type="text/css">
	.st0{fill:#DDDCD3;}
	.st1{fill:#D5D2B1;}
	.st2{fill:#C5C2A4;}
	.st3{fill:#B1AE94;}
	.st4{fill:#A84720;}
	.st5{fill:#B8631E;}
	.st6{fill:#4B190D;}
	.st7{fill:#F9F4F0;}
	.st8{fill:#893B17;}
</style>
<g>
	<g>
		<path class="st0" d="M60.45,8.61c0,0,10.7-5.26,16.37-2.02c0,0,6.34,8.81-1.05,22.45c-7.39,13.64,0,0,0,0L60.45,8.61"/>
		<path class="st1" d="M39.57,19.38c0,0,7.46-12.09,17.56-13.71c0,0,11.71,9.02,19.7,25.45c0,0-0.78,4.6-3.22,6L39.57,19.38"/>
		<path class="st2" d="M26.06,43.69c0,0-2.05-15.11,7.99-25.75c0,0,30.87,7.14,42.66,19.19c0,0,0.69,8.34-1.39,10.43L26.06,43.69"/>
		<path class="st3" d="M26.06,75.52c0,0-10.39-12.01-2.78-30.75c0,0,20.12-9.72,53.43-0.93c0,0,8.12,14.97-3.11,31.43L26.06,75.52z"
			/>
	</g>
	<g>
		<path class="st4" d="M33.53,76.38c-0.54-0.67-1.06-1.36-1.6-2.03c-0.53-0.68-1.04-1.37-1.56-2.06c-1.04-1.37-2.06-2.76-3.06-4.15
			c-1.01-1.39-2.01-2.79-2.99-4.2c-0.99-1.4-1.96-2.82-2.93-4.23l2.16,0.45l-1.04,0.86l-1.04,0.89c-0.69,0.6-1.38,1.2-2.05,1.82
			c-1.35,1.23-2.67,2.48-3.93,3.77c-0.62,0.65-1.25,1.29-1.84,1.96c-0.3,0.33-0.58,0.67-0.88,1.01c-0.29,0.34-0.57,0.68-0.84,1.02
			c-0.28,0.34-0.53,0.69-0.79,1.04c-0.25,0.35-0.51,0.7-0.74,1.06c-0.24,0.36-0.47,0.72-0.67,1.08c-0.21,0.36-0.4,0.73-0.6,1.1
			l0.06-0.14c0.01-0.04-0.01,0.01-0.02,0.04l-0.03,0.1L9.08,76C9.03,76.16,9,76.34,8.97,76.51c-0.06,0.35-0.11,0.72-0.15,1.09
			c-0.07,0.75-0.08,1.53-0.05,2.31c0.06,1.57,0.31,3.17,0.67,4.77c0.09,0.4,0.19,0.8,0.3,1.2c0.11,0.4,0.21,0.8,0.34,1.2
			c0.12,0.4,0.24,0.8,0.37,1.2c0.12,0.4,0.28,0.79,0.41,1.19c0.28,0.79,0.58,1.59,0.9,2.39l0.98,2.39c-0.3-0.31-0.59-0.63-0.89-0.96
			c-0.29-0.33-0.56-0.66-0.84-1l-0.8-1.04c-0.25-0.36-0.51-0.71-0.75-1.08c-0.48-0.73-0.95-1.48-1.37-2.26
			c-0.43-0.78-0.81-1.58-1.16-2.41c-0.18-0.41-0.34-0.83-0.49-1.26c-0.15-0.42-0.29-0.85-0.42-1.29c-0.26-0.87-0.46-1.77-0.61-2.68
			c-0.15-0.92-0.22-1.85-0.23-2.81c0-0.48,0.02-0.96,0.08-1.46c0.03-0.25,0.06-0.5,0.11-0.75c0.02-0.13,0.05-0.26,0.08-0.39
			l0.05-0.21c0.02-0.08,0.03-0.13,0.08-0.27l0.02-0.05l0.04-0.1c0.21-0.48,0.41-0.96,0.66-1.41c0.24-0.46,0.49-0.9,0.75-1.33
			c0.26-0.43,0.54-0.86,0.82-1.27c0.29-0.41,0.58-0.81,0.89-1.2c0.6-0.79,1.24-1.54,1.9-2.26c0.66-0.72,1.33-1.42,2.04-2.08
			c0.7-0.67,1.41-1.32,2.15-1.94c0.74-0.62,1.48-1.23,2.24-1.81c0.77-0.58,1.54-1.15,2.32-1.69l1.2-0.8
			c0.41-0.26,0.8-0.52,1.24-0.78l1.43-0.85l0.73,1.3c0.84,1.5,1.67,3,2.49,4.51c0.82,1.51,1.64,3.02,2.43,4.54
			c0.8,1.52,1.6,3.04,2.36,4.59c0.38,0.77,0.78,1.54,1.15,2.31C32.79,74.83,33.17,75.6,33.53,76.38z"/>
		<path class="st4" d="M66.47,76.38c0.36-0.78,0.74-1.56,1.12-2.33c0.38-0.78,0.77-1.54,1.15-2.31c0.77-1.54,1.56-3.07,2.36-4.59
			c0.8-1.52,1.61-3.04,2.43-4.54c0.82-1.51,1.65-3.01,2.49-4.51l0.73-1.3l1.43,0.85c0.44,0.26,0.83,0.51,1.24,0.78l1.2,0.8
			c0.79,0.54,1.56,1.11,2.32,1.69c0.76,0.59,1.5,1.19,2.24,1.81c0.73,0.62,1.45,1.27,2.15,1.94c0.7,0.66,1.38,1.37,2.04,2.08
			c0.66,0.72,1.3,1.47,1.9,2.26c0.31,0.39,0.6,0.8,0.89,1.2c0.29,0.41,0.56,0.83,0.82,1.27c0.26,0.43,0.52,0.88,0.75,1.33
			c0.24,0.45,0.45,0.93,0.66,1.41l0.04,0.1l0.02,0.05c0.05,0.15,0.06,0.19,0.08,0.27l0.05,0.21c0.03,0.13,0.05,0.27,0.08,0.39
			c0.05,0.26,0.08,0.51,0.11,0.75c0.05,0.49,0.08,0.98,0.08,1.46c-0.01,0.96-0.08,1.9-0.23,2.81c-0.15,0.92-0.35,1.81-0.61,2.68
			c-0.13,0.44-0.27,0.87-0.42,1.29c-0.15,0.43-0.32,0.85-0.49,1.26c-0.35,0.83-0.73,1.63-1.16,2.41c-0.42,0.78-0.89,1.53-1.37,2.26
			c-0.24,0.37-0.5,0.72-0.75,1.08l-0.8,1.04c-0.28,0.34-0.55,0.68-0.84,1c-0.29,0.32-0.58,0.65-0.89,0.96l0.98-2.39
			c0.31-0.8,0.61-1.59,0.9-2.39c0.13-0.4,0.29-0.79,0.41-1.19c0.13-0.4,0.26-0.8,0.37-1.2c0.13-0.4,0.23-0.8,0.34-1.2
			c0.1-0.4,0.21-0.8,0.3-1.2c0.36-1.6,0.61-3.2,0.67-4.77c0.03-0.78,0.02-1.56-0.05-2.31c-0.04-0.37-0.09-0.74-0.15-1.09
			C91,76.34,90.97,76.16,90.92,76l-0.06-0.23l-0.03-0.1c-0.01-0.02-0.03-0.08-0.02-0.04l0.06,0.14c-0.19-0.37-0.38-0.73-0.6-1.1
			c-0.21-0.36-0.43-0.72-0.67-1.08c-0.23-0.36-0.49-0.71-0.74-1.06c-0.26-0.35-0.51-0.7-0.79-1.04c-0.27-0.35-0.56-0.68-0.84-1.02
			c-0.29-0.33-0.57-0.68-0.88-1.01c-0.59-0.67-1.22-1.31-1.84-1.96c-1.26-1.29-2.58-2.54-3.93-3.77c-0.67-0.62-1.36-1.22-2.05-1.82
			l-1.04-0.89l-1.04-0.86l2.16-0.45c-0.97,1.42-1.95,2.83-2.93,4.23c-0.99,1.4-1.98,2.8-2.99,4.2c-1.01,1.39-2.02,2.78-3.06,4.15
			c-0.52,0.69-1.03,1.38-1.56,2.06C67.53,75.03,67.01,75.71,66.47,76.38z"/>
	</g>
	<path class="st4" d="M26.4,71.87c0,0,7.05-16.84,23.6-16.84v26.79C50,81.82,36.61,82.07,26.4,71.87z"/>
	<path class="st5" d="M73.6,71.87c0,0-7.05-16.84-23.6-16.84v26.79C50,81.82,63.39,82.07,73.6,71.87z"/>
	<g>
		<g>
			<path class="st4" d="M23.29,71.03l3.33,9.73c0,0,8.97,7.95,15.78,8.04c6.81,0.1,4.12,3.74,0.79,4.91
				c-3.33,1.17-16.92,2.5-26.44-9.1c-4.76-5.8-2.36-10.47,0.33-12.13C19.77,70.82,23.29,71.03,23.29,71.03z"/>
			<path class="st5" d="M23.29,71.03c0,0,10.95,1.54,17.73,10.97c5.07,7.05-1.61,4.4-3.87,2.09c-1.78-1.82-8.83-4.46-10.53-3.34
				L23.29,71.03z"/>
		</g>
		<g>
			<path class="st4" d="M76.71,71.03l-3.33,9.73c0,0-8.97,7.95-15.78,8.04c-6.81,0.1-4.12,3.74-0.79,4.91
				c3.33,1.17,16.92,2.5,26.44-9.1c4.76-5.8,2.36-10.47-0.33-12.13C80.23,70.82,76.71,71.03,76.71,71.03z"/>
			<path class="st5" d="M76.71,71.03c0,0-10.95,1.54-17.73,10.97c-5.07,7.05,1.61,4.4,3.87,2.09c1.78-1.82,8.84-4.46,10.53-3.34
				L76.71,71.03z"/>
		</g>
	</g>
	<g>
		<path class="st4" d="M57.54,71.03c0-0.01-0.02,0.07,0,0.04c0.02-0.02,0.01,0.02,0,0.09c-0.03,0.12-0.08,0.33-0.19,0.57
			c-0.1,0.25-0.25,0.54-0.45,0.84c-0.1,0.15-0.21,0.3-0.33,0.45c-0.11,0.16-0.26,0.29-0.39,0.44c-0.14,0.14-0.3,0.27-0.45,0.41
			c-0.16,0.12-0.32,0.24-0.48,0.36c-0.17,0.11-0.33,0.21-0.49,0.3c-0.16,0.1-0.32,0.16-0.47,0.24c-0.29,0.16-0.56,0.24-0.75,0.32
			c-0.19,0.07-0.29,0.11-0.29,0.11l-0.16,0.06c-0.72,0.28-1.07,1.08-0.8,1.79c0.22,0.58,0.8,0.93,1.4,0.89c0,0,0.15-0.01,0.41-0.03
			c0.26-0.02,0.63-0.03,1.08-0.12c0.22-0.04,0.47-0.07,0.73-0.14c0.26-0.07,0.53-0.14,0.81-0.22c0.28-0.1,0.57-0.21,0.86-0.31
			c0.28-0.13,0.58-0.26,0.87-0.41c0.28-0.16,0.57-0.31,0.83-0.5c0.27-0.18,0.53-0.37,0.77-0.57c0.49-0.39,0.91-0.81,1.24-1.21
			c0.34-0.39,0.59-0.76,0.77-1.04c0.09-0.14,0.16-0.26,0.22-0.39c0.04-0.08,0.07-0.13,0.07-0.13c0.51-1.32-0.15-2.81-1.47-3.32
			C59.53,69.05,58.05,69.71,57.54,71.03z"/>
		<path class="st6" d="M57.73,71.41c0,1.19,1.45,2.16,3.24,2.16c1.79,0,3.24-0.97,3.24-2.16c0-1.19-1.45-2.16-3.24-2.16
			C59.18,69.25,57.73,70.22,57.73,71.41z"/>
		<path class="st7" d="M61.13,70.81c0,0.69,0.56,1.25,1.25,1.25c0.69,0,1.25-0.56,1.25-1.25c0-0.69-0.56-1.25-1.25-1.25
			C61.69,69.56,61.13,70.12,61.13,70.81z"/>
		<path class="st8" d="M41.97,71.03c0-0.01,0.02,0.07,0,0.04c-0.02-0.02-0.01,0.02,0,0.09c0.03,0.12,0.08,0.33,0.19,0.57
			c0.1,0.25,0.25,0.54,0.45,0.84c0.1,0.15,0.21,0.3,0.33,0.45c0.11,0.16,0.26,0.29,0.39,0.44c0.14,0.14,0.3,0.27,0.45,0.41
			c0.16,0.12,0.32,0.24,0.48,0.36c0.17,0.11,0.33,0.21,0.49,0.3c0.16,0.1,0.32,0.16,0.47,0.24c0.29,0.16,0.56,0.24,0.75,0.32
			c0.19,0.07,0.29,0.11,0.29,0.11l0.16,0.06c0.72,0.28,1.07,1.08,0.8,1.79c-0.22,0.58-0.8,0.93-1.4,0.89c0,0-0.15-0.01-0.41-0.03
			c-0.26-0.02-0.63-0.03-1.08-0.12c-0.22-0.04-0.47-0.07-0.73-0.14c-0.26-0.07-0.53-0.14-0.81-0.22c-0.28-0.1-0.57-0.21-0.86-0.31
			c-0.28-0.13-0.58-0.26-0.87-0.41c-0.28-0.16-0.57-0.31-0.83-0.5c-0.27-0.18-0.53-0.37-0.77-0.57c-0.49-0.39-0.91-0.81-1.24-1.21
			c-0.34-0.39-0.59-0.76-0.77-1.04c-0.09-0.14-0.16-0.26-0.22-0.39c-0.04-0.08-0.07-0.13-0.07-0.13c-0.51-1.32,0.15-2.81,1.47-3.32
			C39.97,69.05,41.46,69.71,41.97,71.03z"/>
		<path class="st6" d="M41.77,71.41c0,1.19-1.45,2.16-3.24,2.16c-1.79,0-3.24-0.97-3.24-2.16c0-1.19,1.45-2.16,3.24-2.16
			C40.32,69.25,41.77,70.22,41.77,71.41z"/>
		<path class="st7" d="M41.15,70.81c0,0.69-0.56,1.25-1.25,1.25c-0.69,0-1.25-0.56-1.25-1.25c0-0.69,0.56-1.25,1.25-1.25
			C40.59,69.56,41.15,70.12,41.15,70.81z"/>
	</g>
</g>
</svg>
