<?xml version="1.0" encoding="utf-8"?>
<!-- Generator: Adobe Illustrator 25.2.3, SVG Export Plug-In . SVG Version: 6.00 Build 0)  -->
<svg version="1.1" id="Ebene_1" xmlns="http://www.w3.org/2000/svg" xmlns:xlink="http://www.w3.org/1999/xlink" x="0px" y="0px"
	 viewBox="0 0 100 100" style="enable-background:new 0 0 100 100;" xml:space="preserve">
<style type="text/css">
	.st0{fill:#465971;}
	.st1{fill:#CCCECF;}
	.st2{fill:#F5F0F2;}
	.st3{fill:#F39E2B;}
	.st4{fill:#868686;}
	.st5{fill:#FBDD58;}
	.st6{fill:#3C3C3B;}
	.st7{fill:#FFFFFF;}
	.st8{fill:#575756;}
</style>
<g>
	<g>
		<g>
			<path class="st0" d="M72.49,39.1c-2.08-5.26-3.43-15.71-3.43-15.71l-0.03,0.04C68.19,13.67,60.02,6,50.03,6
				c-9.97,0-18.14,7.65-18.99,17.4l-0.01-0.01c0,0,0,0.06,0,0.14c-0.04,0.51-0.08,1.03-0.08,1.55c0,0.16-1.22,8.19-3.35,14.02
				c-3.78,10.33-6.39,20.76-5.68,28.77C23.3,83.48,35.04,91.9,50.03,91.9c15.01,0,26.79-8.98,28.11-24.07
				C78.92,59,76.02,48.02,72.49,39.1z"/>
		</g>
	</g>
	<g>
		<g>
			<g>
				<path class="st1" d="M34.54,24.97h-1.38c0,0-0.45,8.59-1.93,13.04c-1.48,4.45-5.24,15-5.24,27.07
					c0,13.3,10.77,23.41,24.05,23.41V24.97H34.54z"/>
			</g>
		</g>
		<g>
			<g>
				<path class="st2" d="M74.09,65.08c0-11.78-4.32-22.62-5.81-27.07c-1.48-4.45-1.36-13.04-1.36-13.04h-1.38h-15.5V88.5
					C63.32,88.5,74.09,78.38,74.09,65.08z"/>
			</g>
		</g>
	</g>
	<path class="st3" d="M67.22,30.1c0,8.36-7.69,15.13-17.18,15.13c-9.49,0-17.18-6.77-17.18-15.13c0-8.36,7.69-15.13,17.18-15.13
		C59.53,14.97,67.22,21.74,67.22,30.1z"/>
	<path class="st0" d="M67.22,26.65c0,8.36-7.69,15.13-17.18,15.13c-9.49,0-17.18-6.77-17.18-15.13c0-8.36,7.69-15.13,17.18-15.13
		C59.53,11.52,67.22,18.3,67.22,26.65z"/>
	<g>
		<path class="st0" d="M27.74,43.72c-3.36,3.7-13.14,15.6-11.11,26.46c1.7,9.12,5.32,5.71,5.35,3.65c0.07-4.13,3.08-5.97,3.08-5.97
			L27.74,43.72z"/>
		<path class="st0" d="M72.34,43.72c3.36,3.7,13.14,15.6,11.11,26.46c-1.7,9.12-5.32,5.71-5.35,3.65c-0.07-4.13-3.08-5.97-3.08-5.97
			L72.34,43.72z"/>
	</g>
	<g>
		<g>
			<g>
				<path class="st4" d="M48.54,26.52l-2.06,1.36c-0.83,0.55-1.09,1.69-0.58,2.54l3.22,5.41c0.25,0.42,0.59,0.64,0.92,0.64V26.11
					C49.49,26.11,48.95,26.25,48.54,26.52z"/>
			</g>
		</g>
		<g>
			<g>
				<path class="st1" d="M50.96,35.82l3.22-5.41c0.51-0.85,0.25-2-0.58-2.54l-2.06-1.36c-0.41-0.27-0.96-0.41-1.5-0.41v10.35
					C50.37,36.46,50.71,36.25,50.96,35.82z"/>
			</g>
		</g>
	</g>
	<g>
		<g>
			<g>
				<g>
					<path class="st5" d="M63.87,21.35c0,2.46-1.99,4.46-4.45,4.46c-2.46,0-4.46-2-4.46-4.46c0-2.46,1.99-4.45,4.46-4.45
						C61.88,16.89,63.87,18.89,63.87,21.35z"/>
				</g>
			</g>
		</g>
		<g>
			<g>
				<path class="st5" d="M45.12,21.35c0,2.46-2,4.46-4.45,4.46c-2.46,0-4.46-2-4.46-4.46c0-2.46,1.99-4.45,4.46-4.45
					C43.12,16.89,45.12,18.89,45.12,21.35z"/>
			</g>
		</g>
		<g>
			<g>
				<path class="st6" d="M43.37,21.35c0,1.5-1.21,2.71-2.71,2.71c-1.5,0-2.71-1.21-2.71-2.71c0-1.5,1.22-2.71,2.71-2.71
					C42.16,18.64,43.37,19.85,43.37,21.35z"/>
			</g>
		</g>
		<g>
			<g>
				<path class="st6" d="M62.13,21.35c0,1.5-1.21,2.71-2.71,2.71c-1.5,0-2.71-1.21-2.71-2.71c0-1.5,1.21-2.71,2.71-2.71
					C60.92,18.64,62.13,19.85,62.13,21.35z"/>
			</g>
		</g>
		<g>
			<g>
				<path class="st7" d="M42.39,20.24c0,0.61-0.5,1.11-1.11,1.11c-0.61,0-1.11-0.5-1.11-1.11c0-0.61,0.5-1.11,1.11-1.11
					C41.9,19.13,42.39,19.63,42.39,20.24z"/>
			</g>
		</g>
		<g>
			<g>
				<path class="st7" d="M61.16,20.24c0,0.61-0.5,1.11-1.11,1.11c-0.61,0-1.11-0.5-1.11-1.11c0-0.61,0.5-1.11,1.11-1.11
					C60.66,19.13,61.16,19.63,61.16,20.24z"/>
			</g>
		</g>
	</g>
	<g>
		<g>
			<g>
				<path class="st6" d="M46.05,91.9c0-4.33-3.51-7.84-7.84-7.84c-4.33,0-7.84,3.51-7.84,7.84H46.05z"/>
			</g>
		</g>
		<g>
			<g>
				<path class="st8" d="M69.71,91.9c0-4.33-3.51-7.84-7.84-7.84c-4.33,0-7.84,3.51-7.84,7.84H69.71z"/>
			</g>
		</g>
	</g>
</g>
</svg>
