<?xml version="1.0" encoding="utf-8"?>
<!-- Generator: Adobe Illustrator 25.2.3, SVG Export Plug-In . SVG Version: 6.00 Build 0)  -->
<svg version="1.1" id="Ebene_1" xmlns="http://www.w3.org/2000/svg" xmlns:xlink="http://www.w3.org/1999/xlink" x="0px" y="0px"
	 viewBox="0 0 100 100" style="enable-background:new 0 0 100 100;" xml:space="preserve">
<style type="text/css">
	.st0{fill:#79C8D4;}
	.st1{fill:#9A5DA8;}
	.st2{fill:#B182BC;}
	.st3{fill:#DEC1E5;}
	.st4{fill:#3C3C3B;}
	.st5{fill:#F9F4F0;}
</style>
<g>
	<g>
		<g>
			<g>
				<path class="st0" d="M48.32,35.63c0,2.81-4.7,2.81-4.7,5.61c0,2.81,4.7,2.81,4.7,5.61c0,2.81-4.7,2.81-4.7,5.61
					c0,2.81,4.7,2.81,4.7,5.61c0,2.81-4.7,2.81-4.7,5.61c0,2.81,4.7,2.81,4.7,5.61c0,2.81-4.7,2.81-4.7,5.61
					c0,2.81,4.7,2.81,4.7,5.61c0,2.81-4.7,2.81-4.7,5.62s4.7,2.81,4.7,5.62"/>
			</g>
			<g>
				<path class="st1" d="M48.32,94.11c-1.29,0-2.33-1.03-2.35-2.31c-0.18-0.22-0.82-0.6-1.2-0.83c-1.31-0.78-3.5-2.09-3.5-4.83
					s2.19-4.05,3.5-4.83c0.36-0.22,0.95-0.57,1.17-0.79c-0.22-0.22-0.8-0.57-1.17-0.79c-1.31-0.78-3.5-2.09-3.5-4.83
					c0-2.74,2.19-4.04,3.5-4.83c0.36-0.22,0.95-0.57,1.17-0.79c-0.22-0.22-0.8-0.57-1.17-0.79c-1.31-0.78-3.5-2.09-3.5-4.83
					c0-2.74,2.19-4.04,3.5-4.82c0.36-0.22,0.95-0.56,1.16-0.79c-0.22-0.22-0.8-0.57-1.16-0.78c-1.31-0.78-3.5-2.09-3.5-4.82
					c0-2.74,2.19-4.05,3.5-4.83c0.36-0.22,0.95-0.56,1.17-0.79c-0.22-0.22-0.8-0.57-1.16-0.79c-1.31-0.78-3.5-2.09-3.5-4.83
					s2.19-4.04,3.5-4.83c0.39-0.23,1.03-0.61,1.2-0.83c0.03-1.28,1.07-2.31,2.35-2.31c1.3,0,2.35,1.05,2.35,2.35
					c0,2.74-2.19,4.04-3.5,4.82c-0.37,0.22-0.95,0.57-1.17,0.79c0.22,0.22,0.8,0.57,1.17,0.79c1.31,0.78,3.5,2.09,3.5,4.83
					c0,2.74-2.19,4.04-3.5,4.82c-0.36,0.22-0.95,0.56-1.17,0.79c0.22,0.22,0.8,0.57,1.17,0.79c1.31,0.78,3.5,2.09,3.5,4.82
					c0,2.74-2.19,4.04-3.5,4.82c-0.36,0.22-0.95,0.57-1.17,0.79c0.22,0.22,0.8,0.57,1.17,0.79c1.31,0.78,3.5,2.09,3.5,4.82
					c0,2.74-2.19,4.05-3.5,4.83c-0.37,0.22-0.95,0.57-1.17,0.79c0.22,0.22,0.8,0.57,1.17,0.79c1.31,0.78,3.5,2.09,3.5,4.83
					c0,2.74-2.19,4.04-3.5,4.83c-0.37,0.22-0.95,0.57-1.17,0.79c0.22,0.22,0.8,0.57,1.17,0.79c1.31,0.78,3.5,2.09,3.5,4.83
					C50.67,93.05,49.62,94.11,48.32,94.11z"/>
			</g>
		</g>
		<g>
			<path class="st1" d="M29.15,91.57c-0.34,0-0.69-0.05-1.05-0.14c-0.47-0.12-0.75-0.61-0.63-1.08c0.12-0.47,0.6-0.75,1.08-0.63
				c0.72,0.19,1.38,0.04,2.05-0.46c2.32-1.74,5.55-8.17,7.8-28.94c1.36-12.58,1.67-24.23,1.69-24.72c0.01-0.48,0.4-0.86,0.88-0.86
				c0.01,0,0.02,0,0.02,0c0.49,0.01,0.87,0.42,0.86,0.9c-0.05,1.97-1.34,48.38-10.19,55.02C30.87,91.27,30.03,91.57,29.15,91.57z"/>
		</g>
		<g>
			<path class="st1" d="M20.82,89.22c-0.36,0-0.72-0.05-1.09-0.14c-0.47-0.12-0.75-0.61-0.63-1.08c0.12-0.47,0.6-0.75,1.08-0.63
				c0.76,0.2,1.52,0.04,2.31-0.5c2.56-1.72,6.53-7.94,10.92-27.83c2.65-12.03,4.17-23.43,4.19-23.54c0.06-0.48,0.51-0.83,0.99-0.76
				c0.48,0.06,0.82,0.51,0.76,0.99c-0.25,1.88-6.2,46.11-15.87,52.6C22.6,88.93,21.71,89.22,20.82,89.22z"/>
		</g>
		<g>
			<path class="st1" d="M16.12,83.44c-0.39,0-0.78-0.05-1.17-0.15c-0.47-0.12-0.75-0.61-0.63-1.08c0.12-0.47,0.6-0.76,1.08-0.63
				c0.85,0.22,1.72,0.05,2.64-0.53c3.74-2.38,7.78-11.06,11.7-25.12c2.99-10.74,4.84-20.86,4.86-20.96c0.09-0.48,0.54-0.8,1.02-0.71
				c0.48,0.09,0.8,0.55,0.71,1.02c-0.3,1.67-7.54,41.01-17.34,47.25C18.03,83.14,17.07,83.44,16.12,83.44z"/>
		</g>
		<g>
			<g>
				<path class="st2" d="M53.68,94.11c1.28,0,2.33-1.03,2.35-2.31c0.18-0.22,0.82-0.6,1.2-0.83c1.31-0.78,3.5-2.09,3.5-4.83
					s-2.19-4.05-3.5-4.83c-0.37-0.22-0.95-0.57-1.17-0.79c0.22-0.22,0.8-0.57,1.17-0.79c1.31-0.78,3.5-2.09,3.5-4.83
					c0-2.74-2.19-4.04-3.5-4.83c-0.37-0.22-0.95-0.57-1.17-0.79c0.22-0.22,0.8-0.57,1.17-0.79c1.31-0.78,3.5-2.09,3.5-4.83
					c0-2.74-2.19-4.04-3.5-4.82c-0.36-0.22-0.95-0.56-1.16-0.79c0.22-0.22,0.8-0.57,1.16-0.78c1.31-0.78,3.5-2.09,3.5-4.82
					c0-2.74-2.19-4.05-3.5-4.83c-0.36-0.22-0.95-0.56-1.17-0.79c0.22-0.22,0.8-0.57,1.17-0.79c1.31-0.78,3.5-2.09,3.5-4.83
					s-2.19-4.04-3.5-4.83c-0.39-0.23-1.03-0.61-1.2-0.83c-0.03-1.28-1.07-2.31-2.35-2.31c-1.3,0-2.35,1.05-2.35,2.35
					c0,2.74,2.19,4.04,3.5,4.82c0.37,0.22,0.95,0.57,1.17,0.79c-0.22,0.22-0.8,0.57-1.17,0.79c-1.31,0.78-3.5,2.09-3.5,4.83
					c0,2.74,2.19,4.04,3.5,4.82c0.36,0.22,0.95,0.56,1.17,0.79c-0.22,0.22-0.8,0.57-1.16,0.79c-1.31,0.78-3.5,2.09-3.5,4.82
					c0,2.74,2.19,4.04,3.5,4.82c0.36,0.22,0.95,0.57,1.16,0.79c-0.22,0.22-0.8,0.57-1.17,0.79c-1.31,0.78-3.5,2.09-3.5,4.82
					c0,2.74,2.19,4.05,3.5,4.83c0.37,0.22,0.95,0.57,1.17,0.79c-0.22,0.22-0.8,0.57-1.17,0.79c-1.31,0.78-3.5,2.09-3.5,4.83
					c0,2.74,2.19,4.04,3.5,4.83c0.37,0.22,0.95,0.57,1.17,0.79c-0.22,0.22-0.8,0.57-1.17,0.79c-1.31,0.78-3.5,2.09-3.5,4.83
					C51.33,93.05,52.38,94.11,53.68,94.11z"/>
			</g>
		</g>
		<g>
			<path class="st2" d="M72.85,91.57c0.34,0,0.69-0.05,1.05-0.14c0.47-0.12,0.75-0.61,0.63-1.08c-0.12-0.47-0.6-0.75-1.08-0.63
				c-0.72,0.19-1.38,0.04-2.05-0.46c-2.32-1.74-5.55-8.17-7.8-28.94c-1.36-12.58-1.67-24.23-1.69-24.72
				c-0.01-0.48-0.4-0.86-0.88-0.86c-0.01,0-0.02,0-0.02,0c-0.49,0.01-0.87,0.42-0.86,0.9c0.05,1.97,1.34,48.38,10.19,55.02
				C71.13,91.27,71.97,91.57,72.85,91.57z"/>
		</g>
		<g>
			<path class="st2" d="M81.18,89.22c0.36,0,0.72-0.05,1.09-0.14c0.47-0.12,0.75-0.61,0.63-1.08c-0.12-0.47-0.6-0.75-1.08-0.63
				c-0.76,0.2-1.52,0.04-2.31-0.5c-2.56-1.72-6.53-7.94-10.92-27.83c-2.65-12.03-4.17-23.43-4.19-23.54
				c-0.06-0.48-0.5-0.83-0.99-0.76c-0.48,0.06-0.82,0.51-0.76,0.99c0.25,1.88,6.2,46.11,15.87,52.6
				C79.4,88.93,80.29,89.22,81.18,89.22z"/>
		</g>
		<g>
			<path class="st2" d="M85.88,83.44c0.39,0,0.78-0.05,1.17-0.15c0.47-0.12,0.75-0.61,0.63-1.08c-0.12-0.47-0.6-0.76-1.08-0.63
				c-0.86,0.22-1.72,0.05-2.64-0.53c-3.74-2.38-7.78-11.06-11.7-25.12c-2.99-10.74-4.84-20.86-4.86-20.96
				c-0.09-0.48-0.54-0.8-1.02-0.71c-0.48,0.09-0.8,0.55-0.71,1.02c0.3,1.67,7.54,41.01,17.34,47.25
				C83.97,83.14,84.93,83.44,85.88,83.44z"/>
		</g>
	</g>
	<g>
		<g>
			<path class="st1" d="M23.21,33.41c0,15.35,12.44,4.86,27.79,4.86V5.62C35.65,5.62,23.21,18.06,23.21,33.41z"/>
			<path class="st2" d="M78.79,33.41C78.79,18.06,66.35,5.62,51,5.62v32.64C66.35,38.27,78.79,48.76,78.79,33.41z"/>
		</g>
		<path class="st3" d="M45.93,9.88c0-0.41-1.05-0.73-2.35-0.73c-1.3,0-2.35,0.33-2.35,0.73c0,0.41,1.05,0.74,2.35,0.74
			C44.87,10.61,45.93,10.29,45.93,9.88z"/>
		<path class="st3" d="M53.63,13.88c0-0.41-1.05-0.73-2.35-0.73c-1.3,0-2.35,0.33-2.35,0.73c0,0.41,1.05,0.74,2.35,0.74
			C52.58,14.62,53.63,14.29,53.63,13.88z"/>
		<path class="st3" d="M50.85,7.42c0,0.41-0.58,0.73-1.29,0.73c-0.71,0-1.28-0.33-1.28-0.73c0-0.41,0.58-0.74,1.28-0.74
			C50.27,6.69,50.85,7.02,50.85,7.42z"/>
		<path class="st3" d="M37.55,11.13c0,0.57,0.53,1.03,1.17,1.03c0.65,0,1.18-0.46,1.18-1.03c0-0.57-0.53-1.03-1.18-1.03
			C38.07,10.1,37.55,10.56,37.55,11.13z"/>
		<path class="st3" d="M53.35,10.61c0,0.28-1.05,0.51-2.35,0.51c-1.3,0-2.35-0.23-2.35-0.51c0-0.28,1.05-0.51,2.35-0.51
			C52.3,10.1,53.35,10.33,53.35,10.61z"/>
		<path class="st3" d="M57.06,8.16c0,0.61-0.61,1.1-1.35,1.1c-0.75,0-1.35-0.49-1.35-1.1c0-0.61,0.61-1.1,1.35-1.1
			C56.46,7.05,57.06,7.55,57.06,8.16z"/>
		<path class="st3" d="M58.99,12.82c0,0.53-0.86,0.96-1.93,0.96c-1.06,0-1.93-0.43-1.93-0.96c0-0.53,0.86-0.95,1.93-0.95
			C58.13,11.86,58.99,12.29,58.99,12.82z"/>
		<path class="st3" d="M44.53,12.23c0,0.57,0.92,1.03,2.06,1.03s2.06-0.46,2.06-1.03c0-0.57-0.92-1.03-2.06-1.03
			S44.53,11.66,44.53,12.23z"/>
		<path class="st3" d="M40.97,13.41c0,0.26,0.38,0.48,0.84,0.48c0.47,0,0.84-0.21,0.84-0.48c0-0.26-0.38-0.48-0.84-0.48
			C41.35,12.93,40.97,13.14,40.97,13.41z"/>
		<path class="st3" d="M67.72,12.82c0,0.33-0.71,0.59-1.59,0.59c-0.88,0-1.59-0.26-1.59-0.59c0-0.32,0.71-0.59,1.59-0.59
			C67.01,12.23,67.72,12.49,67.72,12.82z"/>
		<path class="st3" d="M40.31,14.62c0,0.33-0.71,0.59-1.59,0.59c-0.88,0-1.59-0.26-1.59-0.59s0.71-0.59,1.59-0.59
			C39.6,14.03,40.31,14.29,40.31,14.62z"/>
		<path class="st3" d="M55.22,16.35c0,0.33-0.71,0.59-1.59,0.59c-0.88,0-1.59-0.26-1.59-0.59s0.71-0.59,1.59-0.59
			C54.51,15.76,55.22,16.02,55.22,16.35z"/>
		<path class="st3" d="M61.58,9.26c0,0.28-0.41,0.51-0.91,0.51s-0.91-0.23-0.91-0.51s0.41-0.51,0.91-0.51S61.58,8.97,61.58,9.26z"/>
		<path class="st3" d="M44.97,16.35c0,0.33,0.43,0.59,0.96,0.59c0.53,0,0.96-0.26,0.96-0.59s-0.43-0.59-0.96-0.59
			C45.4,15.76,44.97,16.02,44.97,16.35z"/>
		<path class="st3" d="M58.03,15.21c0,0.33,0.43,0.59,0.96,0.59c0.53,0,0.96-0.26,0.96-0.59c0-0.32-0.43-0.59-0.96-0.59
			C58.46,14.62,58.03,14.88,58.03,15.21z"/>
		<path class="st3" d="M62.17,14.62c0,0.33,0.43,0.59,0.96,0.59c0.53,0,0.95-0.26,0.95-0.59s-0.43-0.59-0.95-0.59
			C62.59,14.03,62.17,14.29,62.17,14.62z"/>
		<path class="st3" d="M63.12,11.86c0,0.61-0.69,1.1-1.54,1.1c-0.85,0-1.54-0.49-1.54-1.1c0-0.61,0.69-1.1,1.54-1.1
			C62.43,10.76,63.12,11.26,63.12,11.86z"/>
	</g>
	<g>
		<circle class="st4" cx="43.05" cy="32.05" r="3.31"/>
		<path class="st5" d="M45.94,30.89c0,0.64-0.52,1.16-1.16,1.16c-0.64,0-1.16-0.52-1.16-1.16c0-0.64,0.52-1.16,1.16-1.16
			C45.42,29.72,45.94,30.24,45.94,30.89z"/>
		<path class="st4" d="M62.26,32.05c0,1.83-1.48,3.31-3.31,3.31c-1.83,0-3.31-1.48-3.31-3.31c0-1.83,1.48-3.31,3.31-3.31
			C60.78,28.74,62.26,30.22,62.26,32.05z"/>
		<path class="st5" d="M61.85,30.89c0,0.64-0.52,1.16-1.16,1.16c-0.64,0-1.16-0.52-1.16-1.16c0-0.64,0.52-1.16,1.16-1.16
			C61.33,29.72,61.85,30.24,61.85,30.89z"/>
	</g>
</g>
</svg>
