<?xml version="1.0" encoding="utf-8"?>
<!-- Generator: Adobe Illustrator 25.2.3, SVG Export Plug-In . SVG Version: 6.00 Build 0)  -->
<svg version="1.1" id="Ebene_1" xmlns="http://www.w3.org/2000/svg" xmlns:xlink="http://www.w3.org/1999/xlink" x="0px" y="0px"
	 viewBox="0 0 100 100" style="enable-background:new 0 0 100 100;" xml:space="preserve">
<style type="text/css">
	.st0{fill:none;stroke:#D5D2B1;stroke-linecap:round;stroke-miterlimit:10;}
	.st1{fill:#473E33;}
	.st2{fill:#5B4A38;}
	.st3{fill:#C4BAAB;}
	.st4{fill:#DDDBD9;}
	.st5{fill:#3C3C3B;}
	.st6{fill:#FFFFFF;}
	.st7{fill:#9C9B9B;}
	.st8{fill:#723E2B;}
</style>
<path class="st0" d="M53.67,25"/>
<g>
	<g>
		<path class="st1" d="M51.21,6c-10.13,0-18.44,7.77-19.3,17.68l-0.01-0.01c0,0,0,0.06,0,0.15c-0.04,0.52-0.08,1.04-0.08,1.57
			c0,0.16-1.24,8.32-3.41,14.25c-3.85,10.5-6.49,21.09-5.77,29.24c0.52,5.84,2.46,10.68,5.47,14.48C15.27,84.36,4.52,93.3,4.52,93.3
			h46.69c0,0,0,0,0,0L51.21,6C51.21,6,51.21,6,51.21,6z"/>
		<path class="st2" d="M79.78,68.84c0.79-8.97-2.17-20.13-5.75-29.2c-2.11-5.34-3.48-15.96-3.48-15.96l-0.03,0.04
			C69.66,13.79,61.35,6,51.21,6v87.3c0,0,0,0,0,0H97.9c0,0-10.84-9.02-23.76-9.96C77.27,79.48,79.27,74.6,79.78,68.84z"/>
	</g>
	<g>
		<path class="st3" d="M51.15,22.1v1.24c0,0-0.01,0-0.01,0c0,0,0.01,0,0.01,0v15.54c-0.02,0-0.04,0-0.05,0
			c-5.67,0-9.25-1.06-11.69-2.83c-0.03-0.4-0.05-0.81-0.05-1.22C39.35,27.82,44.63,22.14,51.15,22.1z"/>
		<path class="st4" d="M51.15,38.88V23.34c0.01,0,0.03,0,0.04,0c-0.01,0-0.03,0-0.04,0V22.1c0.02,0,0.04,0,0.06,0
			c6.55,0,11.86,5.7,11.86,12.73c0,0.35-0.02,0.7-0.04,1.04c0,0-0.01,0.01-0.01,0.01C60.59,37.74,56.51,38.87,51.15,38.88z"/>
	</g>
	<g>
		<g>
			<g>
				<g>
					<path class="st3" d="M65.27,17.57c0,2.5-2.03,4.53-4.53,4.53c-2.5,0-4.53-2.03-4.53-4.53c0-2.5,2.03-4.53,4.53-4.53
						C63.24,13.04,65.27,15.07,65.27,17.57z"/>
				</g>
			</g>
		</g>
		<g>
			<g>
				<path class="st3" d="M46.21,17.57c0,2.5-2.03,4.53-4.53,4.53c-2.5,0-4.53-2.03-4.53-4.53c0-2.5,2.03-4.53,4.53-4.53
					C44.18,13.04,46.21,15.07,46.21,17.57z"/>
			</g>
		</g>
		<g>
			<g>
				<path class="st5" d="M44.44,17.57c0,1.52-1.23,2.76-2.75,2.76c-1.52,0-2.76-1.23-2.76-2.76c0-1.52,1.23-2.75,2.76-2.75
					C43.2,14.82,44.44,16.05,44.44,17.57z"/>
			</g>
		</g>
		<g>
			<g>
				<path class="st5" d="M63.5,17.57c0,1.52-1.23,2.76-2.75,2.76c-1.52,0-2.76-1.23-2.76-2.76c0-1.52,1.23-2.75,2.76-2.75
					C62.26,14.82,63.5,16.05,63.5,17.57z"/>
			</g>
		</g>
		<g>
			<g>
				<path class="st6" d="M43.44,16.44c0,0.62-0.5,1.13-1.13,1.13c-0.62,0-1.13-0.5-1.13-1.13c0-0.62,0.5-1.13,1.13-1.13
					C42.93,15.32,43.44,15.82,43.44,16.44z"/>
			</g>
		</g>
		<g>
			<g>
				<path class="st6" d="M62.51,16.44c0,0.62-0.51,1.13-1.13,1.13c-0.62,0-1.13-0.5-1.13-1.13c0-0.62,0.5-1.13,1.13-1.13
					C62.01,15.32,62.51,15.82,62.51,16.44z"/>
			</g>
		</g>
	</g>
	<path class="st0" d="M34.28,29.07"/>
	<g>
		<g>
			<path class="st7" d="M46.55,27.41c-0.06,0-0.12-0.02-0.17-0.06c-0.09-0.07-8.81-6.45-16.87-0.82c-0.13,0.09-0.31,0.06-0.4-0.07
				c-0.09-0.13-0.06-0.31,0.07-0.4c8.4-5.87,17.45,0.76,17.55,0.83c0.13,0.1,0.15,0.28,0.06,0.41
				C46.72,27.37,46.63,27.41,46.55,27.41z"/>
		</g>
		<g>
			<path class="st7" d="M29.36,30.39c-0.08,0-0.16-0.03-0.22-0.1c-0.11-0.12-0.1-0.3,0.02-0.41c7.67-6.8,17.43-1.26,17.52-1.2
				c0.14,0.08,0.19,0.26,0.11,0.4c-0.08,0.14-0.26,0.19-0.4,0.11c-0.09-0.05-9.5-5.39-16.85,1.13
				C29.5,30.36,29.43,30.39,29.36,30.39z"/>
		</g>
		<g>
			<path class="st7" d="M29.62,34.42c-0.07,0-0.14-0.02-0.19-0.07c-0.12-0.11-0.13-0.29-0.02-0.41c6.81-7.66,17.15-3.32,17.26-3.27
				c0.15,0.06,0.21,0.23,0.15,0.38c-0.06,0.15-0.24,0.22-0.38,0.15c-0.1-0.04-10.07-4.22-16.59,3.12
				C29.78,34.39,29.7,34.42,29.62,34.42z"/>
		</g>
		<g>
			<path class="st7" d="M30.61,39.77c-0.05,0-0.1-0.01-0.14-0.04c-0.14-0.08-0.19-0.26-0.11-0.4c5.13-8.88,16.14-6.7,16.25-6.67
				c0.16,0.03,0.26,0.19,0.22,0.34c-0.03,0.16-0.19,0.26-0.34,0.22c-0.11-0.02-10.72-2.11-15.63,6.39
				C30.8,39.72,30.71,39.77,30.61,39.77z"/>
		</g>
		<g>
			<path class="st7" d="M55.87,27.41c-0.09,0-0.17-0.04-0.23-0.12c-0.1-0.13-0.07-0.31,0.06-0.41c0.09-0.07,9.14-6.7,17.55-0.83
				c0.13,0.09,0.16,0.27,0.07,0.4c-0.09,0.13-0.27,0.16-0.4,0.07c-8.05-5.63-16.78,0.75-16.87,0.82
				C55.99,27.39,55.93,27.41,55.87,27.41z"/>
		</g>
		<g>
			<path class="st7" d="M73.06,30.39c-0.07,0-0.14-0.02-0.19-0.07c-7.35-6.52-16.75-1.19-16.85-1.13c-0.14,0.08-0.32,0.03-0.4-0.11
				c-0.08-0.14-0.03-0.32,0.11-0.4c0.1-0.06,9.86-5.6,17.52,1.2c0.12,0.11,0.13,0.29,0.02,0.41C73.22,30.35,73.14,30.39,73.06,30.39
				z"/>
		</g>
		<g>
			<path class="st7" d="M72.8,34.42c-0.08,0-0.16-0.03-0.22-0.1c-6.53-7.35-16.5-3.17-16.59-3.12c-0.15,0.06-0.32,0-0.38-0.15
				c-0.06-0.15,0-0.32,0.15-0.38c0.1-0.04,10.45-4.39,17.26,3.27c0.11,0.12,0.1,0.3-0.02,0.41C72.94,34.4,72.87,34.42,72.8,34.42z"
				/>
		</g>
		<g>
			<path class="st7" d="M71.81,39.77c-0.1,0-0.2-0.05-0.25-0.14c-4.92-8.51-15.52-6.42-15.63-6.39c-0.16,0.04-0.31-0.07-0.34-0.22
				c-0.03-0.16,0.07-0.31,0.22-0.34c0.11-0.02,11.12-2.2,16.25,6.67c0.08,0.14,0.03,0.32-0.11,0.4
				C71.91,39.76,71.86,39.77,71.81,39.77z"/>
		</g>
	</g>
	<g>
		<g>
			<path class="st8" d="M46.88,23l0.58,1.8c0,0,1.23-2.09,1.81-0.9c0.58,1.19-0.11,5.54,1.94,6.59V22.1
				C51.2,22.1,48.67,22.04,46.88,23z"/>
			<path class="st8" d="M55.52,23l-0.58,1.8c0,0-1.23-2.09-1.81-0.9c-0.58,1.19,0.11,5.54-1.94,6.59V22.1
				C51.2,22.1,53.73,22.04,55.52,23z"/>
		</g>
		<path class="st8" d="M60.01,35.24c-0.11-0.3-0.45-0.45-0.75-0.33c-0.03,0.01-2.93,1.1-7.49,1.18l0-7.02
			c0-0.32-0.26-0.58-0.58-0.58c-0.32,0-0.58,0.26-0.58,0.58l0,7.02c-5.11-0.08-6.81-1.16-6.86-1.19c-0.26-0.18-0.62-0.12-0.8,0.14
			c-0.19,0.26-0.13,0.62,0.13,0.81c0.08,0.06,2.04,1.41,8.11,1.41h0.58v-0.01c4.76-0.09,7.77-1.21,7.9-1.26
			C59.98,35.87,60.13,35.54,60.01,35.24z"/>
	</g>
</g>
</svg>
