<?xml version="1.0" encoding="utf-8"?>
<!-- Generator: Adobe Illustrator 25.2.3, SVG Export Plug-In . SVG Version: 6.00 Build 0)  -->
<svg version="1.1" id="Ebene_1" xmlns="http://www.w3.org/2000/svg" xmlns:xlink="http://www.w3.org/1999/xlink" x="0px" y="0px"
	 viewBox="0 0 100 100" style="enable-background:new 0 0 100 100;" xml:space="preserve">
<style type="text/css">
	.st0{fill:#473E33;}
	.st1{fill:#948173;}
	.st2{fill:#4B190D;}
	.st3{fill:#F9F4F0;}
	.st4{fill:#D5D2B1;}
	.st5{fill:#DDDCD3;}
	.st6{fill:#7F614B;}
	.st7{fill:#94997E;}
</style>
<g>
	<path class="st0" d="M50.25,44.82c-2.44-0.62-19.7-4.04-37.7,16.98c0,0,1.37,3.47,11.23,6.48c0,0,10.81,4.39,26.46,1.61
		c15.65,2.78,26.46-1.61,26.46-1.61c9.86-3.01,11.23-6.48,11.23-6.48C69.94,40.77,52.69,44.2,50.25,44.82z"/>
	<path class="st1" d="M62.27,57.63c0,3.84-3.11,6.95-6.95,6.95H45.17c-3.84,0-6.95-3.11-6.95-6.95v-5.79c0-3.84,3.11-6.95,6.95-6.95
		h10.16c3.84,0,6.95,3.11,6.95,6.95V57.63z"/>
	<path class="st2" d="M59.95,57.72l-1.7-1.77l-0.33,0.41c-1.3,1.64-5.18,5.9-7.5,5.9c-0.06,0-0.11,0.01-0.16,0.03
		c-0.05-0.02-0.11-0.03-0.16-0.03c-2.32,0-6.2-4.26-7.5-5.9l-0.33-0.41l-1.7,1.77c-0.18,0.18-0.17,0.48,0.01,0.65
		c0.18,0.18,0.48,0.17,0.65-0.01l0.97-1.01c1.17,1.4,5.11,5.84,7.89,5.84c0.06,0,0.11-0.01,0.16-0.03c0.05,0.02,0.11,0.03,0.16,0.03
		c2.78,0,6.72-4.44,7.89-5.84l0.97,1.01c0.18,0.19,0.47,0.19,0.65,0.01C60.12,58.2,60.12,57.9,59.95,57.72z"/>
	<g>
		<g>
			<path class="st2" d="M43.96,51.55c0,1.31-1.06,2.37-2.37,2.37c-1.31,0-2.37-1.06-2.37-2.37c0-1.31,1.06-2.37,2.37-2.37
				C42.9,49.18,43.96,50.24,43.96,51.55z"/>
			<path class="st3" d="M43.4,50.91c0,0.5-0.41,0.91-0.91,0.91c-0.5,0-0.91-0.41-0.91-0.91c0-0.5,0.41-0.91,0.91-0.91
				C43,50.01,43.4,50.41,43.4,50.91z"/>
		</g>
		<g>
			<path class="st2" d="M61.28,51.55c0,1.31-1.06,2.37-2.37,2.37c-1.31,0-2.37-1.06-2.37-2.37c0-1.31,1.06-2.37,2.37-2.37
				C60.22,49.18,61.28,50.24,61.28,51.55z"/>
			<path class="st3" d="M60.73,50.91c0,0.5-0.41,0.91-0.91,0.91c-0.5,0-0.91-0.41-0.91-0.91c0-0.5,0.41-0.91,0.91-0.91
				C60.32,50.01,60.73,50.41,60.73,50.91z"/>
		</g>
	</g>
	<g>
		<path class="st2" d="M49.47,52.53c0,0.47-0.38,0.85-0.85,0.85c-0.47,0-0.85-0.38-0.85-0.85c0-0.47,0.38-0.85,0.85-0.85
			C49.09,51.68,49.47,52.06,49.47,52.53z"/>
		<path class="st2" d="M52.72,52.53c0,0.47-0.38,0.85-0.85,0.85s-0.85-0.38-0.85-0.85c0-0.47,0.38-0.85,0.85-0.85
			S52.72,52.06,52.72,52.53z"/>
	</g>
	<g>
		<path class="st4" d="M50.18,64.67v10.56c0,0-24.51,0.46-26.69-6.95c0,0,5.25,1.85,12.35-1.16C42.95,64.12,50.18,64.67,50.18,64.67
			z"/>
		<path class="st5" d="M50.18,64.67v10.56c0,0,24.65,0.46,26.83-6.95c0,0-5.25,1.85-12.35-1.16C57.55,64.12,50.18,64.67,50.18,64.67
			z"/>
	</g>
	<g>
		<path class="st6" d="M50.25,39.11l-0.07-14.57c0,0-10.78-0.71-17.28,14.57H50.25z"/>
		<path class="st6" d="M40.91,28.23c0,0-4.93-6.49-12.96,0.69c-8.03,7.18-9.07,15.98-9.07,15.98l22.03-3.7V28.23z"/>
		<path class="st4" d="M50.25,44.9c0,0-12.42-1.85-22.3,9.84c-9.88,11.69-15.69,7.06-15.69,7.06s4.1-14.13,6.62-16.9
			c0,0,22.03-12.04,31.37-5.79V44.9z"/>
		<path class="st1" d="M50.25,39.11l0.07-14.57c0,0,10.78-0.71,17.28,14.57H50.25z"/>
		<path class="st1" d="M59.59,28.23c0,0,4.93-6.49,12.96,0.69c8.03,7.18,9.07,15.98,9.07,15.98l-22.03-3.7V28.23z"/>
		<path class="st5" d="M50.25,44.9c0,0,12.42-1.85,22.3,9.84c9.88,11.69,15.69,7.06,15.69,7.06s-4.1-14.13-6.62-16.9
			c0,0-22.03-12.04-31.37-5.79V44.9z"/>
		<path class="st7" d="M46.3,37.58c0,0-3.22,4.29-2.76,7.7c0,0-4.19,0.81-7.8,2.91c0,0-2.22-2.69,1.09-10.13
			C36.84,38.06,42.41,36.73,46.3,37.58z"/>
		<path class="st7" d="M30.15,39.97c0,0-5.25,5.05-2.51,16.22c0,0-4.09,5.77-9.84,5.58c0,0-0.26-8.63,5.89-19.21
			C23.69,42.55,27.39,40.81,30.15,39.97z"/>
		<path class="st7" d="M54.14,37.58c0,0,3.22,4.29,2.76,7.7c0,0,4.19,0.81,7.8,2.91c0,0,2.22-2.69-1.09-10.13
			C63.61,38.06,58.03,36.73,54.14,37.58z"/>
		<path class="st7" d="M70.29,39.97c0,0,5.25,5.05,2.51,16.22c0,0,4.09,5.77,9.84,5.58c0,0,0.26-8.63-5.89-19.21
			C76.75,42.55,73.05,40.81,70.29,39.97z"/>
	</g>
	<g>
		<g>
			<path class="st1" d="M63.16,63.83c-0.7-1.29-1.02-2.81-0.83-4.38c0.48-4.06,4.16-6.97,8.23-6.49
				c19.88,2.34,25.1,15.61,25.09,22.3l-14.82-0.03c0,0-0.01,0.08,0,0.24c-0.07-1.07-1.01-6.5-12.01-7.79
				C66.32,67.39,64.27,65.89,63.16,63.83z"/>
		</g>
		<g>
			<path class="st6" d="M37.34,63.83c0.7-1.29,1.02-2.81,0.83-4.38c-0.48-4.06-4.16-6.97-8.23-6.49
				C10.07,55.3,4.84,68.57,4.86,75.27l14.82-0.03c0,0,0.01,0.08,0,0.24c0.07-1.07,1.01-6.5,12.01-7.79
				C34.17,67.39,36.23,65.89,37.34,63.83z"/>
		</g>
	</g>
</g>
</svg>
