<?xml version="1.0" encoding="utf-8"?>
<!-- Generator: Adobe Illustrator 25.2.3, SVG Export Plug-In . SVG Version: 6.00 Build 0)  -->
<svg version="1.1" id="Ebene_1" xmlns="http://www.w3.org/2000/svg" xmlns:xlink="http://www.w3.org/1999/xlink" x="0px" y="0px"
	 viewBox="0 0 100 100" style="enable-background:new 0 0 100 100;" xml:space="preserve">
<style type="text/css">
	.st0{fill:#CCCECF;}
	.st1{fill:#F5F0F2;}
	.st2{fill:#6F6F6E;}
	.st3{fill:#868686;}
	.st4{fill:#3C3C3B;}
	.st5{fill:#FFFFFF;}
	.st6{fill:none;stroke:#D5D2B1;stroke-linecap:round;stroke-miterlimit:10;}
	.st7{fill:#9C9B9B;}
</style>
<g>
	<g>
		<path class="st0" d="M48.61,5.51c-10.33,0-18.79,7.92-19.67,18.02l-0.01-0.01c0,0,0,0.06,0,0.15c-0.04,0.53-0.08,1.06-0.08,1.6
			c0,0.17-1.26,8.48-3.47,14.52c-3.92,10.7-6.62,21.5-5.89,29.8c0.53,5.95,2.51,10.89,5.57,14.76C11.98,85.38,1.03,94.49,1.03,94.49
			h47.59c0,0,0,0,0.01,0L48.61,5.51C48.62,5.51,48.61,5.51,48.61,5.51z"/>
		<path class="st1" d="M77.73,69.56c0.8-9.15-2.21-20.52-5.86-29.76c-2.15-5.45-3.55-16.27-3.55-16.27l-0.03,0.05
			C67.42,13.46,58.96,5.52,48.62,5.51v88.97h47.59c0,0-11.05-9.19-24.22-10.15C75.17,80.41,77.22,75.43,77.73,69.56z"/>
	</g>
	<g>
		<path class="st2" d="M48.57,22.45v1.02c0,0-0.01,0-0.01,0c0.01,0,0.01,0,0.01,0v12.79c-0.02,0-0.03,0-0.04,0
			c-4.66,0-7.61-0.88-9.62-2.33c-0.03-0.33-0.04-0.66-0.04-1C38.86,27.16,43.2,22.48,48.57,22.45z"/>
		<path class="st3" d="M48.57,36.25V23.47c0.01,0,0.02,0,0.03,0c-0.01,0-0.02,0-0.03,0v-1.02c0.02,0,0.03,0,0.05,0
			c5.39,0,9.76,4.69,9.76,10.48c0,0.29-0.02,0.57-0.04,0.85c0,0-0.01,0.01-0.01,0.01C56.33,35.32,52.98,36.25,48.57,36.25z"/>
	</g>
	<g>
		<g>
			<g>
				<path class="st4" d="M41.71,17.3c0,1.55-1.26,2.81-2.81,2.81c-1.55,0-2.81-1.26-2.81-2.81c0-1.55,1.26-2.81,2.81-2.81
					C40.46,14.5,41.71,15.75,41.71,17.3z"/>
			</g>
		</g>
		<g>
			<g>
				<path class="st4" d="M61.14,17.3c0,1.55-1.26,2.81-2.81,2.81c-1.55,0-2.81-1.26-2.81-2.81c0-1.55,1.26-2.81,2.81-2.81
					C59.88,14.5,61.14,15.75,61.14,17.3z"/>
			</g>
		</g>
		<g>
			<g>
				<path class="st5" d="M40.7,16.16c0,0.64-0.52,1.15-1.15,1.15c-0.63,0-1.15-0.51-1.15-1.15c0-0.63,0.51-1.15,1.15-1.15
					C40.18,15.01,40.7,15.52,40.7,16.16z"/>
			</g>
		</g>
		<g>
			<g>
				<path class="st5" d="M60.14,16.16c0,0.64-0.52,1.15-1.15,1.15c-0.63,0-1.15-0.51-1.15-1.15c0-0.63,0.51-1.15,1.15-1.15
					C59.62,15.01,60.14,15.52,60.14,16.16z"/>
			</g>
		</g>
	</g>
	<path class="st6" d="M34.63,28.18"/>
	<g>
		<g>
			<path class="st7" d="M44.78,26.87c-0.06,0-0.12-0.02-0.18-0.06c-0.07-0.05-7.22-5.28-13.81-0.67c-0.13,0.09-0.32,0.06-0.41-0.07
				c-0.09-0.13-0.06-0.32,0.07-0.41c6.95-4.85,14.43,0.63,14.5,0.68c0.13,0.1,0.16,0.28,0.06,0.41
				C44.96,26.83,44.87,26.87,44.78,26.87z"/>
		</g>
		<g>
			<path class="st7" d="M30.64,29.32c-0.08,0-0.16-0.03-0.22-0.1c-0.11-0.12-0.1-0.31,0.02-0.42c6.34-5.62,14.4-1.04,14.48-0.99
				c0.14,0.08,0.19,0.26,0.11,0.4c-0.08,0.14-0.26,0.19-0.4,0.11c-0.08-0.04-7.78-4.41-13.8,0.93
				C30.78,29.3,30.71,29.32,30.64,29.32z"/>
		</g>
		<g>
			<path class="st7" d="M30.86,32.65c-0.07,0-0.14-0.02-0.2-0.07c-0.12-0.11-0.13-0.3-0.02-0.42c5.63-6.33,14.18-2.74,14.26-2.7
				c0.15,0.07,0.22,0.24,0.15,0.39c-0.06,0.15-0.24,0.22-0.39,0.15c-0.08-0.04-8.25-3.46-13.59,2.56
				C31.02,32.61,30.94,32.65,30.86,32.65z"/>
		</g>
		<g>
			<path class="st7" d="M31.67,37.04c-0.05,0-0.1-0.01-0.15-0.04c-0.14-0.08-0.19-0.26-0.11-0.4c4.24-7.34,13.34-5.53,13.43-5.51
				c0.16,0.03,0.26,0.19,0.23,0.35c-0.03,0.16-0.19,0.27-0.35,0.23c-0.09-0.02-8.78-1.73-12.8,5.23
				C31.87,36.99,31.77,37.04,31.67,37.04z"/>
		</g>
		<g>
			<path class="st7" d="M52.45,26.87c-0.09,0-0.18-0.04-0.24-0.12c-0.1-0.13-0.07-0.32,0.06-0.41c0.07-0.05,7.56-5.54,14.5-0.68
				c0.13,0.09,0.17,0.28,0.07,0.41c-0.09,0.13-0.28,0.16-0.41,0.07c-6.6-4.61-13.74,0.62-13.81,0.67
				C52.58,26.85,52.51,26.87,52.45,26.87z"/>
		</g>
		<g>
			<path class="st7" d="M66.59,29.32c-0.07,0-0.14-0.02-0.2-0.07c-6.01-5.34-13.72-0.97-13.79-0.93c-0.14,0.08-0.32,0.03-0.4-0.11
				c-0.08-0.14-0.03-0.32,0.11-0.4c0.08-0.05,8.15-4.63,14.48,0.99c0.12,0.11,0.13,0.3,0.02,0.42
				C66.75,29.29,66.67,29.32,66.59,29.32z"/>
		</g>
		<g>
			<path class="st7" d="M66.38,32.65c-0.08,0-0.16-0.03-0.22-0.1c-5.35-6.02-13.5-2.59-13.59-2.56c-0.15,0.07-0.32-0.01-0.39-0.15
				c-0.06-0.15,0-0.32,0.15-0.39c0.09-0.04,8.64-3.63,14.26,2.7c0.11,0.12,0.1,0.31-0.02,0.42C66.52,32.62,66.45,32.65,66.38,32.65z
				"/>
		</g>
		<g>
			<path class="st7" d="M65.57,37.04c-0.1,0-0.2-0.05-0.26-0.15c-4.03-6.97-12.71-5.25-12.8-5.23c-0.16,0.03-0.32-0.07-0.35-0.23
				c-0.03-0.16,0.07-0.32,0.23-0.35c0.09-0.02,9.19-1.82,13.43,5.51c0.08,0.14,0.03,0.32-0.11,0.4
				C65.67,37.03,65.62,37.04,65.57,37.04z"/>
		</g>
	</g>
	<path class="st4" d="M56.05,33.22c-0.12-0.31-0.46-0.46-0.76-0.34c-0.02,0.01-2.36,0.88-6.01,0.96v-5.08
		c0.9-1.33,0.56-4.01,0.96-4.83c0.48-0.98,1.49,0.74,1.49,0.74l0.47-1.48c-1.48-0.79-3.55-0.74-3.55-0.74v5.15c0,0,0,0,0,0v-5.15
		c0,0-2.08-0.05-3.56,0.74l0.47,1.48c0,0,1.01-1.72,1.49-0.74c0.42,0.85,0.04,3.67,1.05,4.96v4.96c-4.06-0.08-5.43-0.94-5.46-0.96
		c-0.27-0.18-0.63-0.12-0.82,0.14c-0.19,0.26-0.13,0.63,0.14,0.82c0.17,0.12,1.79,1.18,6.74,1.18h0.59v-0.01
		c3.87-0.09,6.32-1,6.43-1.04C56.01,33.86,56.17,33.52,56.05,33.22z"/>
</g>
</svg>
