<?xml version="1.0" encoding="utf-8"?>
<!-- Generator: Adobe Illustrator 25.2.3, SVG Export Plug-In . SVG Version: 6.00 Build 0)  -->
<svg version="1.1" id="Ebene_1" xmlns="http://www.w3.org/2000/svg" xmlns:xlink="http://www.w3.org/1999/xlink" x="0px" y="0px"
	 viewBox="0 0 100 100" style="enable-background:new 0 0 100 100;" xml:space="preserve">
<style type="text/css">
	.st0{fill:#7C6D60;}
	.st1{fill:#948173;}
	.st2{fill:#3C3C3B;}
	.st3{fill:#FFFFFF;}
	.st4{fill:#473E33;}
	.st5{fill:#D5D2B1;}
	.st6{fill:#C4BAAB;}
	.st7{fill:#DDDBD9;}
	.st8{fill:#723E2B;}
</style>
<g>
	<g>
		<path class="st0" d="M33.05,22.02c-0.73,4.21-3.67,10.01-5.87,16c-3.89,10.62-6.57,23.09-5.84,31.33
			C22.77,85.4,37.17,92.3,52.58,92.3V4C42.34,4,34.96,11.08,33.05,22.02z"/>
		<path class="st1" d="M83.83,69.31c0.79-9.08-2.19-22.12-5.82-31.29c-2.14-5.41-5-11.91-5.9-16.1C69.99,12.07,62.85,4,52.58,4v88.3
			C68.01,92.3,82.47,84.82,83.83,69.31z"/>
	</g>
	<g>
		<g>
			<g>
				<path class="st2" d="M45.74,15.7c0,1.54-1.25,2.79-2.79,2.79c-1.54,0-2.79-1.25-2.79-2.79c0-1.54,1.25-2.79,2.79-2.79
					C44.49,12.92,45.74,14.16,45.74,15.7z"/>
			</g>
		</g>
		<g>
			<g>
				<path class="st2" d="M65.02,15.7c0,1.54-1.25,2.79-2.79,2.79c-1.54,0-2.79-1.25-2.79-2.79c0-1.54,1.25-2.79,2.79-2.79
					C63.77,12.92,65.02,14.16,65.02,15.7z"/>
			</g>
		</g>
		<g>
			<g>
				<path class="st3" d="M44.73,14.56c0,0.63-0.51,1.14-1.14,1.14c-0.63,0-1.14-0.51-1.14-1.14c0-0.63,0.51-1.14,1.14-1.14
					C44.22,13.42,44.73,13.93,44.73,14.56z"/>
			</g>
		</g>
		<g>
			<g>
				<path class="st3" d="M64.02,14.56c0,0.63-0.51,1.14-1.14,1.14c-0.63,0-1.14-0.51-1.14-1.14c0-0.63,0.51-1.14,1.14-1.14
					C63.51,13.42,64.02,13.93,64.02,14.56z"/>
			</g>
		</g>
	</g>
	<g>
		<path class="st4" d="M9.46,92.3c0,0-0.35-19.72,43.12,0H9.46z"/>
		<path class="st4" d="M95.72,92.3c0,0-4.78-19.72-43.12,0H95.72z"/>
	</g>
	<g>
		<path class="st5" d="M44.73,33.07c0,0-0.02,0.14-0.06,0.41c-0.04,0.26-0.09,0.65-0.15,1.14c-0.13,1-0.29,2.43-0.46,4.16
			c-0.16,1.73-0.32,3.75-0.43,5.92c-0.07,1.08-0.09,2.21-0.14,3.35c-0.02,1.14-0.04,2.3-0.05,3.46c0.02,1.16,0.01,2.32,0.06,3.46
			c0.05,1.14,0.07,2.27,0.16,3.35c0.09,1.08,0.13,2.14,0.26,3.12c0.12,0.99,0.19,1.93,0.33,2.79c0.13,0.86,0.26,1.65,0.36,2.35
			c0.11,0.7,0.26,1.3,0.36,1.8c0.21,1,0.33,1.57,0.33,1.57l0,0.02c0.04,0.19-0.08,0.38-0.27,0.42c-0.18,0.04-0.36-0.07-0.41-0.24
			c0,0-0.17-0.56-0.47-1.55c-0.14-0.5-0.35-1.09-0.53-1.79c-0.17-0.7-0.37-1.49-0.58-2.34c-0.22-0.86-0.38-1.8-0.59-2.8
			c-0.22-0.99-0.36-2.05-0.55-3.15c-0.2-1.09-0.31-2.23-0.47-3.38c-0.16-1.15-0.25-2.33-0.38-3.51c-0.1-1.18-0.19-2.36-0.27-3.52
			c-0.06-1.16-0.14-2.31-0.17-3.42c-0.09-2.22-0.12-4.29-0.11-6.07c0.01-1.78,0.04-3.26,0.08-4.31c0.02-0.53,0.04-0.94,0.05-1.22
			c0.02-0.28,0.02-0.43,0.02-0.43c0.06-1.13,4.16-0.91,4.1,0.22c0,0.06-0.01,0.12-0.02,0.18L44.73,33.07z"/>
		<path class="st5" d="M60.45,33.07c0,0,0.02,0.14,0.06,0.41c0.04,0.26,0.09,0.65,0.15,1.14c0.13,1,0.29,2.43,0.46,4.16
			c0.16,1.73,0.32,3.75,0.43,5.92c0.07,1.08,0.09,2.21,0.14,3.35c0.02,1.14,0.04,2.3,0.04,3.46c-0.02,1.16-0.01,2.32-0.06,3.46
			c-0.05,1.14-0.07,2.27-0.16,3.35c-0.09,1.08-0.13,2.14-0.26,3.12c-0.12,0.99-0.19,1.93-0.33,2.79c-0.13,0.86-0.25,1.65-0.36,2.35
			c-0.11,0.7-0.26,1.3-0.36,1.8c-0.21,1-0.33,1.57-0.33,1.57l0,0.02c-0.04,0.19,0.08,0.38,0.27,0.42c0.18,0.04,0.36-0.07,0.41-0.24
			c0,0,0.17-0.56,0.47-1.55c0.14-0.5,0.35-1.09,0.53-1.79c0.17-0.7,0.37-1.49,0.59-2.34c0.22-0.86,0.38-1.8,0.59-2.8
			c0.22-0.99,0.36-2.05,0.55-3.15c0.2-1.09,0.31-2.23,0.47-3.38c0.16-1.15,0.25-2.33,0.38-3.51c0.1-1.18,0.19-2.36,0.28-3.52
			c0.06-1.16,0.14-2.31,0.17-3.42c0.09-2.22,0.12-4.29,0.11-6.07c-0.01-1.78-0.04-3.26-0.08-4.31c-0.02-0.53-0.04-0.94-0.05-1.22
			c-0.02-0.28-0.02-0.43-0.02-0.43c-0.06-1.13-4.16-0.91-4.1,0.22c0,0.06,0.01,0.12,0.02,0.18L60.45,33.07z"/>
	</g>
	<g>
		<path class="st6" d="M48.87,21.2c0,0-14.38,2.16-9.98,15.15c0,0,0.52-2.15,1.82-3.42c0,0-0.55,1.53,1.21,4.33
			c0,0,0.55-3.65,1.15-4.33c0,0,0.51,2.8,1.78,4.33c0,0,0.54-3.65,1.44-4.33c0,0,0.22,3.48,1.39,4.33c0,0,0.63-3.84,1.19-4.33
			c0,0,0.17,3.09,2.03,4.33c0,0,1.33-1.72,1.69-9.03V21.2H48.87z"/>
		<path class="st7" d="M56.31,21.2c0,0,14.38,2.16,9.98,15.15c0,0-0.51-2.15-1.82-3.42c0,0,0.55,1.53-1.21,4.33
			c0,0-0.55-3.65-1.15-4.33c0,0-0.51,2.8-1.78,4.33c0,0-0.54-3.65-1.44-4.33c0,0-0.22,3.48-1.39,4.33c0,0-0.63-3.84-1.19-4.33
			c0,0-0.17,3.09-2.03,4.33c0,0-1.33-1.72-1.69-9.03V21.2H56.31z"/>
	</g>
	<path class="st8" d="M47.87,21.99c0,1.17,2.11,3.88,4.72,3.88c2.61,0,4.72-2.71,4.72-3.88c0-1.17-2.11-2.12-4.72-2.12
		C49.98,19.87,47.87,20.82,47.87,21.99z"/>
</g>
</svg>
