<?xml version="1.0" encoding="utf-8"?>
<!-- Generator: Adobe Illustrator 25.2.3, SVG Export Plug-In . SVG Version: 6.00 Build 0)  -->
<svg version="1.1" id="Ebene_1" xmlns="http://www.w3.org/2000/svg" xmlns:xlink="http://www.w3.org/1999/xlink" x="0px" y="0px"
	 viewBox="0 0 100 100" style="enable-background:new 0 0 100 100;" xml:space="preserve">
<style type="text/css">
	.st0{fill:#EA575B;}
	.st1{fill:#D76C79;}
	.st2{fill:#F29E9F;}
	.st3{fill:#DB8D95;}
	.st4{fill:#C6838F;}
	.st5{fill:#F9C7B4;}
</style>
<g>
	<g>
		<path class="st0" d="M40.73,55.91c0-5.08,4.11-9.19,9.19-9.19V3.61C49.45,3.72,49,4.73,48.64,6.65L43.1,36.77
			c-0.75,4.08-4.73,6.96-8.84,6.4L3.91,39c-4.11-0.56-4.49,0.59-0.84,2.57l26.94,14.58c3.65,1.98,5.16,6.65,3.35,10.39L20.02,94.11
			c-1.81,3.74-0.83,4.45,2.18,1.59l22.19-21.11c1.52-1.45,3.52-2.16,5.52-2.14V65.1C44.84,65.1,40.73,60.98,40.73,55.91z"/>
		<path class="st1" d="M40.73,55.91c0,5.07,4.11,9.19,9.19,9.19v-3.33c-3.24-0.01-5.86-2.63-5.86-5.87c0-3.24,2.62-5.86,5.86-5.87
			v-3.33C44.84,46.72,40.73,50.83,40.73,55.91z"/>
		<path class="st2" d="M44.06,55.91c0,3.24,2.62,5.86,5.86,5.87V50.04C46.68,50.05,44.06,52.67,44.06,55.91z"/>
		<path class="st3" d="M77.4,95.82c2.99,2.87,3.98,2.16,2.19-1.58L66.37,66.6c-1.79-3.74-0.26-8.41,3.4-10.37l27-14.46
			c3.66-1.96,3.29-3.12-0.83-2.57l-30.36,4.04c-4.12,0.55-8.08-2.35-8.82-6.43L51.34,6.65c-0.39-2.16-0.91-3.17-1.43-3.04v43.11
			c0,0,0.01,0,0.01,0c5.08,0,9.19,4.12,9.19,9.2S55,65.1,49.92,65.1c0,0-0.01,0-0.01,0v7.34c1.96,0.02,3.91,0.74,5.39,2.16
			L77.4,95.82z"/>
		<path class="st4" d="M49.92,50.04c3.24,0,5.87,2.63,5.87,5.87s-2.63,5.87-5.87,5.87c0,0-0.01,0-0.01,0v3.33c0,0,0.01,0,0.01,0
			c5.08,0,9.19-4.12,9.19-9.19s-4.12-9.2-9.19-9.2c0,0-0.01,0-0.01,0L49.92,50.04C49.92,50.04,49.92,50.04,49.92,50.04z"/>
		<path class="st5" d="M55.79,55.91c0-3.24-2.63-5.87-5.87-5.87c0,0-0.01,0-0.01,0v11.73c0,0,0.01,0,0.01,0
			C53.16,61.78,55.79,59.15,55.79,55.91z"/>
	</g>
	<g>
		<path class="st2" d="M50.4,16.05c-0.78,0.27-1.64-0.14-1.91-0.93c-0.27-0.78,0.14-1.64,0.92-1.91c0.78-0.27,1.64,0.14,1.91,0.93
			C51.6,14.92,51.19,15.78,50.4,16.05z"/>
		<path class="st2" d="M50.74,23.16c-1.05,0.37-2.2-0.19-2.57-1.24c-0.36-1.05,0.19-2.2,1.24-2.57c1.05-0.36,2.2,0.19,2.56,1.25
			C52.34,21.65,51.79,22.8,50.74,23.16z"/>
		<path class="st2" d="M50.99,31.78c-1.35,0.47-2.82-0.25-3.29-1.6c-0.47-1.35,0.25-2.82,1.6-3.29c1.35-0.47,2.82,0.25,3.29,1.6
			C53.05,29.84,52.34,31.31,50.99,31.78z"/>
		<path class="st2" d="M51.35,41.96c-1.92,0.66-4.01-0.35-4.67-2.27c-0.66-1.92,0.35-4.01,2.27-4.67c1.92-0.66,4.01,0.35,4.67,2.27
			C54.28,39.21,53.27,41.3,51.35,41.96z"/>
	</g>
	<g>
		<path class="st5" d="M87.06,44.05c-0.47-0.68-0.31-1.61,0.37-2.09c0.68-0.47,1.61-0.31,2.09,0.37c0.47,0.68,0.31,1.61-0.37,2.09
			C88.47,44.89,87.53,44.73,87.06,44.05z"/>
		<path class="st5" d="M80.31,46.3c-0.64-0.91-0.41-2.17,0.5-2.81c0.91-0.64,2.17-0.41,2.81,0.5c0.64,0.91,0.41,2.17-0.5,2.81
			C82.2,47.44,80.94,47.22,80.31,46.3z"/>
		<path class="st5" d="M72.08,48.89c-0.82-1.17-0.53-2.78,0.64-3.6c1.17-0.82,2.78-0.53,3.6,0.64c0.82,1.17,0.53,2.78-0.64,3.6
			C74.51,50.35,72.9,50.06,72.08,48.89z"/>
		<path class="st5" d="M62.38,52.01c-1.16-1.66-0.75-3.95,0.91-5.11c1.66-1.16,3.95-0.75,5.12,0.91c1.16,1.66,0.75,3.95-0.91,5.11
			C65.83,54.08,63.54,53.67,62.38,52.01z"/>
	</g>
	<g>
		<path class="st5" d="M71.95,86.71c0.49-0.67,1.43-0.81,2.1-0.32c0.67,0.49,0.81,1.43,0.32,2.1c-0.49,0.67-1.43,0.81-2.1,0.32
			C71.6,88.31,71.46,87.37,71.95,86.71z"/>
		<path class="st5" d="M67.65,81.03c0.66-0.9,1.92-1.09,2.82-0.43c0.9,0.66,1.09,1.92,0.43,2.82c-0.66,0.9-1.92,1.09-2.82,0.43
			C67.18,83.19,66.98,81.93,67.65,81.03z"/>
		<path class="st5" d="M62.56,74.08c0.85-1.15,2.46-1.39,3.61-0.55c1.15,0.85,1.39,2.46,0.55,3.61c-0.85,1.15-2.46,1.39-3.61,0.55
			C61.96,76.84,61.71,75.22,62.56,74.08z"/>
		<path class="st5" d="M56.49,65.89c1.2-1.63,3.5-1.98,5.14-0.78c1.63,1.2,1.98,3.5,0.78,5.14c-1.2,1.63-3.5,1.98-5.14,0.78
			C55.63,69.82,55.29,67.52,56.49,65.89z"/>
	</g>
	<g>
		<path class="st2" d="M27.03,86.38c0.79,0.24,1.24,1.08,1,1.87c-0.24,0.79-1.08,1.24-1.87,1c-0.79-0.24-1.24-1.08-1-1.87
			C25.4,86.59,26.24,86.14,27.03,86.38z"/>
		<path class="st2" d="M30.95,80.44c1.06,0.33,1.66,1.45,1.34,2.52c-0.33,1.06-1.45,1.66-2.52,1.34c-1.06-0.33-1.66-1.45-1.34-2.52
			C28.76,80.72,29.89,80.12,30.95,80.44z"/>
		<path class="st2" d="M35.83,73.33c1.36,0.42,2.13,1.86,1.71,3.23c-0.42,1.37-1.86,2.13-3.23,1.72c-1.36-0.42-2.13-1.86-1.71-3.23
			C33.02,73.68,34.46,72.92,35.83,73.33z"/>
		<path class="st2" d="M41.54,64.89c1.94,0.59,3.03,2.65,2.44,4.59c-0.59,1.94-2.65,3.03-4.59,2.44c-1.94-0.59-3.03-2.65-2.44-4.59
			C37.55,65.39,39.6,64.3,41.54,64.89z"/>
	</g>
	<g>
		<path class="st2" d="M12.94,42.4c0,0.83-0.67,1.5-1.5,1.5c-0.83,0-1.5-0.67-1.5-1.5c0-0.83,0.67-1.5,1.5-1.5
			C12.26,40.9,12.94,41.58,12.94,42.4z"/>
		<circle class="st2" cx="17.75" cy="44.42" r="2.02"/>
		<path class="st2" d="M27.99,47c0,1.43-1.16,2.58-2.58,2.58c-1.43,0-2.58-1.16-2.58-2.58c0-1.43,1.16-2.58,2.58-2.58
			C26.83,44.42,27.99,45.58,27.99,47z"/>
		<path class="st2" d="M37.73,50c0,2.03-1.64,3.67-3.67,3.67c-2.03,0-3.67-1.64-3.67-3.67c0-2.03,1.64-3.67,3.67-3.67
			C36.09,46.32,37.73,47.97,37.73,50z"/>
	</g>
</g>
</svg>
