<?xml version="1.0" encoding="utf-8"?>
<!-- Generator: Adobe Illustrator 25.2.3, SVG Export Plug-In . SVG Version: 6.00 Build 0)  -->
<svg version="1.1" id="Ebene_1" xmlns="http://www.w3.org/2000/svg" xmlns:xlink="http://www.w3.org/1999/xlink" x="0px" y="0px"
	 viewBox="0 0 100 100" style="enable-background:new 0 0 100 100;" xml:space="preserve">
<style type="text/css">
	.st0{fill:#968488;}
	.st1{fill:#756D85;}
	.st2{fill:#CCCECF;}
	.st3{fill:#723E2B;}
</style>
<g>
	<g>
		<path class="st0" d="M74.95,59.56c9.04-4.56,12.66-4.32,14.01-3.77c0.54,0.22,1.22,0.66,1.72,2.13c0.52,1.52,2.17,2.32,3.69,1.8
			c1.52-0.52,2.32-2.17,1.8-3.69c-0.95-2.76-2.64-4.64-5.03-5.61c-4.13-1.68-10.11-0.42-18.81,3.97c-3.32,1.67-6.22,2.06-8.61,1.15
			c-2.46-0.93-3.99-3.07-4.72-4.35c5.13-7.57,15.74-7.58,15.74-23.75C74.75,13.76,63.67,2.68,50,2.68v65.55
			c0.53,1.42,1.19,2.69,1.98,3.81c2.21,3.14,5.33,4.99,9.26,5.49c10.31,1.32,10.79,3.17,11.15,4.52c0.01,0.04,0.73,4.33-3.02,5.47
			c-2.16,0.65-4.05,0.07-4.9-0.75c-0.57-0.55-0.72-1.2-0.49-2.05c0.42-1.55-0.5-3.14-2.05-3.56c-1.55-0.42-3.14,0.5-3.56,2.05
			c-0.78,2.89-0.03,5.71,2.06,7.73c1.79,1.74,4.37,2.67,7.09,2.67c1.17,0,2.36-0.17,3.53-0.53c6.46-1.95,7.97-8.61,6.95-12.49
			c-1.16-4.43-4.15-7.3-16.03-8.81c-2.28-0.29-3.99-1.3-5.24-3.07c-1.59-2.26-2.29-5.53-2.5-8.88c3.52,5.33,7.53,8.53,11.92,9.49
			c5.4,1.19,8.72,0.7,11.64,0.26c2.24-0.33,4.17-0.62,7.08-0.22c2.8,0.38,4.26,3.04,4.43,5.35c0.08,1.17-0.02,5.08-4.84,6.46
			c-1.54,0.44-2.43,2.05-1.99,3.59c0.36,1.27,1.53,2.11,2.79,2.11c0.26,0,0.53-0.04,0.8-0.11c5.91-1.69,9.46-6.58,9.03-12.46
			c-0.4-5.6-4.29-9.99-9.44-10.69c-3.72-0.5-6.37-0.11-8.71,0.23c-2.78,0.41-5.19,0.77-9.55-0.19c-1.5-0.33-2.91-1.14-4.2-2.22
			c1.05,0.26,2.13,0.4,3.24,0.4C69.11,61.83,71.96,61.07,74.95,59.56z"/>
		<path class="st1" d="M25.25,27.43c0,15.28,10.97,16.69,15.25,24.54c-0.84,1.24-2.22,2.8-4.22,3.56c-2.39,0.91-5.29,0.52-8.61-1.15
			c-8.7-4.39-14.68-5.65-18.81-3.97c-2.39,0.97-4.08,2.86-5.03,5.61c-0.52,1.52,0.28,3.17,1.8,3.69c1.52,0.52,3.17-0.28,3.69-1.8
			c0.51-1.47,1.19-1.91,1.72-2.13c1.35-0.55,4.97-0.79,14.01,3.77c2.99,1.51,5.84,2.26,8.52,2.26c1.12,0,2.2-0.14,3.26-0.41
			c-1.29,1.08-2.7,1.9-4.21,2.23c-4.36,0.96-6.77,0.6-9.55,0.19c-2.34-0.35-4.99-0.74-8.71-0.23C9.2,64.3,5.32,68.7,4.91,74.29
			c-0.42,5.88,3.12,10.77,9.03,12.46c0.27,0.08,0.54,0.11,0.8,0.11c1.26,0,2.43-0.83,2.79-2.11c0.44-1.54-0.45-3.15-1.99-3.59
			c-4.82-1.38-4.92-5.29-4.84-6.46c0.17-2.31,1.62-4.97,4.43-5.35c2.91-0.39,4.85-0.11,7.08,0.22c2.93,0.43,6.24,0.92,11.64-0.26
			c4.39-0.96,8.4-4.16,11.92-9.49c-0.21,3.34-0.91,6.61-2.5,8.88c-1.25,1.78-2.97,2.78-5.24,3.07c-8.99,1.15-14.5,2.96-16.03,8.81
			c-1.01,3.88,0.5,10.54,6.95,12.49c1.17,0.35,2.36,0.53,3.53,0.53c2.72,0,5.3-0.93,7.09-2.67c2.09-2.02,2.84-4.84,2.06-7.73
			c-0.42-1.55-2.01-2.47-3.56-2.05c-1.55,0.42-2.46,2.01-2.05,3.56c0.23,0.85,0.07,1.5-0.49,2.05c-0.85,0.82-2.74,1.4-4.9,0.75
			c-3.75-1.13-3.03-5.42-3.02-5.47c0.35-1.35,0.84-3.2,11.14-4.52c3.93-0.5,7.04-2.35,9.26-5.49c0.79-1.12,1.44-2.39,1.98-3.81V2.68
			C36.33,2.68,25.25,13.76,25.25,27.43z"/>
	</g>
	<g>
		<ellipse class="st2" cx="43.83" cy="48.34" rx="2.16" ry="4.13"/>
		<path class="st2" d="M58.33,48.34c0,2.28-0.97,4.13-2.16,4.13c-1.19,0-2.16-1.85-2.16-4.13s0.97-4.13,2.16-4.13
			C57.37,44.21,58.33,46.06,58.33,48.34z"/>
		<g>
			<line class="st2" x1="43.83" y1="44.68" x2="43.83" y2="51.7"/>
			<path class="st3" d="M43.83,44.68c0,0,0.22,0.44,0.37,1.1c0.17,0.66,0.27,1.53,0.28,2.41c0,0.88-0.1,1.75-0.27,2.41
				c-0.15,0.66-0.37,1.1-0.37,1.1s-0.22-0.44-0.37-1.1c-0.17-0.66-0.27-1.53-0.27-2.41c0-0.88,0.11-1.75,0.28-2.41
				C43.61,45.12,43.83,44.68,43.83,44.68z"/>
		</g>
		<g>
			<line class="st2" x1="56.17" y1="44.68" x2="56.17" y2="51.7"/>
			<path class="st3" d="M56.17,44.68c0,0,0.22,0.44,0.37,1.1c0.17,0.66,0.27,1.53,0.28,2.41c0,0.88-0.1,1.75-0.27,2.41
				c-0.15,0.66-0.37,1.1-0.37,1.1s-0.22-0.44-0.37-1.1c-0.17-0.66-0.27-1.53-0.27-2.41c0-0.88,0.11-1.75,0.28-2.41
				C55.96,45.12,56.17,44.68,56.17,44.68z"/>
		</g>
	</g>
	<g>
		<path class="st2" d="M54.24,9.9c0.26-0.37-0.49-1.32-1.65-2.14c-1.17-0.82-2.32-1.18-2.58-0.82c-0.25,0.37,0.49,1.32,1.65,2.14
			C52.83,9.9,53.99,10.26,54.24,9.9z"/>
		<path class="st2" d="M57.44,8.28c0.26-0.37-0.49-1.32-1.65-2.14c-1.17-0.82-2.32-1.18-2.58-0.82c-0.25,0.37,0.49,1.32,1.65,2.14
			C56.03,8.28,57.18,8.65,57.44,8.28z"/>
		<path class="st2" d="M58.66,18.34c0.26-0.36-0.48-1.32-1.65-2.14c-1.17-0.82-2.32-1.18-2.58-0.82c-0.26,0.37,0.48,1.32,1.65,2.14
			C57.25,18.34,58.4,18.71,58.66,18.34z"/>
		<path class="st2" d="M60.21,10.78c-0.25,0.37-0.98,0.3-1.62-0.15c-0.64-0.45-0.95-1.1-0.69-1.47c0.26-0.37,0.98-0.3,1.62,0.15
			C60.16,9.76,60.47,10.42,60.21,10.78z"/>
		<path class="st2" d="M45.92,5.76c-0.36,0.51-0.17,1.26,0.41,1.66c0.58,0.41,1.35,0.32,1.7-0.19c0.36-0.51,0.17-1.26-0.41-1.66
			C47.04,5.16,46.28,5.25,45.92,5.76z"/>
		<path class="st2" d="M60.46,15.23c-0.18,0.26-1.27-0.2-2.44-1.01c-1.17-0.82-1.97-1.68-1.79-1.94c0.18-0.26,1.27,0.2,2.44,1.01
			C59.84,14.1,60.64,14.97,60.46,15.23z"/>
		<path class="st2" d="M65.34,15.35c-0.38,0.55-1.24,0.61-1.91,0.14c-0.67-0.47-0.91-1.29-0.52-1.84c0.38-0.55,1.24-0.61,1.91-0.14
			C65.49,13.98,65.73,14.8,65.34,15.35z"/>
		<path class="st2" d="M64.15,20.75c-0.33,0.48-1.38,0.32-2.33-0.35c-0.96-0.67-1.46-1.6-1.13-2.07c0.33-0.48,1.38-0.32,2.33,0.35
			C63.97,19.35,64.48,20.28,64.15,20.75z"/>
		<path class="st2" d="M53.86,20.75c-0.33,0.48-1.38,0.32-2.33-0.35c-0.96-0.67-1.46-1.6-1.13-2.07c0.33-0.48,1.38-0.32,2.33,0.35
			C53.69,19.35,54.19,20.28,53.86,20.75z"/>
		<path class="st2" d="M51.51,11.14c-0.36,0.51,0.18,1.5,1.2,2.22c1.02,0.71,2.14,0.88,2.5,0.37c0.36-0.51-0.18-1.5-1.2-2.22
			C52.99,10.79,51.87,10.63,51.51,11.14z"/>
		<path class="st2" d="M47.57,9.96c-0.17,0.24,0.04,0.67,0.46,0.96c0.42,0.29,0.89,0.34,1.06,0.1c0.17-0.24-0.04-0.67-0.46-0.96
			C48.21,9.76,47.73,9.72,47.57,9.96z"/>
		<path class="st2" d="M72,26.24c-0.2,0.29-1.01,0.08-1.8-0.47c-0.79-0.55-1.27-1.24-1.06-1.53c0.2-0.29,1.01-0.08,1.8,0.47
			C71.73,25.27,72.2,25.95,72,26.24z"/>
		<path class="st2" d="M46.22,10.64c-0.2,0.29-1.01,0.08-1.8-0.47c-0.79-0.55-1.27-1.24-1.06-1.53c0.2-0.29,1.01-0.08,1.8,0.47
			C45.95,9.66,46.42,10.34,46.22,10.64z"/>
		<path class="st2" d="M58.54,21.56c-0.2,0.29-1.01,0.08-1.8-0.47c-0.79-0.55-1.27-1.24-1.06-1.53c0.2-0.29,1.01-0.08,1.8,0.47
			C58.27,20.58,58.74,21.27,58.54,21.56z"/>
		<path class="st2" d="M68.71,19.18c-0.18,0.26-0.69,0.21-1.14-0.11c-0.45-0.32-0.67-0.78-0.49-1.03c0.18-0.26,0.69-0.21,1.14,0.11
			C68.67,18.46,68.89,18.92,68.71,19.18z"/>
		<path class="st2" d="M49.32,15.12c-0.2,0.29,0.02,0.8,0.49,1.13c0.47,0.33,1.02,0.36,1.23,0.07c0.2-0.29-0.01-0.8-0.49-1.13
			C50.07,14.86,49.52,14.82,49.32,15.12z"/>
		<path class="st2" d="M61.78,22.3c-0.2,0.29,0.02,0.8,0.49,1.13c0.47,0.33,1.03,0.36,1.23,0.07c0.2-0.29-0.02-0.8-0.49-1.13
			C62.54,22.04,61.99,22.01,61.78,22.3z"/>
		<path class="st2" d="M69.71,20.94c-0.2,0.29,0.02,0.8,0.49,1.13c0.47,0.33,1.03,0.36,1.23,0.07c0.2-0.29-0.02-0.8-0.49-1.13
			C70.46,20.68,69.91,20.65,69.71,20.94z"/>
		<path class="st2" d="M66.22,14.32c-0.2,0.29,0.02,0.8,0.49,1.13c0.47,0.33,1.03,0.36,1.23,0.07c0.2-0.29-0.02-0.8-0.49-1.13
			C66.97,14.06,66.42,14.02,66.22,14.32z"/>
		<path class="st2" d="M65.87,24.37c-0.2,0.29,0.02,0.8,0.49,1.13c0.47,0.33,1.02,0.36,1.23,0.07c0.2-0.29-0.02-0.8-0.49-1.13
			C66.63,24.11,66.08,24.08,65.87,24.37z"/>
		<path class="st2" d="M68.46,22.49c-0.38,0.55-1.31,0.56-2.08,0.02c-0.77-0.54-1.08-1.41-0.7-1.96c0.38-0.55,1.32-0.56,2.08-0.02
			C68.53,21.07,68.85,21.94,68.46,22.49z"/>
		<path class="st2" d="M64.25,11.31c-0.38,0.55-1.31,0.56-2.08,0.02c-0.77-0.54-1.08-1.41-0.7-1.96c0.38-0.55,1.32-0.56,2.08-0.02
			C64.32,9.88,64.63,10.76,64.25,11.31z"/>
	</g>
</g>
</svg>
