<?xml version="1.0" encoding="utf-8"?>
<!-- Generator: Adobe Illustrator 25.4.1, SVG Export Plug-In . SVG Version: 6.00 Build 0)  -->
<svg version="1.1" id="Ebene_1" xmlns="http://www.w3.org/2000/svg" xmlns:xlink="http://www.w3.org/1999/xlink" x="0px" y="0px"
	 viewBox="0 0 18.7 14.3" style="enable-background:new 0 0 18.7 14.3;" xml:space="preserve">
<style type="text/css">
	.st0{fill:#FF31FF;}
</style>
<path class="st0" d="M18,2.8c-0.3,0-15.5,0-17.5,0C0.3,2.8,0.3,2.9,0.3,3c0,0.2,0,0.6,0,0.6c0.3,4.7,4.2,8.5,9,8.5
	c4.8,0,8.8-3.8,9-8.5c0,0,0-0.3,0-0.5C18.4,2.8,18.3,2.8,18,2.8z M16,3.4c-0.2,3.5-3.1,6.4-6.7,6.4S2.8,6.9,2.7,3.4H16z M9.3,11.5
	c-4.5,0-8.2-3.6-8.4-8.1H2c0.2,3.9,3.4,7,7.3,7s7.1-3.1,7.3-7h1.1C17.6,7.9,13.9,11.5,9.3,11.5z"/>
<path class="st0" d="M9.4,6.9c0.2,0,0.4-0.2,0.4-0.5c0-0.3-0.2-0.7-0.4-0.7S9,6.1,9,6.4C9,6.7,9.2,6.9,9.4,6.9z"/>
<path class="st0" d="M6.8,6.4c0.2,0.1,0.5,0,0.6-0.2c0.1-0.2,0.1-0.7-0.1-0.8C7.1,5.2,6.8,5.5,6.6,5.7C6.5,6,6.6,6.3,6.8,6.4z"/>
<path class="st0" d="M5.6,4.9c0.2-0.1,0.5-0.5,0.3-0.7C5.8,4,5.4,4,5.2,4.2S4.8,4.6,5,4.8C5.1,5,5.4,5.1,5.6,4.9z"/>
<path class="st0" d="M12,6.4c0.2-0.1,0.3-0.4,0.2-0.6c-0.1-0.2-0.5-0.5-0.7-0.4c-0.2,0.1-0.2,0.5-0.1,0.8C11.5,6.4,11.8,6.5,12,6.4z
	"/>
<path class="st0" d="M13.2,4.9c0.2,0.1,0.5,0.1,0.6-0.1c0.1-0.2,0-0.5-0.2-0.6C13.4,4,13,4,12.8,4.2C12.7,4.4,12.9,4.8,13.2,4.9z"/>
</svg>
