<?xml version="1.0" encoding="utf-8"?>
<!-- Generator: Adobe Illustrator 25.4.1, SVG Export Plug-In . SVG Version: 6.00 Build 0)  -->
<svg version="1.1" id="Ebene_1" xmlns="http://www.w3.org/2000/svg" xmlns:xlink="http://www.w3.org/1999/xlink" x="0px" y="0px"
	 viewBox="0 0 15 14.4" style="enable-background:new 0 0 15 14.4;" xml:space="preserve">
<path d="M6,6.1c0,0.9-0.3,1.9-1,2.5C4.8,8.8,5.1,9.1,5.4,8.9C6,8.2,6.5,7.1,6.5,6.1C6.5,5.8,6,5.8,6,6.1z"/>
<path d="M9,4c1.8-0.2,2.5-1.9,2.5-1.9l0.1-0.2l-0.1-0.1c-0.1,0-1-0.8-2.2-0.8C8.9,0.9,8.6,1,8.4,1.1c-0.5,0.2-0.8,0.5-1,0.8
	C7.5,1.3,7.7,0.8,8,0.3C8.1,0,7.7-0.3,7.5,0C6.9,1,6.6,2.3,6.8,3.4C5.8,3.6,5,4.5,5,5.6c0,0.9-0.3,1.4-0.7,2
	C4.1,7.9,3.9,8.1,3.8,8.4C3.6,8.6,3.5,9,3.4,9.3v0c0,0,0,0.1,0,0.1c-0.1,0.3-0.2,0.7-0.2,1c0,2.2,1.8,3.9,3.9,3.9s3.9-1.8,3.9-3.9
	c0-0.3-0.1-0.6-0.1-1l0,0v0c-0.1-0.5-0.4-1-0.7-1.5C9.8,7.2,9.4,6.5,9.4,5.7C9.4,5,9.1,4.4,8.6,4c0,0,0,0,0.1,0C8.8,4,8.9,4,9,4z
	 M8.9,5.6c0,1,0.5,1.8,0.9,2.5c0.3,0.5,0.6,0.9,0.6,1.3l0,0v0.1c0.1,0.3,0.1,0.6,0.1,0.9c0,1.9-1.6,3.4-3.4,3.4s-3.4-1.6-3.4-3.4
	c0-0.3,0-0.6,0.1-0.9c0,0,0,0,0,0v0C3.9,9.1,4,8.9,4.2,8.6c0.1-0.2,0.3-0.5,0.4-0.7C5,7.3,5.4,6.7,5.4,5.7c0-1,0.8-1.7,1.7-1.7
	S8.9,4.7,8.9,5.6z M7.4,2.8c0.1-0.2,0.3-0.9,1.1-1.3C8.8,1.5,9,1.4,9.2,1.4C10,1.4,10.7,1.8,11,2c-0.2,0.4-0.8,1.3-2.1,1.5
	C8.1,3.6,7.6,3,7.4,2.8z"/>
<circle cx="6.2" cy="5.3" r="0.2"/>
</svg>
