<?xml version="1.0" encoding="utf-8"?>
<!-- Generator: Adobe Illustrator 25.4.1, SVG Export Plug-In . SVG Version: 6.00 Build 0)  -->
<svg version="1.1" id="Ebene_1" xmlns="http://www.w3.org/2000/svg" xmlns:xlink="http://www.w3.org/1999/xlink" x="0px" y="0px"
	 viewBox="0 0 19.9 18.4" style="enable-background:new 0 0 19.9 18.4;" xml:space="preserve">
<path d="M16.3,9.3c0.4-0.4,0.6-1,0.6-1.8c0-0.6-0.3-1.1-0.7-1.5c-0.3-0.2-0.6-0.4-1-0.5c-0.5-0.9-1.4-1.4-2.2-1.3
	C13.3,3.1,14,3,14,3c0.1,0,0.2-0.1,0.2-0.3c0-0.1-0.1-0.2-0.2-0.3c-1.7-0.3-2.7,0.2-3.2,0.8C10.9,3,11,2.7,11.1,2.5l0,0l0,0
	c0,0,0.2-0.8-0.1-1.3c-0.5-0.7-1.4-0.4-1.4-0.4C9.4,0.8,9.4,0.9,9.4,1C9.3,1.1,9.2,1.4,9.1,1.8C9,2.3,8.9,3,9.1,3.8
	c-0.3,0-0.8,0-1.4,0.2C6,4.5,5.1,4.3,5.1,4.3C5,4.3,4.8,4.4,4.8,4.5s0,0.3,0.2,0.3c0,0,0.2,0.1,0.5,0.2C5.3,5.3,5,5.6,4.9,5.9
	C4.1,6.1,3.6,6.7,3.6,7.6c0,0.6,0.2,1.1,0.5,1.5c0.2,0.2,0.5,0.4,0.7,0.5c-0.2,0.3-0.3,0.7-0.3,1.1c0,1.1,0.7,2,1.7,2.2
	c0,0.1,0,0.3,0,0.4c0,1.2,0.9,2.2,2.1,2.2l0,0c0.3,0.9,1.1,1.4,2,1.4s1.6-0.5,2-1.3c0.4,0,0.9-0.2,1.3-0.6c0.5-0.5,0.8-1.2,0.8-1.8
	c0-0.1,0-0.3,0-0.4c1-0.2,1.6-1.1,1.6-2.2c0-0.1,0-0.1,0-0.2c0.1,0,0.1,0.1,0.2,0.1c0,0,0.1,0.1,0.2,0.1s0.1,0,0.2-0.1
	s0.1-0.2,0.1-0.3C16.6,10.1,16.5,9.8,16.3,9.3z M14.4,5.5c-0.2,0-0.4,0.1-0.6,0.1c-0.4-0.4-0.8-0.7-1.2-0.8
	C13.3,4.6,13.9,4.9,14.4,5.5z M13.1,2.9c-0.2,0.2-0.5,0.6-0.7,1.1c-0.2,0.7-1.2,0.7-1.7,0.7c0-0.2-0.1-0.3-0.1-0.5
	c0-0.1,0-0.1,0-0.1C10.9,3.8,11.6,2.9,13.1,2.9z M10.6,1.4c0.1,0.2,0.1,0.4,0.1,0.6h-0.4C10,1.8,9.9,1.4,9.9,1.2
	C10.1,1.2,10.4,1.2,10.6,1.4z M9.6,2C9.7,2.2,9.8,2.3,10,2.4c0,0,0,0,0.1,0l0.4,0.1c-0.2,0.4-0.3,0.8-0.3,1.5v0.1c0,0.1,0,0.1,0,0.2
	c0,0.2,0,0.4,0.1,0.6C10.2,4.9,10.1,5,10,5C9.4,3.8,9.5,2.7,9.6,2z M12.6,7.9c0.5,0.3,1,0.6,1.5,0.9L14.4,9
	c-0.2,0.6-0.7,0.9-1.4,0.9c-0.2,0-0.5-0.2-0.7-0.3c0.2-0.3,0.3-0.7,0.3-1.1C12.7,8.4,12.7,8.2,12.6,7.9z M13.1,10.5
	c0.1,0,0.3,0,0.4,0c0,0.1,0,0.2,0,0.3c0,1-0.7,1.8-1.5,1.8c-0.5,0-0.9-0.3-1.2-0.7c0.1-0.2,0.2-0.5,0.2-0.7c0-0.1,0-0.3,0-0.4
	c0.4-0.1,0.8-0.3,1.1-0.6C12.3,10.3,12.7,10.5,13.1,10.5z M10,5.7L10,5.7C10,6,9.8,7.1,7.9,7.3c-0.3,0-0.5,0.1-0.8,0.1
	S6.5,7.5,6.2,7.5H6.1c-0.1,0-0.2,0-0.4,0.1c1.7-1.7,3.2-1.7,3.1-1.7l0,0c0.4,0,0.7-0.1,1-0.3L10,5.7L10,5.7z M6.4,8
	c0.2,0,0.5,0,0.7-0.1c0.3,0,0.5,0,0.8-0.1c0,0,0,0,0.1,0C7.9,8.1,7.8,8.4,7.8,8.6c0,0.5,0.2,0.9,0.5,1.3C8.1,10,8,10,7.8,10
	C7,10,6.3,9.4,6.3,8.5C6.3,8.3,6.4,8.2,6.4,8z M7.9,10.5c0.3,0,0.6-0.1,0.9-0.3c0.4,0.3,1,0.5,1.6,0.5c0.1,0,0.1,0,0.2,0
	c0,0.1,0,0.2,0,0.3c0,0.8-0.6,1.3-1.4,1.3c-0.7,0-1.4-0.6-1.4-1.3C7.8,10.9,7.8,10.7,7.9,10.5z M10.5,12.3c0.4,0.5,0.9,0.8,1.5,0.8
	c0.1,0,0.1,0,0.2,0c-0.1,0.8-0.7,1.5-1.5,1.5S9.3,13.9,9.2,13C9.8,12.8,10.2,12.6,10.5,12.3z M10.3,10.3c-1.1,0-1.9-0.7-1.9-1.6
	c0-0.3,0.1-0.7,0.4-1C9.6,7.4,10,7,10.3,6.6c0.2,0.4,0.6,0.7,1.4,1h0.1l0,0c0.3,0.3,0.4,0.7,0.4,1C12.2,9.5,11.4,10.3,10.3,10.3z
	 M7.8,4.6c0.3-0.1,1-0.2,1.4-0.2c0.1,0.3,0.2,0.5,0.3,0.8C9.3,5.3,9.1,5.3,8.9,5.3H8.8c-0.3,0-0.7,0-0.9-0.1C7.7,5.1,7.1,5,6.6,4.8
	C6.9,4.7,7.3,4.7,7.8,4.6z M6,5.2c0.6,0.2,1.2,0.4,1.6,0.5C7.3,5.8,7.1,5.9,6.8,6.1C6.4,5.9,6,5.8,5.6,5.8l0,0
	C5.7,5.5,5.9,5.3,6,5.2z M4.5,8.8C4.2,8.5,4.1,8.1,4.1,7.6c0.1-0.9,0.6-1.4,1.5-1.4c0.2,0,0.5,0.1,0.7,0.1c-0.5,0.4-1,0.8-1.5,1.5
	C4.7,8,4.7,8.1,4.8,8.2C4.9,8.3,5,8.4,5.1,8.3c0.2-0.1,0.5-0.1,0.7-0.2c0,0.1,0,0.3,0,0.4c0,0.2,0,0.4,0.1,0.5
	C5.7,9.1,5.5,9.2,5.4,9.2C5.1,9.2,4.7,9,4.5,8.8z M5.1,10.7c0-0.3,0.1-0.7,0.3-1l0,0c0.1,0,0.4,0,0.7-0.2c0.3,0.5,0.7,0.8,1.3,1
	c0,0.2-0.1,0.4-0.1,0.6c0,0.3,0.1,0.6,0.2,0.9c-0.1,0.3-0.3,0.5-0.7,0.5C5.8,12.4,5.1,11.6,5.1,10.7z M8.4,15
	c-0.9,0-1.6-0.8-1.6-1.7c0-0.1,0-0.2,0-0.4c0.5,0,0.8-0.2,1-0.5c0.3,0.2,0.6,0.4,0.9,0.5c0,0.6,0.3,1.2,0.7,1.6
	C9.2,14.8,8.8,15,8.4,15z M10.4,16.4c-0.6,0-1.2-0.4-1.5-1c0.4-0.1,0.7-0.3,0.9-0.6c0.3,0.2,0.6,0.3,0.9,0.3c0.1,0,0.2,0,0.3,0
	c0.2,0.2,0.5,0.4,0.8,0.5C11.6,16.1,11,16.4,10.4,16.4z M13.3,14.6c-0.3,0.3-0.7,0.4-1,0.4c-0.2,0-0.4-0.1-0.6-0.3
	c0.6-0.4,1.1-1.1,1.1-1.9c0.2-0.1,0.4-0.2,0.5-0.4c0.2,0.2,0.4,0.3,0.6,0.3c0,0.1,0,0.2,0,0.4C13.9,13.7,13.7,14.3,13.3,14.6z
	 M14,12.3c-0.1,0-0.3-0.1-0.3-0.2c0.3-0.4,0.4-0.9,0.4-1.4c0-0.1,0-0.3,0-0.4c0.4-0.2,0.7-0.5,0.9-0.9c0.1,0.1,0.3,0.2,0.5,0.4
	c0.1,0.2,0.1,0.4,0.1,0.7C15.6,11.6,14.9,12.3,14,12.3z M15.2,8.9c-0.2,0-0.2-0.1-0.3-0.1l0,0c0,0-0.1-0.1-0.2-0.1l-0.3-0.2
	c-0.8-0.5-1.6-1.1-2.6-1.4c-1.2-0.4-1.3-1.2-1.3-1.3l0,0l0,0V5.4c0.1,0,0.1-0.1,0.2-0.1c0.1,0,0.1,0,0.2,0c0.3,0,0.8,0,1.2-0.2
	c1.7,0.4,3.1,3,3.7,4.3C15.4,9.2,15.3,9,15.2,8.9z M16,8.8C15.6,8,15,6.9,14.2,6c0.1,0,0.2,0,0.2,0c0.5,0,0.9,0.1,1.2,0.4
	s0.5,0.7,0.6,1.1C16.3,8,16.2,8.5,16,8.8z"/>
</svg>
