<?xml version="1.0" encoding="utf-8" standalone="yes"?><!-- Generator: Adobe Illustrator 21.1.0, SVG Export Plug-In . SVG Version: 6.00 Build 0)  --><svg xmlns="http://www.w3.org/2000/svg" xmlns:xlink="http://www.w3.org/1999/xlink" version="1.1" id="Layer_1" x="0px" y="0px" viewBox="0 0 15 14.4" style="enable-background:new 0 0 15 14.4;zoom: 1;" xml:space="preserve"><style type="text/css">
        .st0{fill:#37593B;}
</style><path class="st0" d="M12.5,4.4L7.5,0L0,3.1l0.6,9.4l6.8,1.9l3.1,0l3.8-1.3L15,9.9L12.5,4.4z M14,9L9.6,7.5L9.5,7.4L7.9,1.1l4.1,3.6 L14,9z M7.4,13.8l-3.3-0.9l1.1-2.8l3.8-2.2l0.1,0l1.5,3.1L7.4,13.8z M6.1,6.5L0.9,3.4l6.3-2.6L6.1,6.5z M6.5,7l1-5.4L9,7.4L5.6,9.3 L6.5,7z M0.6,3.8L5.9,7l-2.3,5.8l-2.5-0.7L0.6,3.8z M10.4,13.8H8.2l2.9-2.4l2.3,1.4L10.4,13.8z M13.9,12.5l-2.6-1.6L9.9,8.2l4.3,1.4 l0.1,0.3L13.9,12.5z"></path><text stroke="none" style="outline-style:none;" id="text1" stroke-width="1px" x="7.232343px" text-rendering="geometricPrecision" font-family="Helvetica" fill="#000000" font-size="12px" y="11.214871px" transform="" text-anchor="middle">0</text></svg>