<svg width="163" height="529" viewBox="0 0 163 529" fill="none" xmlns="http://www.w3.org/2000/svg">
<g clip-path="url(#clip0)">
<path d="M97.0835 255.287C96.7554 255.34 96.4273 255.446 96.0719 255.499C92.6818 235.719 89.3463 216.682 86.2569 199.424C100.036 182.67 113.05 163.208 121.662 138.012C146.514 65.1824 109.714 0 100.282 0C69.4976 0 55.6637 79.0951 71.6848 164.828C42.2672 203.566 8.39313 242.144 1.96827 280.192C-9.24105 346.648 27.367 416.053 106.68 400.972C107.937 400.733 109.195 400.467 110.398 400.175C114.854 428.638 118.491 451.737 120.568 463.871C125.681 493.608 111.355 518.034 86.8584 519.309C77.973 519.76 69.607 516.229 63.9476 507.467C77.0981 512.3 90.7953 501.414 91.9709 477.385C92.7365 461.747 87.6786 446.055 67.1737 443.665C51.262 441.807 33.4911 456.941 36.1977 484.049C38.4122 506.405 52.2189 528.23 85.3547 529.027C118.491 529.823 138.503 502.954 130.247 458.72C128.333 448.498 124.56 425.983 119.803 397.228C189.574 369.562 169.643 242.622 97.0835 255.287ZM102.606 43.57C107.555 43.57 117.37 50.7122 117.37 68.4748C117.37 97.5214 99.8722 126.701 78.4377 155.801C67.6112 80.4227 91.5335 43.57 102.606 43.57ZM102.415 392.263C17.552 408.778 12.6581 324.824 26.5468 279.156C34.5847 252.738 57.222 232.904 79.4766 207.416C82.1013 222.55 84.9446 239.622 87.87 257.65C32.0421 276.05 31.6046 363.322 83.1675 371.527C58.6984 352.888 53.2031 303.795 87.4325 292.671C89.401 292.033 91.3421 291.608 93.2833 291.29C98.7239 325.355 104.192 360.508 108.922 390.696C106.871 391.281 104.711 391.812 102.415 392.263ZM118.08 387.085C113.323 358.357 107.746 324.585 102.087 290.892C141.757 294.237 163.957 364.703 118.08 387.085Z" fill="black"/>
</g>
<defs>
<clipPath id="clip0">
<rect width="163" height="529" fill="white"/>
</clipPath>
</defs>
</svg>
