<svg width="1285" height="747" viewBox="0 0 1285 747" fill="none" xmlns="http://www.w3.org/2000/svg">
<path fill-rule="evenodd" clip-rule="evenodd" d="M533.255 219.044C574.353 217.637 607.711 246.127 646.585 259.539C686.576 273.336 733.967 268.921 764.046 298.669C796.831 331.094 818.884 378.58 813.215 424.341C807.677 469.043 760.682 493.464 735.304 530.678C707.202 571.886 704.614 639.591 656.782 653.73C609.034 667.846 570.657 611.219 524.297 593.055C479.5 575.505 416.439 589.862 390.439 549.381C364.383 508.814 404.43 457.341 406.184 409.159C407.94 360.907 373.85 308.102 400.681 267.96C427.512 227.816 484.998 220.697 533.255 219.044Z" fill="url(#paint0_linear)"/>
<path fill-rule="evenodd" clip-rule="evenodd" d="M475.013 280.793C511.469 282.888 548.295 277.786 581.075 293.875C618.312 312.15 658.86 336.546 670.012 376.498C681.088 416.182 652.891 454.531 636.463 492.315C621.771 526.105 607.334 559.591 579.771 584.044C549.934 610.515 514.664 631.207 475.013 635.547C432.316 640.221 384.889 636.767 352.154 608.958C320.121 581.744 317.817 534.957 308.393 493.995C299.87 456.95 291.27 420.004 300.18 383.05C309.632 343.85 324.902 301.513 359.709 281.155C393.718 261.263 435.679 278.533 475.013 280.793Z" fill="url(#paint1_linear)"/>
<path fill-rule="evenodd" clip-rule="evenodd" d="M796.898 220.349C839.078 190.818 896.099 221.444 947.587 221.022C996.111 220.624 1046.32 195.949 1089.57 217.951C1134.35 240.733 1155.9 290.938 1175.76 337.094C1196.48 385.257 1222.96 438.143 1205.58 487.61C1188.44 536.397 1134.32 559.205 1088.99 584.085C1050.95 604.964 1010.01 614.668 966.797 618.67C921.528 622.863 875.529 626.624 834.198 607.685C788.297 586.651 742.303 555.443 725.169 507.948C708.121 460.693 733.542 411.111 745.699 362.368C758.182 312.317 754.641 249.934 796.898 220.349Z" fill="url(#paint2_linear)"/>
<path fill-rule="evenodd" clip-rule="evenodd" d="M431.807 1.00793C479.294 4.01588 516.446 38.8183 553.553 68.6025C588.802 96.8947 621.248 127.45 640.364 168.408C661.59 213.885 680.875 264.381 667.506 312.755C653.901 361.98 613.623 400.035 569.324 425.448C528.023 449.14 479.36 445.536 431.807 447.966C381.188 450.553 327.079 466.235 283.685 440.045C239.093 413.131 214.929 361.148 203.695 310.29C193.145 262.532 206.865 214.474 223.714 168.558C239.96 124.284 261.58 82.0119 298.314 52.4349C336.388 21.779 383.023 -2.08219 431.807 1.00793Z" fill="url(#paint3_linear)"/>
<path fill-rule="evenodd" clip-rule="evenodd" d="M228.45 193.042C272.943 196.786 311.057 220.96 347.703 246.47C385.128 272.523 425.28 298.767 441.53 341.374C458.186 385.046 449.485 433.293 436.025 478.053C422.299 523.697 403.409 570.34 364.427 597.765C325.721 624.997 275.724 626.293 228.45 624.091C183.121 621.979 139.237 610.523 101.375 585.511C62.1366 559.589 27.7837 525.231 11.8351 480.99C-4.43001 435.872 -1.51087 386.317 13.0976 340.636C27.7578 294.792 53.9663 252.306 93.6674 225.096C132.716 198.334 181.277 189.073 228.45 193.042Z" fill="url(#paint4_linear)"/>
<path fill-rule="evenodd" clip-rule="evenodd" d="M767.68 182.429C816.81 175.784 869.251 179.1 910.829 206.103C953.51 233.823 982.956 279.896 994.185 329.535C1004.85 376.68 985.039 422.931 970.292 468.963C955.475 515.214 945.922 565.999 908.509 596.965C869.995 628.844 817.64 638.56 767.68 636.665C719.064 634.821 674.455 614.188 634.404 586.57C593.447 558.329 554.831 524.552 537.476 477.928C519.68 430.118 516.456 374.689 538.393 328.631C559.227 284.889 609.298 267.412 650.15 241.364C688.03 217.21 723.16 188.451 767.68 182.429Z" fill="url(#paint5_linear)"/>
<defs>
<linearGradient id="paint0_linear" x1="526.94" y1="209.733" x2="653.388" y2="654.698" gradientUnits="userSpaceOnUse">
<stop stop-color="#ECECEC"/>
<stop offset="1" stop-color="#A62E00"/>
</linearGradient>
<linearGradient id="paint1_linear" x1="484.468" y1="271.686" x2="484.468" y2="637.285" gradientUnits="userSpaceOnUse">
<stop stop-color="#ECECEC"/>
<stop offset="1" stop-color="#A62E00"/>
</linearGradient>
<linearGradient id="paint2_linear" x1="795.759" y1="221.058" x2="1096.07" y2="595.024" gradientUnits="userSpaceOnUse">
<stop stop-color="#ECECEC"/>
<stop offset="1" stop-color="#A62E00"/>
</linearGradient>
<linearGradient id="paint3_linear" x1="435.961" y1="0.738281" x2="435.961" y2="454.979" gradientUnits="userSpaceOnUse">
<stop stop-color="#ECECEC"/>
<stop offset="1" stop-color="#A62E00"/>
</linearGradient>
<linearGradient id="paint4_linear" x1="225.752" y1="192.163" x2="225.752" y2="624.813" gradientUnits="userSpaceOnUse">
<stop stop-color="#ECECEC"/>
<stop offset="1" stop-color="#A62E00"/>
</linearGradient>
<linearGradient id="paint5_linear" x1="760.117" y1="179.491" x2="760.117" y2="636.891" gradientUnits="userSpaceOnUse">
<stop stop-color="#ECECEC"/>
<stop offset="1" stop-color="#A62E00"/>
</linearGradient>
</defs>
</svg>
