<svg width="1552" height="777" viewBox="0 0 1552 777" fill="none" xmlns="http://www.w3.org/2000/svg">
<path fill-rule="evenodd" clip-rule="evenodd" d="M1297.12 286.016C1358.47 270.87 1436.61 239.941 1482.04 283.864C1529.04 329.305 1479.63 410.807 1492.49 474.905C1502.99 527.265 1562.68 568.64 1549.55 620.405C1536.41 672.214 1478.47 698.754 1430.01 721.288C1388.52 740.578 1342.25 730.235 1297.12 737.772C1238.82 747.508 1183.37 791.177 1127.53 771.804C1067.19 750.868 1013.19 697.379 1000.36 634.809C987.756 573.365 1031.3 516.124 1064.14 462.686C1090.17 420.337 1128.84 391.319 1168.45 361.285C1209.04 330.508 1247.67 298.225 1297.12 286.016Z" fill="url(#paint0_linear)"/>
<path fill-rule="evenodd" clip-rule="evenodd" d="M471.21 19.7384C523.606 28.8128 575.157 45.3027 614.004 81.6152C649.968 115.233 659.66 165.186 676.354 211.498C693.721 259.677 729.379 308.191 713.194 356.779C697.024 405.324 639.69 423.138 596.643 450.796C556.489 476.596 518.865 514.899 471.21 512.256C424.195 509.65 389.966 469.5 355.493 437.426C325.115 409.162 298.208 377.987 284.724 338.747C271.061 298.982 278.998 257.857 279.345 215.813C279.882 150.57 241.678 71.668 287.309 25.0354C331.276 -19.8958 409.268 9.01074 471.21 19.7384Z" fill="url(#paint1_linear)"/>
<path fill-rule="evenodd" clip-rule="evenodd" d="M270.992 180.385C332.694 192.227 334.667 287.82 386.315 323.597C440.188 360.915 540.25 326.409 567.705 385.917C594.098 443.123 518.123 496.707 492.797 554.394C470.92 604.226 468.061 662.11 429.563 700.579C387.117 742.992 330.882 772.336 270.992 776.031C208.937 779.86 146.482 759.404 97.5368 721.065C49.6584 683.562 19.3613 627.761 5.96885 568.436C-6.59609 512.776 5.41886 455.962 25.6465 402.607C45.0278 351.485 77.772 308.857 118.294 272.154C163.412 231.288 211.209 168.91 270.992 180.385Z" fill="url(#paint2_linear)"/>
<path fill-rule="evenodd" clip-rule="evenodd" d="M1062.83 227.945C1143.68 234.161 1183.27 320.68 1232.15 385.372C1278.44 446.639 1342.31 505.568 1329.83 581.334C1316.76 660.644 1245.68 714.872 1172.41 747.923C1101.69 779.819 1019.02 789.851 951.252 752.1C887.215 716.427 867.758 640.105 850.832 568.783C833.639 496.332 818.055 419.784 857.384 356.554C902.281 284.374 978.081 221.427 1062.83 227.945Z" fill="url(#paint3_linear)"/>
<path fill-rule="evenodd" clip-rule="evenodd" d="M861.422 256.915C940.216 257.084 1023.82 277.678 1069.38 341.963C1112.84 403.279 1094.48 484.038 1073.56 556.223C1054.57 621.762 1019.1 678.921 961.255 715.109C892.699 757.995 812.873 793.856 736.591 767.018C651.446 737.062 582.108 664.099 564.595 575.553C547.558 489.42 592.496 405.316 652.344 341.07C706.219 283.236 782.382 256.746 861.422 256.915Z" fill="url(#paint4_linear)"/>
<path fill-rule="evenodd" clip-rule="evenodd" d="M597.2 207.659C679.56 205.072 754.495 257.535 800.08 326.178C841.31 388.263 840.388 467.415 816.61 538.048C795.773 599.946 739.171 633.549 684.552 669.357C612.409 716.654 543.013 797.248 460.723 771.366C372.557 743.636 324.445 644.482 313.626 552.693C303.986 470.913 357.409 402.056 409.695 338.439C460.6 276.501 517.067 210.176 597.2 207.659Z" fill="url(#paint5_linear)"/>
<defs>
<linearGradient id="paint0_linear" x1="1274.78" y1="261.244" x2="1274.78" y2="776.704" gradientUnits="userSpaceOnUse">
<stop stop-color="#F9F9F9"/>
<stop offset="1" stop-color="#AA3300"/>
</linearGradient>
<linearGradient id="paint1_linear" x1="491.091" y1="0.664062" x2="491.091" y2="512.386" gradientUnits="userSpaceOnUse">
<stop stop-color="#F9F9F9"/>
<stop offset="1" stop-color="#AA3300"/>
</linearGradient>
<linearGradient id="paint2_linear" x1="287.016" y1="178.999" x2="287.016" y2="776.487" gradientUnits="userSpaceOnUse">
<stop stop-color="#F9F9F9"/>
<stop offset="1" stop-color="#AA3300"/>
</linearGradient>
<linearGradient id="paint3_linear" x1="1082.1" y1="227.479" x2="1082.1" y2="776.398" gradientUnits="userSpaceOnUse">
<stop stop-color="#F9F9F9"/>
<stop offset="1" stop-color="#AA3300"/>
</linearGradient>
<linearGradient id="paint4_linear" x1="828.422" y1="256.914" x2="828.422" y2="776.277" gradientUnits="userSpaceOnUse">
<stop stop-color="#F9F9F9"/>
<stop offset="1" stop-color="#AA3300"/>
</linearGradient>
<linearGradient id="paint5_linear" x1="572.784" y1="207.567" x2="572.784" y2="776.371" gradientUnits="userSpaceOnUse">
<stop stop-color="#F9F9F9"/>
<stop offset="1" stop-color="#AA3300"/>
</linearGradient>
</defs>
</svg>
