<svg width="1463" height="677" viewBox="0 0 1463 677" fill="none" xmlns="http://www.w3.org/2000/svg">
<path fill-rule="evenodd" clip-rule="evenodd" d="M621.096 149.187C662.194 147.779 695.552 176.27 734.425 189.682C774.417 203.479 821.808 199.063 851.887 228.812C884.671 261.237 906.725 308.722 901.056 354.484C895.518 399.186 848.523 423.607 823.144 460.821C795.043 502.029 792.454 569.733 744.623 583.873C696.874 597.988 658.498 541.361 612.137 523.198C567.341 505.647 504.28 520.005 478.28 479.523C452.224 438.956 492.271 387.484 494.024 339.302C495.781 291.05 461.691 238.245 488.521 198.102C515.353 157.959 572.839 150.839 621.096 149.187Z" fill="url(#paint0_linear)"/>
<path fill-rule="evenodd" clip-rule="evenodd" d="M562.853 210.936C599.309 213.031 636.135 207.93 668.915 224.018C706.151 242.294 746.7 266.689 757.851 306.642C768.928 346.326 740.731 384.674 724.302 422.458C709.611 456.249 695.174 489.735 667.611 514.187C637.773 540.658 602.504 561.351 562.853 565.691C520.156 570.364 472.728 566.911 439.994 539.101C407.961 511.888 405.656 465.101 396.232 424.139C387.71 387.093 379.11 350.148 388.02 313.194C397.471 273.993 412.742 231.656 447.549 211.298C481.558 191.407 523.519 208.676 562.853 210.936Z" fill="url(#paint1_linear)"/>
<path fill-rule="evenodd" clip-rule="evenodd" d="M884.739 150.497C926.919 120.966 983.94 151.591 1035.43 151.169C1083.95 150.772 1134.16 126.096 1177.41 148.098C1222.19 170.881 1243.74 221.086 1263.6 267.242C1284.32 315.404 1310.8 368.291 1293.42 417.758C1276.28 466.544 1222.16 489.353 1176.83 514.233C1138.79 535.111 1097.85 544.816 1054.64 548.818C1009.37 553.011 963.37 556.772 922.039 537.833C876.138 516.799 830.144 485.59 813.01 438.095C795.962 390.84 821.383 341.258 833.539 292.515C846.023 242.464 842.482 180.082 884.739 150.497Z" fill="url(#paint2_linear)"/>
<path fill-rule="evenodd" clip-rule="evenodd" d="M1222.6 78.3068C1270.08 81.3147 1307.24 116.117 1344.34 145.901C1379.59 174.194 1412.04 204.749 1431.16 245.706C1452.38 291.184 1471.67 341.68 1458.3 390.054C1444.69 439.279 1404.41 477.334 1360.11 502.746C1318.81 526.439 1270.15 522.835 1222.6 525.265C1171.98 527.852 1117.87 543.534 1074.48 517.343C1029.88 490.43 1005.72 438.447 994.486 387.589C983.936 339.83 997.656 291.773 1014.5 245.857C1030.75 201.582 1052.37 159.311 1089.11 129.734C1127.18 99.0778 1173.81 75.2166 1222.6 78.3068Z" fill="url(#paint3_linear)"/>
<path fill-rule="evenodd" clip-rule="evenodd" d="M399.666 24.7316C444.16 28.4752 482.274 52.6491 518.92 78.1594C556.345 104.213 596.497 130.456 612.746 173.063C629.402 216.736 620.702 264.982 607.242 309.743C593.516 355.386 574.626 402.03 535.644 429.455C496.938 456.686 446.941 457.982 399.666 455.78C354.338 453.668 310.454 442.213 272.592 417.201C233.353 391.279 199.001 356.92 183.052 312.68C166.787 267.562 169.706 218.007 184.314 172.325C198.975 126.482 225.183 83.9952 264.884 56.7856C303.932 30.0235 352.494 20.7627 399.666 24.7316Z" fill="url(#paint4_linear)"/>
<path fill-rule="evenodd" clip-rule="evenodd" d="M244.962 136.558C294.093 129.913 346.533 133.229 388.111 160.232C430.792 187.952 460.238 234.025 471.467 283.664C482.132 330.809 462.321 377.06 447.574 423.092C432.757 469.343 423.204 520.128 385.792 551.094C347.277 582.973 294.923 592.688 244.962 590.794C196.347 588.95 151.738 568.317 111.686 540.699C70.7296 512.458 32.113 478.681 14.7586 432.057C-3.03752 384.247 -6.26131 328.818 15.6756 282.76C36.5093 239.018 86.5804 221.541 127.432 195.493C165.312 171.339 200.442 142.58 244.962 136.558Z" fill="url(#paint5_linear)"/>
<path fill-rule="evenodd" clip-rule="evenodd" d="M855.523 112.577C904.653 105.931 957.093 109.247 998.672 136.251C1041.35 163.97 1070.8 210.044 1082.03 259.682C1092.69 306.827 1072.88 353.079 1058.13 399.111C1043.32 445.361 1033.77 496.146 996.352 527.113C957.838 558.991 905.483 568.707 855.523 566.812C806.907 564.969 762.298 544.335 722.246 516.717C681.29 488.476 642.674 454.7 625.319 408.076C607.523 360.265 604.299 304.836 626.236 258.778C647.07 215.037 697.141 197.56 737.993 171.511C775.873 147.357 811.003 118.599 855.523 112.577Z" fill="url(#paint6_linear)"/>
<defs>
<linearGradient id="paint0_linear" x1="614.781" y1="139.876" x2="741.229" y2="584.841" gradientUnits="userSpaceOnUse">
<stop stop-color="#ECECEC"/>
<stop offset="1" stop-color="#A62E00"/>
</linearGradient>
<linearGradient id="paint1_linear" x1="572.308" y1="201.829" x2="572.308" y2="567.429" gradientUnits="userSpaceOnUse">
<stop stop-color="#ECECEC"/>
<stop offset="1" stop-color="#A62E00"/>
</linearGradient>
<linearGradient id="paint2_linear" x1="883.6" y1="151.205" x2="1183.91" y2="525.171" gradientUnits="userSpaceOnUse">
<stop stop-color="#ECECEC"/>
<stop offset="1" stop-color="#A62E00"/>
</linearGradient>
<linearGradient id="paint3_linear" x1="1226.75" y1="78.0371" x2="1226.75" y2="532.278" gradientUnits="userSpaceOnUse">
<stop stop-color="#ECECEC"/>
<stop offset="1" stop-color="#A62E00"/>
</linearGradient>
<linearGradient id="paint4_linear" x1="396.969" y1="23.8525" x2="396.969" y2="456.503" gradientUnits="userSpaceOnUse">
<stop stop-color="#ECECEC"/>
<stop offset="1" stop-color="#A62E00"/>
</linearGradient>
<linearGradient id="paint5_linear" x1="237.399" y1="133.62" x2="237.399" y2="591.02" gradientUnits="userSpaceOnUse">
<stop stop-color="#ECECEC"/>
<stop offset="1" stop-color="#A62E00"/>
</linearGradient>
<linearGradient id="paint6_linear" x1="847.96" y1="109.639" x2="847.96" y2="567.039" gradientUnits="userSpaceOnUse">
<stop stop-color="#ECECEC"/>
<stop offset="1" stop-color="#A62E00"/>
</linearGradient>
</defs>
</svg>
