<svg width="1882" height="753" viewBox="0 0 1882 753" fill="none" xmlns="http://www.w3.org/2000/svg">
<path fill-rule="evenodd" clip-rule="evenodd" d="M510.795 233.518C562.349 232.256 623.424 221.566 659.678 258.241C695.914 294.898 680.238 355.845 682.615 407.333C684.326 444.41 674.191 478.37 671.546 515.392C667.693 569.342 704.52 638.11 663.604 673.484C623.796 707.898 562.516 664.057 510.795 654.367C470.383 646.795 431.581 641.063 394.604 623.085C349.824 601.313 286.412 588.236 275.062 539.756C263.539 490.536 328.434 457.057 344.514 409.133C360.329 362 332.934 301.503 367.115 265.403C401.691 228.886 460.521 234.749 510.795 233.518Z" fill="url(#paint0_linear)"/>
<path fill-rule="evenodd" clip-rule="evenodd" d="M441.993 264.931C489.673 267.123 511.768 325.222 551.574 351.561C594.282 379.82 657.738 379.455 682.675 424.184C708.483 470.475 693.975 528.542 678.507 579.234C662.803 630.7 639.349 682.539 594.685 712.549C550.774 742.053 494.265 746.296 441.993 738.151C394.887 730.81 352.567 704.95 320.358 669.802C292.223 639.1 285.665 596.866 275.513 556.479C266.13 519.152 255.12 481.976 263.713 444.459C272.872 404.474 295.933 370.242 324.837 341.135C358.487 307.249 394.289 262.737 441.993 264.931Z" fill="url(#paint1_linear)"/>
<path fill-rule="evenodd" clip-rule="evenodd" d="M1449.29 1.53871C1502.81 -5.39667 1561.62 22.7987 1593.23 66.5396C1622.94 107.646 1594.79 164.624 1603.28 214.626C1609.92 253.759 1645.97 287.007 1637.21 325.721C1628.26 365.334 1591.25 390.96 1558.09 414.417C1525.33 437.599 1489.19 454.345 1449.29 458.681C1405.53 463.436 1358.75 464.055 1321.83 440.091C1284.02 415.548 1267.25 371.065 1250.1 329.381C1231.49 284.175 1202.68 235.92 1218.82 189.777C1234.91 143.786 1292.38 131.457 1330.12 100.636C1371.13 67.1345 1396.77 8.3446 1449.29 1.53871Z" fill="url(#paint2_linear)"/>
<path fill-rule="evenodd" clip-rule="evenodd" d="M1131.76 60.3509C1178.95 61.9909 1229.51 22.0924 1269.33 47.4569C1308.98 72.7189 1305.38 131.212 1315.19 177.197C1323.89 217.961 1329.69 257.791 1323.01 298.935C1315.22 346.87 1307.13 396.966 1273.77 432.258C1236.71 471.464 1185.71 500.552 1131.76 501.258C1077.52 501.968 1023.91 475.794 987.025 436.012C953.4 399.743 960.767 344.304 943.339 298.019C924.621 248.307 872.581 207.828 881.38 155.442C890.337 102.112 936.518 56.8457 987.072 37.6461C1033.86 19.878 1081.75 58.6125 1131.76 60.3509Z" fill="url(#paint3_linear)"/>
<path fill-rule="evenodd" clip-rule="evenodd" d="M807.464 132.72C845.115 133.851 875.694 157.686 909.887 173.487C954.685 194.19 1014.66 196.156 1038.38 239.431C1062.46 283.353 1044.48 338.905 1026.1 385.5C1008.57 429.953 977.77 467.642 937.961 494.074C899.38 519.69 853.069 538.718 807.464 530.667C764.687 523.115 741.538 479.099 706.638 453.236C672.226 427.733 627.286 416.721 604.646 380.361C578.332 338.098 552.334 283.604 572.745 238.196C593.217 192.653 654.923 187.66 700.468 167.193C735.504 151.449 769.071 131.566 807.464 132.72Z" fill="url(#paint4_linear)"/>
<path fill-rule="evenodd" clip-rule="evenodd" d="M1657.52 253.871C1710.18 257.068 1757.13 284.826 1797.7 318.549C1836.09 350.472 1872.86 389.718 1880.3 439.093C1887.32 485.621 1858.85 528.458 1835.49 569.305C1816.49 602.536 1791.05 630.211 1759.02 651.18C1728.36 671.253 1692.89 676.224 1657.52 685.824C1606.36 699.711 1551.87 746.657 1506.16 719.818C1461.5 693.602 1472.99 624.948 1466.36 573.592C1460.99 532.02 1465.68 492.541 1471.47 451.026C1478.73 398.959 1468.33 338.977 1504.41 300.743C1541.97 260.951 1602.91 250.555 1657.52 253.871Z" fill="url(#paint5_linear)"/>
<path fill-rule="evenodd" clip-rule="evenodd" d="M826.748 260.208C872.998 269.992 884.722 332.281 923.958 358.65C965.831 386.792 1031.68 374.799 1059.69 416.76C1088.75 460.29 1083.4 520.868 1064.94 569.84C1046.91 617.653 1005.92 652.734 961.317 677.667C920.476 700.496 872.989 710.117 826.748 702.984C784.745 696.506 754.008 664.863 719.299 640.339C684.004 615.399 643.429 596.655 622.642 558.766C599.113 515.881 583.719 464.887 597.249 417.879C610.955 370.259 653.385 338.112 694.229 310.052C734.103 282.657 779.417 250.195 826.748 260.208Z" fill="url(#paint6_linear)"/>
<path fill-rule="evenodd" clip-rule="evenodd" d="M1414.91 282.015C1468.05 272.389 1518.01 213.444 1566.49 237.239C1612.99 260.062 1604.13 330.128 1615.78 380.601C1626.26 425.972 1640.24 470.427 1630.87 516.038C1620.66 565.714 1598.83 613.185 1561.04 647.005C1520.59 683.205 1469.19 708.724 1414.91 709.311C1360.31 709.901 1308.73 684.747 1266.46 650.187C1225.92 617.039 1195.17 572.024 1184.33 520.789C1174.15 472.67 1187.57 423.224 1209.08 378.99C1228.38 339.274 1258.64 304.586 1298.59 285.764C1334.56 268.815 1375.78 289.102 1414.91 282.015Z" fill="url(#paint7_linear)"/>
<path fill-rule="evenodd" clip-rule="evenodd" d="M1076.84 254.075C1125.92 246.718 1165.7 293.003 1203.51 325.165C1238.5 354.94 1267.03 389.647 1285.59 431.679C1306.02 477.93 1331.46 529.092 1314.64 576.773C1297.89 624.226 1241.77 640.904 1201.25 670.741C1160.38 700.833 1126.97 759.793 1076.84 751.875C1025.31 743.736 1010.88 676.023 978.045 635.486C955.565 607.729 929.765 584.62 915.03 552.082C898.585 515.77 876.941 476.468 888.796 438.409C900.683 400.25 946.509 387.384 975.049 359.406C1010.79 324.369 1027.34 261.494 1076.84 254.075Z" fill="url(#paint8_linear)"/>
<path fill-rule="evenodd" clip-rule="evenodd" d="M199.66 192.587C269.544 187.718 346.409 208.329 385.161 266.687C421.626 321.601 387.039 389.784 373.439 454.284C359.339 521.154 364.929 601.245 306.98 637.472C244.6 676.468 160.93 664.028 97.4822 626.794C39.4176 592.719 14.1 525.875 3.52085 459.387C-6.05149 399.226 7.88447 339.54 43.9669 290.458C82.1674 238.496 135.323 197.069 199.66 192.587Z" fill="url(#paint9_linear)"/>
<defs>
<linearGradient id="paint0_linear" x1="478.851" y1="231.108" x2="478.851" y2="686.459" gradientUnits="userSpaceOnUse">
<stop stop-color="#F7F7F7"/>
<stop offset="1" stop-color="#941D00"/>
</linearGradient>
<linearGradient id="paint1_linear" x1="478.712" y1="264.853" x2="478.712" y2="741.798" gradientUnits="userSpaceOnUse">
<stop stop-color="#F7F7F7"/>
<stop offset="1" stop-color="#941D00"/>
</linearGradient>
<linearGradient id="paint2_linear" x1="1426.33" y1="0.492187" x2="1426.33" y2="461.305" gradientUnits="userSpaceOnUse">
<stop stop-color="#F7F7F7"/>
<stop offset="1" stop-color="#941D00"/>
</linearGradient>
<linearGradient id="paint3_linear" x1="1103.15" y1="32.9941" x2="1103.15" y2="501.272" gradientUnits="userSpaceOnUse">
<stop stop-color="#F7F7F7"/>
<stop offset="1" stop-color="#941D00"/>
</linearGradient>
<linearGradient id="paint4_linear" x1="807.705" y1="132.672" x2="807.705" y2="532.536" gradientUnits="userSpaceOnUse">
<stop stop-color="#F7F7F7"/>
<stop offset="1" stop-color="#941D00"/>
</linearGradient>
<linearGradient id="paint5_linear" x1="1672.69" y1="253.295" x2="1672.69" y2="727.959" gradientUnits="userSpaceOnUse">
<stop stop-color="#F7F7F7"/>
<stop offset="1" stop-color="#941D00"/>
</linearGradient>
<linearGradient id="paint6_linear" x1="836.165" y1="258.351" x2="836.165" y2="705.297" gradientUnits="userSpaceOnUse">
<stop stop-color="#F7F7F7"/>
<stop offset="1" stop-color="#941D00"/>
</linearGradient>
<linearGradient id="paint7_linear" x1="1407.41" y1="231.625" x2="1407.41" y2="709.321" gradientUnits="userSpaceOnUse">
<stop stop-color="#F7F7F7"/>
<stop offset="1" stop-color="#941D00"/>
</linearGradient>
<linearGradient id="paint8_linear" x1="1102.75" y1="253.295" x2="1102.75" y2="752.6" gradientUnits="userSpaceOnUse">
<stop stop-color="#F7F7F7"/>
<stop offset="1" stop-color="#941D00"/>
</linearGradient>
<linearGradient id="paint9_linear" x1="200.973" y1="191.899" x2="200.973" y2="661.365" gradientUnits="userSpaceOnUse">
<stop stop-color="#F7F7F7"/>
<stop offset="1" stop-color="#941D00"/>
</linearGradient>
</defs>
</svg>
