<svg width="1870" height="937" viewBox="0 0 1870 937" fill="none" xmlns="http://www.w3.org/2000/svg">
<path fill-rule="evenodd" clip-rule="evenodd" d="M307.045 344.925C233.086 326.665 138.882 289.379 84.1149 342.33C27.4539 397.112 87.0206 495.365 71.5188 572.639C58.8559 635.762 -13.1004 685.641 2.72501 748.046C18.5641 810.504 88.4134 842.499 146.843 869.665C196.86 892.921 252.638 880.451 307.045 889.537C377.323 901.274 444.178 953.92 511.493 930.565C584.239 905.325 649.341 840.841 664.809 765.411C679.998 691.337 627.499 622.33 587.909 557.908C556.533 506.854 509.911 471.872 462.163 435.664C413.234 398.561 366.66 359.643 307.045 344.925Z" fill="url(#paint0_linear)"/>
<path fill-rule="evenodd" clip-rule="evenodd" d="M1302.72 23.9169C1239.55 34.8565 1177.41 54.7359 1130.57 98.5123C1087.22 139.04 1075.53 199.261 1055.41 255.093C1034.47 313.174 991.485 371.66 1011 430.235C1030.49 488.758 1099.61 510.234 1151.5 543.578C1199.91 574.681 1245.27 620.856 1302.72 617.671C1359.4 614.528 1400.66 566.127 1442.22 527.459C1478.84 493.385 1511.28 455.803 1527.54 408.497C1544.01 360.559 1534.44 310.981 1534.02 260.294C1533.37 181.641 1579.43 86.5205 1524.42 30.3028C1471.42 -23.8641 1377.39 10.9842 1302.72 23.9169Z" fill="url(#paint1_linear)"/>
<path fill-rule="evenodd" clip-rule="evenodd" d="M1544.09 217.584C1469.71 231.861 1467.33 347.104 1405.06 390.233C1340.12 435.222 1219.49 393.624 1186.39 465.363C1154.57 534.328 1246.16 598.926 1276.69 668.47C1303.07 728.546 1306.52 798.327 1352.93 844.703C1404.1 895.834 1471.89 931.21 1544.09 935.665C1618.9 940.281 1694.19 915.621 1753.2 869.401C1810.92 824.188 1847.44 756.919 1863.59 685.399C1878.74 618.298 1864.25 549.806 1839.87 485.484C1816.5 423.854 1777.03 372.464 1728.18 328.217C1673.78 278.951 1616.16 203.751 1544.09 217.584Z" fill="url(#paint2_linear)"/>
<path fill-rule="evenodd" clip-rule="evenodd" d="M589.488 274.918C492.031 282.412 444.294 386.715 385.372 464.704C329.569 538.565 252.567 609.607 267.618 700.946C283.374 796.559 369.063 861.932 457.394 901.777C542.641 940.229 642.311 952.324 724.007 906.813C801.207 863.808 824.663 771.798 845.067 685.816C865.795 598.472 884.582 506.19 837.169 429.963C783.044 342.946 691.663 267.061 589.488 274.918Z" fill="url(#paint3_linear)"/>
<path fill-rule="evenodd" clip-rule="evenodd" d="M832.299 309.845C737.309 310.048 636.522 334.876 581.595 412.375C529.204 486.294 551.342 583.652 576.558 670.675C599.453 749.686 642.207 818.594 711.946 862.22C794.593 913.921 890.827 957.153 982.788 924.799C1085.43 888.685 1169.03 800.725 1190.14 693.979C1210.68 590.141 1156.5 488.749 1084.35 411.298C1019.4 341.576 927.585 309.641 832.299 309.845Z" fill="url(#paint4_linear)"/>
<path fill-rule="evenodd" clip-rule="evenodd" d="M1150.83 250.466C1051.54 247.347 961.205 310.594 906.25 393.346C856.544 468.193 857.657 563.614 886.322 648.766C911.442 723.386 979.679 763.897 1045.52 807.065C1132.5 864.083 1216.16 961.243 1315.36 930.042C1421.65 896.612 1479.65 777.077 1492.69 666.421C1504.31 567.832 1439.91 484.821 1376.88 408.128C1315.51 333.459 1247.44 253.5 1150.83 250.466Z" fill="url(#paint5_linear)"/>
<defs>
<linearGradient id="paint0_linear" x1="333.978" y1="315.061" x2="333.978" y2="936.472" gradientUnits="userSpaceOnUse">
<stop stop-color="#F9F9F9"/>
<stop offset="1" stop-color="#AA3300"/>
</linearGradient>
<linearGradient id="paint1_linear" x1="1278.75" y1="0.921875" x2="1278.75" y2="617.827" gradientUnits="userSpaceOnUse">
<stop stop-color="#F9F9F9"/>
<stop offset="1" stop-color="#AA3300"/>
</linearGradient>
<linearGradient id="paint2_linear" x1="1524.77" y1="215.914" x2="1524.77" y2="936.215" gradientUnits="userSpaceOnUse">
<stop stop-color="#F9F9F9"/>
<stop offset="1" stop-color="#AA3300"/>
</linearGradient>
<linearGradient id="paint3_linear" x1="566.268" y1="274.357" x2="566.268" y2="936.105" gradientUnits="userSpaceOnUse">
<stop stop-color="#F9F9F9"/>
<stop offset="1" stop-color="#AA3300"/>
</linearGradient>
<linearGradient id="paint4_linear" x1="872.082" y1="309.844" x2="872.082" y2="935.961" gradientUnits="userSpaceOnUse">
<stop stop-color="#F9F9F9"/>
<stop offset="1" stop-color="#AA3300"/>
</linearGradient>
<linearGradient id="paint5_linear" x1="1180.27" y1="250.355" x2="1180.27" y2="936.076" gradientUnits="userSpaceOnUse">
<stop stop-color="#F9F9F9"/>
<stop offset="1" stop-color="#AA3300"/>
</linearGradient>
</defs>
</svg>
