<svg id="Ebene_1" data-name="Ebene 1" xmlns="http://www.w3.org/2000/svg" viewBox="0 0 121.284 122.00126"><path d="M10.603,60.406a2.319,2.319,0,1,1-2.319,2.319A2.32188,2.32188,0,0,1,10.603,60.406Z" transform="translate(0 0.00026)"/><path d="M28.015,62.193a1.4255,1.4255,0,1,1-1.426,1.426A1.42714,1.42714,0,0,1,28.015,62.193Z" transform="translate(0 0.00026)"/><path d="M88.533,53.618c1.108-3.012.141-6.206-2.131-7.372a65.74009,65.74009,0,0,1-2.215,11.431A6.17223,6.17223,0,0,0,88.533,53.618Z" transform="translate(0 0.00026)"/><path d="M74.75,17.606c1.625,1.78,4.01,2.64,7.419,2.692a21.79887,21.79887,0,0,1,2.974.024l.02.002a12.2729,12.2729,0,0,1,3.535.764,7.87974,7.87974,0,0,0-5.805-5.897C79.201,14.155,76.03,16.467,74.75,17.606Z" transform="translate(0 0.00026)"/><path d="M68.341,13.923c2.639,1.342,6.325.464,9.628-.493a9.22243,9.22243,0,0,1,5.466-.164,11.84122,11.84122,0,0,1,1.252.431c-1.446-2.548-4.014-5.807-7.629-5.601C72.334,8.362,69.401,12.234,68.341,13.923Z" transform="translate(0 0.00026)"/><path d="M63.383,11.143a.47844.47844,0,0,0-.015.416,1.70658,1.70658,0,0,0,.862.831,3.79469,3.79469,0,0,0,2.91-.287c1.529-2.191,4.751-5.72,9.804-6.005.03-.002.059,0,.089-.001a6.77753,6.77753,0,0,0-5.609-2.103C66.143,4.191,63.409,11.074,63.383,11.143Z" transform="translate(0 0.00026)"/><path d="M87.415,22.748a10.55557,10.55557,0,0,1,1.078,4.924c0,1.84-1.476,3.798-3.038,5.87-1.552,2.06-3.157,4.189-3.153,5.961a4.36982,4.36982,0,0,0,3.435,4.395h.001a5.91015,5.91015,0,0,1,1.07.304,6.207,6.207,0,0,1,2.803,2.275,4.54114,4.54114,0,0,0,.589-1.591,5.606,5.606,0,0,0-.512-2.675A8.70867,8.70867,0,0,1,89,38.275a7.3034,7.3034,0,0,1,1.701-3.516,6.95114,6.95114,0,0,0,1.67-3.523c.372-3.755-.917-6.454-3.83-8.021A6.53974,6.53974,0,0,0,87.415,22.748Z" transform="translate(0 0.00026)"/><path d="M84.883,30.955a7.0375,7.0375,0,0,0,1.611-3.283c0-3.451-1.38-4.958-1.873-5.387a25.3082,25.3082,0,0,0-5.47.38c.291,1.6,1.428,2.789,2.717,4.135A13.3198,13.3198,0,0,1,84.883,30.955Z" transform="translate(0 0.00026)"/><path d="M99.53,36.373c-.054,2.285-.109,4.648-.087,7.047.016.152.554,5.169,10.66,5.169s10.644-5.018,10.662-5.231c.02-2.338-.036-4.701-.09-6.986-.123-5.227-.241-10.221.609-14.73-2.04,2.923-3.202,8.194-3.202,14.919a1.00036,1.00036,0,0,1-1,1h-3.937a1,1,0,0,1-.988-1.155c.569-3.625-.701-11.203-2.106-18.937-1.563,7.643-3.246,16.089-2.079,18.681a1.0001,1.0001,0,0,1-.912,1.411h-3.894a1.00036,1.00036,0,0,1-1-1c0-6.739-1.18-12.021-3.25-14.943C99.771,26.134,99.653,31.137,99.53,36.373Zm3.636,2.716h13.958a1,1,0,0,1,0,2H103.166a1,1,0,0,1,0-2Zm0,4.273h13.958a1,1,0,0,1,0,2H103.166a1,1,0,0,1,0-2Z" transform="translate(0 0.00026)"/><path d="M107.014,109.149v-8.401a6.72688,6.72688,0,0,0-2.744-1.773,4.95062,4.95062,0,0,0-3.338.162c-.486,4.839-.132,8.714,1.049,11.569a4.18862,4.18862,0,0,1,3.243-1.557Z" transform="translate(0 0.00026)"/><path d="M105.224,115.575h7.234a2.213,2.213,0,1,0,0-4.426h-.259l-.005.001h-4.18l-.005-.001h-2.785a2.213,2.213,0,1,0,0,4.426Z" transform="translate(0 0.00026)"/><path d="M110.102,50.59c-.374,0-.736-.007-1.088-.019v58.578h2.18V50.57Q110.6645,50.5895,110.102,50.59Z" transform="translate(0 0.00026)"/><path d="M117.643,99.469c.193-2.019.449-4.072.705-6.067.24-1.869.488-3.801.681-5.722.057-.323,1.046-5.955-3.456-8.292a4.14063,4.14063,0,0,0-2.379-.512v22.436A18.90429,18.90429,0,0,0,117.643,99.469Z" transform="translate(0 0.00026)"/><path d="M59.608,13.814a1.6538,1.6538,0,0,0,1.277.375,3.01706,3.01706,0,0,0,1.418-.738,3.358,3.358,0,0,1-.805-1.18,2.42862,2.42862,0,0,1,.04-1.901c.096-.251,2.555-6.41,7.675-8A10.45474,10.45474,0,0,0,62.58.005c-1.855.063-2.897,2.727-3.259,3.87C57.975,8.129,58.539,13.006,59.608,13.814Z" transform="translate(0 0.00026)"/><path d="M37.368,22.284c-.492.428-1.874,1.935-1.874,5.388a7.01825,7.01825,0,0,0,1.605,3.274,14.08015,14.08015,0,0,1,3.097-4.359c1.232-1.322,2.323-2.492,2.628-3.924A25.17764,25.17764,0,0,0,37.368,22.284Z" transform="translate(0 0.00026)"/><path d="M39.54,44.402a6.51651,6.51651,0,0,1,2.448,1.25,8.85564,8.85564,0,0,1,2.126,3.16,10.01134,10.01134,0,0,1,3.753-.242,8.25541,8.25541,0,0,1,3.465,1.495,12.955,12.955,0,0,1,9.662-3.908,12.955,12.955,0,0,1,9.662,3.908,8.24953,8.24953,0,0,1,3.465-1.495,9.96642,9.96642,0,0,1,3.753.242A8.85577,8.85577,0,0,1,80,45.652a6.51461,6.51461,0,0,1,2.448-1.249,6.23392,6.23392,0,0,1-2.145-4.894c-.006-2.21,1.476-4.386,3.054-6.5-.237-1.987-1.542-3.371-2.934-4.825-1.644-1.717-3.344-3.494-3.344-6.327a.9919.9919,0,0,1,.076-.368,9.30651,9.30651,0,0,1-4.566-3.375.99877.99877,0,0,1,.063-1.252c.026-.029.133-.146.307-.318a9.179,9.179,0,0,1-6.562-1.48.995.995,0,0,1-.367-.549,6.38268,6.38268,0,0,1-.748.048,5.45175,5.45175,0,0,1-1.122-.115,5.47227,5.47227,0,0,1-2.859,1.692.92131.92131,0,0,1-.203.063c-.152.016-.698.067-1.434.067a11.30044,11.30044,0,0,1-3.663-.548,6.41684,6.41684,0,0,1-3.176.908,6.353,6.353,0,0,1-3.017-.809,3.21579,3.21579,0,0,1-.241.255,4.76729,4.76729,0,0,1-3.065.954,2.47041,2.47041,0,0,1,.216,1.329c-.162,1.116-1.229,1.952-2.49,2.563a.99111.99111,0,0,1,.682.935c0,2.608-1.652,4.38-3.25,6.094-1.438,1.543-2.787,3.012-3.028,5.058,1.578,2.114,3.06,4.29,3.054,6.5A6.24171,6.24171,0,0,1,39.54,44.402Zm11.454,2.38a2,2,0,1,1,2-2A1.99945,1.99945,0,0,1,50.994,46.782Zm20,0a2,2,0,1,1,2-2A1.99945,1.99945,0,0,1,70.994,46.782ZM68.82,33.781a8.94806,8.94806,0,0,1,6.026,1.168.99935.99935,0,1,1-1.151,1.634,7.03063,7.03063,0,0,0-4.532-.832.99982.99982,0,1,1-.343-1.97Zm-12.273-8.95h8.936a1,1,0,0,1,0,2H56.547a1,1,0,0,1,0-2Zm-1.548,3.866H66.994a1,1,0,0,1,0,2H54.999a1,1,0,0,1,0-2Zm-7.858,6.252a8.92543,8.92543,0,0,1,6.022-1.168.99973.99973,0,0,1-.342,1.97,6.99249,6.99249,0,0,0-4.529.832.99934.99934,0,1,1-1.151-1.634Z" transform="translate(0 0.00026)"/><path d="M33.455,53.618A6.16424,6.16424,0,0,0,37.8,57.675a65.82684,65.82684,0,0,1-2.214-11.43C33.314,47.411,32.347,50.605,33.455,53.618Z" transform="translate(0 0.00026)"/><path d="M68.1,64.101a1.00036,1.00036,0,0,1,1,1c0,9.872,1.795,12.904,3.874,16.415a29.558,29.558,0,0,1,3.46,7.704c1.459-.346,4.443-1.335,5.835-3.84,1.445-2.6.431-5.703-.097-6.967l-.026.002a5.79091,5.79091,0,0,1-4.34-2.354c-3.214-3.769-5.258-12.271-3.051-18.447a.99983.99983,0,1,1,1.883.673c-1.92,5.374-.164,13.131,2.689,16.476.746.874,1.922,1.86,3.276,1.608.009-.002.017.002.026,0,.016-.003.031-.009.047-.011l.043-.007.009-.001c.446-.072,3.692-.744,3.927-5.137.126-2.372-1.318-4.257-2.714-6.081-1.583-2.067-3.22-4.204-2.068-6.801l.005-.007a61.09745,61.09745,0,0,0,2.539-12.317,6.65321,6.65321,0,0,0-3.087,1.133,7.70021,7.70021,0,0,0-1.873,3.163,1.00294,1.00294,0,0,1-1.314.665,8.61748,8.61748,0,0,0-3.722-.427,6.71684,6.71684,0,0,0-3.152,1.586,1.004,1.004,0,0,1-1.415-.034,11.21657,11.21657,0,0,0-8.861-3.943,11.21658,11.21658,0,0,0-8.861,3.943.99782.99782,0,0,1-.702.31h-.022a.998.998,0,0,1-.692-.279,6.72046,6.72046,0,0,0-3.15-1.583,8.57524,8.57524,0,0,0-3.724.427,1.001,1.001,0,0,1-1.312-.667,7.69057,7.69057,0,0,0-1.872-3.161,6.70351,6.70351,0,0,0-3.087-1.132A60.99028,60.99028,0,0,0,40.11,58.325l.005.007c1.152,2.597-.485,4.734-2.068,6.801-1.396,1.823-2.841,3.709-2.714,6.081a5.28669,5.28669,0,0,0,2.273,4.464C37.11,72.481,39.08,69.454,41,66.509c2.206-3.382,4.487-6.88,3.502-10.875a.99961.99961,0,0,1,1.941-.479c1.193,4.837-1.443,8.879-3.769,12.446-1.754,2.69-3.312,5.09-3.12,7.443a27.93276,27.93276,0,0,1,5.271-4.761c4.394-3.325,8.188-6.197,6.239-14.314a1.00014,1.00014,0,0,1,1.945-.467c2.254,9.39-2.438,12.941-6.977,16.376-2.35,1.779-4.571,3.46-5.953,5.955-.046.088-2.201,4.231-.36,7.544,1.396,2.513,4.395,3.501,5.849,3.843a31.36944,31.36944,0,0,1,5.122-9.4c3.225-4.511,6.56-9.175,6.56-18.766a1,1,0,0,1,2,0c0,10.232-3.524,15.162-6.933,19.929-2.099,2.936-4.081,5.709-5.077,9.636l-.003.006v.006c-.041.156-.979,3.925,1.85,5.951a4.9099,4.9099,0,0,0,4.984.508c-.733-2.815-.719-7.264.068-12.459a1.00031,1.00031,0,1,1,1.978.3c-.809,5.335-.779,9.941.08,12.319.004.01.001.021.005.031.003.008.01.013.013.021.728,2.42,3.283,2.761,4.768,2.731,1.498.03,4.066-.31,4.793-2.731.003-.008.01-.014.013-.022.003-.01.001-.02.004-.03,1.367-3.788.679-14.035-2.816-23.987a1,1,0,1,1,1.887-.663c3.128,8.905,4.397,19.336,3.06,24.493a4.91006,4.91006,0,0,0,4.979-.511c2.829-2.026,1.891-5.795,1.849-5.954v-.005l-.002-.004a27.45626,27.45626,0,0,0-3.496-8.088C69.117,78.928,67.1,75.52,67.1,65.101A1.00036,1.00036,0,0,1,68.1,64.101ZM64.659,53.846a1.00036,1.00036,0,0,1-1-1c0-.972-1.404-1.649-2.665-1.649s-2.665.677-2.665,1.649a1,1,0,0,1-2,0c0-2.284,2.372-3.649,4.665-3.649s4.665,1.365,4.665,3.649A1.00036,1.00036,0,0,1,64.659,53.846Z" transform="translate(0 0.00026)"/><path d="M84.705,79.748a9.17711,9.17711,0,0,1-.688,6.605,8.52026,8.52026,0,0,1-2.362,2.653,45.617,45.617,0,0,1,4.072,4.004c2.388-1.181,4.752.956,6.691,2.717,1.289,1.17,2.621,2.381,3.65,2.458a8.042,8.042,0,0,0,3.454-.676,7.28367,7.28367,0,0,1,7.492.619V80.679c-.025,0-.049.004-.074.004a5.82488,5.82488,0,0,1-1.117-.11,6.34447,6.34447,0,0,1-3.797-2.576,4.87335,4.87335,0,0,0-4.372-2.216c-2.684,0-3.872,1.187-5.131,2.444a6.59031,6.59031,0,0,1-3.502,2.221A7.259,7.259,0,0,1,84.705,79.748Zm10.949,1.703a3.8145,3.8145,0,1,1-3.815,3.815A3.81794,3.81794,0,0,1,95.654,81.451Z" transform="translate(0 0.00026)"/><path d="M95.654,87.08a1.8145,1.8145,0,1,0-1.815-1.814A1.81637,1.81637,0,0,0,95.654,87.08Z" transform="translate(0 0.00026)"/><path d="M1.788,90.269c1.166-1.997,2.617-4.483,6.364-5.009,2.676-.38,4.234,1.019,5.743,2.367,1.475,1.318,2.868,2.563,5.502,2.563a6.9546,6.9546,0,0,0,4.522-1.697,6.47667,6.47667,0,0,1,5.274-1.591c2.158.344,3.288,1.799,4.285,3.083a6.10453,6.10453,0,0,0,3.18,2.589,45.38071,45.38071,0,0,1,3.671-3.571,8.51283,8.51283,0,0,1-2.359-2.65c-1.729-3.111-.832-6.568-.161-8.322-1.893-.711-4.257-2.635-4.474-6.707a7.51807,7.51807,0,0,1,.017-.826,5.60542,5.60542,0,0,0-4.98,2.97.99992.99992,0,0,1-1.787-.183c-.053-.136-1.413-3.505-6.551-3.505-4.875,0-5.521,3.706-5.578,4.129a1.00212,1.00212,0,0,1-1.783.483c-.126-.162-3.183-3.991-7.142-2.33C2.727,73.245.128,76.581,0,92.539A6.027,6.027,0,0,0,1.788,90.269Z" transform="translate(0 0.00026)"/><path d="M97.86,117.281c-.152.036-.307.056-.456.107a7.33377,7.33377,0,0,0-4.241,4.613h5.38a5.76681,5.76681,0,0,1-.872-3.117A6.78548,6.78548,0,0,1,97.86,117.281Z" transform="translate(0 0.00026)"/><path d="M73.99,107.463a.857.857,0,1,0,.858.857A.858.858,0,0,0,73.99,107.463Z" transform="translate(0 0.00026)"/><path d="M95.86,115.872A56.91369,56.91369,0,0,0,84.807,94.978c-.009-.01-.022-.014-.03-.024-.009-.01-.01-.024-.019-.034a43.69786,43.69786,0,0,0-4.897-4.815,14.30343,14.30343,0,0,1-2.993,1.073,7.38265,7.38265,0,0,1-2.803,7.035,6.83314,6.83314,0,0,1-6.83.766,6.19745,6.19745,0,0,1-5.242,3.018v6.786c0,1.477,1.808,3.617,2.575,3.617H80.991a1,1,0,0,1,0,2H64.569c-1.294,0-2.673-1.199-3.575-2.647-.902,1.448-2.28,2.647-3.575,2.647H40.996a1,1,0,0,1,0-2H57.419c.767,0,2.575-2.14,2.575-3.617v-6.785a6.19292,6.19292,0,0,1-5.242-3.019,6.82879,6.82879,0,0,1-6.829-.766,7.38417,7.38417,0,0,1-2.803-7.035,14.26665,14.26665,0,0,1-2.996-1.075,43.38135,43.38135,0,0,0-4.385,4.245c-6.262,6.99-10.703,16.293-13.221,27.652H35.997V109.814a1,1,0,0,1,2,0V122H50.296a5.42168,5.42168,0,0,1-.152-1.25,4.6672,4.6672,0,0,1,3.448-4.58,1.00009,1.00009,0,1,1,.483,1.941,2.65386,2.65386,0,0,0-1.932,2.64,3.296,3.296,0,0,0,.237,1.25h7.613v-4.196a1,1,0,0,1,2,0V122h7.613a3.29614,3.29614,0,0,0,.237-1.25,2.64546,2.64546,0,0,0-1.932-2.64,1.00009,1.00009,0,1,1,.483-1.941,4.66719,4.66719,0,0,1,3.448,4.58,5.42114,5.42114,0,0,1-.152,1.25H83.989V109.813a1,1,0,1,1,2,0V122h5.069A9.9989,9.9989,0,0,1,95.86,115.872Zm-21.87-4.694a2.857,2.857,0,1,1,2.858-2.857A2.86,2.86,0,0,1,73.99,111.178Zm-25.992-5.715a2.857,2.857,0,1,1-2.858,2.857A2.86,2.86,0,0,1,47.998,105.463Z" transform="translate(0 0.00026)"/><path d="M57.365,14.035c-1.189-2.542-1.066-7.239.051-10.764A10.92909,10.92909,0,0,1,58.926.137c-4.014.346-4.587,1.436-5.277,3.894-.701,2.496.787,8.182,2.144,9.342A3.68888,3.68888,0,0,0,57.365,14.035Z" transform="translate(0 0.00026)"/><path d="M101.011,113.362c0-.039.01-.074.011-.112-1.904-3.149-2.626-7.657-2.158-13.414a8.06813,8.06813,0,0,1-2.947.344c-1.712-.127-3.304-1.574-4.844-2.972-1.823-1.656-2.969-2.52-3.898-2.511a59.63032,59.63032,0,0,1,10.584,20.548,6.86564,6.86564,0,0,1,1.063-.111,4.37,4.37,0,0,1,2.197-1.696C101.018,113.411,101.011,113.387,101.011,113.362Z" transform="translate(0 0.00026)"/><path d="M117.448,101.829a17.376,17.376,0,0,1-4.254,1.52v5.875a4.18716,4.18716,0,0,1,2.084,7.245A4.14945,4.14945,0,0,1,116.282,122h4.928C117.336,115.158,117.077,107.576,117.448,101.829Z" transform="translate(0 0.00026)"/><path d="M101.544,115.371a3.703,3.703,0,0,0-1.874,3.512c0,2.046,1.181,3.117,2.348,3.117a1.42712,1.42712,0,0,0,1.455-.743,4.10834,4.10834,0,0,1,.499-3.894A4.20094,4.20094,0,0,1,101.544,115.371Z" transform="translate(0 0.00026)"/><path d="M112.713,117.575h-5.306a2.2125,2.2125,0,0,0,0,4.425h5.307a2.2125,2.2125,0,1,0-.001-4.425Z" transform="translate(0 0.00026)"/><path d="M47.998,109.178a.857.857,0,1,0-.858-.857A.858.858,0,0,0,47.998,109.178Z" transform="translate(0 0.00026)"/><path d="M31.286,34.76a7.299,7.299,0,0,1,1.701,3.516,8.69534,8.69534,0,0,1-.688,3.936,5.6059,5.6059,0,0,0-.512,2.675,4.58423,4.58423,0,0,0,.589,1.591,6.21085,6.21085,0,0,1,2.802-2.275,5.90758,5.90758,0,0,1,1.075-.305l.002-.001a4.3694,4.3694,0,0,0,3.429-4.394c.004-1.772-1.601-3.901-3.153-5.961-1.563-2.072-3.038-4.03-3.038-5.87a10.55557,10.55557,0,0,1,1.078-4.924,6.47488,6.47488,0,0,0-1.127.468c-2.913,1.567-4.201,4.266-3.83,8.021A6.97821,6.97821,0,0,0,31.286,34.76Z" transform="translate(0 0.00026)"/><path d="M31.899,91.211c-.917-1.182-1.642-2.115-3.02-2.335-1.692-.27-2.571.365-3.794,1.242l-.107.076c-.738,7.529-.137,13.575,1.802,18.002a55.43671,55.43671,0,0,1,8.46-14.01A8.77921,8.77921,0,0,1,31.899,91.211Z" transform="translate(0 0.00026)"/><path d="M22.87,91.469a8.21305,8.21305,0,0,1-3.472.721c-3.398,0-5.304-1.703-6.835-3.071-1.147-1.025-2.036-1.805-3.308-1.9-.641,13.733,4.088,25.684,13.404,33.926a78.27265,78.27265,0,0,1,3.133-10.485C23.223,106.05,22.247,99.6,22.87,91.469Z" transform="translate(0 0.00026)"/><path d="M7.242,87.537c-1.916.67-2.806,2.164-3.727,3.741-.821,1.407-1.742,2.963-3.488,3.386C.377,106.855,7.809,116.196,14.204,122h6.397C11.39,113.464,6.699,101.364,7.242,87.537Z" transform="translate(0 0.00026)"/><path d="M36.856,20.321a21.56426,21.56426,0,0,1,2.741-.033c.012-.003.021-.011.034-.014,2.531-.481,5.012-1.552,5.107-2.204.023-.157-.208-.72-1.066-1.46-1.596-1.377-4.374-2.514-6.388-1.912-2.534.76-4.059,3.147-4.254,6.511a11.84654,11.84654,0,0,1,3.797-.885A.25821.25821,0,0,1,36.856,20.321Z" transform="translate(0 0.00026)"/><path d="M44.704,14.883c1.706.28,2.976.163,3.581-.343a1.78772,1.78772,0,0,0,.529-1.46,4.66481,4.66481,0,0,0-1.786-2.849,8.05716,8.05716,0,0,0-5.601-2.284c-2.897.451-4.315,1.946-4.446,4.781C39.65,12.066,42.753,13.319,44.704,14.883Z" transform="translate(0 0.00026)"/><path d="M50.813,13.08a5.109,5.109,0,0,1-.092.966,4.019,4.019,0,0,0,3.333.387c-1.846-2.237-3.147-8.036-2.331-10.942.062-.22.127-.425.193-.628a7.82071,7.82071,0,0,0-5.349-.276,6.602,6.602,0,0,0-4.069,3.39,10.81946,10.81946,0,0,1,5.869,2.769A6.37331,6.37331,0,0,1,50.813,13.08Z" transform="translate(0 0.00026)"/><path d="M96.907,63.287a1.8145,1.8145,0,1,1-1.814,1.815A1.81679,1.81679,0,0,1,96.907,63.287Z" transform="translate(0 0.00026)"/><path d="M118.584,73.097a1.814,1.814,0,1,1,1.815-1.814A1.81637,1.81637,0,0,1,118.584,73.097Z" transform="translate(0 0.00026)"/></svg>