<svg id="Ebene_1" data-name="Ebene 1" xmlns="http://www.w3.org/2000/svg" viewBox="0 0 86.935 120.85501"><path d="M53.769,86.091a6.72318,6.72318,0,0,0,4.243-3.956c.003-.009.011-.015.014-.024.003-.008.002-.016.005-.023.022-.05,2.215-5.041,2.215-8.191a8.36867,8.36867,0,0,0-.872-3.705,8.779,8.779,0,0,1-.875-3.225,7.79511,7.79511,0,0,1,1.402-4.347,7.88138,7.88138,0,0,0,1.08-2.465c.342-1.977.497-4.236-.917-6.024a11.19454,11.19454,0,0,0-8.822-3.904,11.19794,11.19794,0,0,0-8.825,3.907c-1.486,1.823-1.158,4.847-1.021,5.733a6.50693,6.50693,0,0,0,1.366,2.383,11.25022,11.25022,0,0,1,1.992,3.493,9.0009,9.0009,0,0,1-.074,3.975,10.38671,10.38671,0,0,0,.09,5.29c.693,2.011,2.381,2.692,4.014,3.351a7.16512,7.16512,0,0,1,2.492,1.392,6.46621,6.46621,0,0,1,1.291,3.303C52.82,84.313,53.062,85.506,53.769,86.091ZM51.244,55.25a12.01474,12.01474,0,0,1-3.272-.463.99937.99937,0,0,1,.545-1.923,9.86,9.86,0,0,0,5.455,0,.99937.99937,0,1,1,.545,1.923A11.98862,11.98862,0,0,1,51.244,55.25Z" transform="translate(-0.003)"/><path d="M68.622,14.232a27.10739,27.10739,0,0,1,5.641,7.301,21.27973,21.27973,0,0,1,1.23-4.153,19.575,19.575,0,0,1-6.35-10.324c-1.097,2.23-1.474,5.546-.533,7.143C68.616,14.209,68.616,14.221,68.622,14.232Z" transform="translate(-0.003)"/><path d="M76.442,36.492c-2.177-2.636-4.774-3.624-7.318-2.847,4.726,3.431,6.695,9.674,7.48,12.478.157.046.309.096.453.153a6.06888,6.06888,0,0,1,2.212,1.533A15.04148,15.04148,0,0,0,76.442,36.492Z" transform="translate(-0.003)"/><path d="M76.652,48.318A65.75271,65.75271,0,0,1,74.437,59.75a6.17071,6.17071,0,0,0,4.345-4.059C79.89,52.678,78.924,49.484,76.652,48.318Z" transform="translate(-0.003)"/><path d="M60.876,22.361a13.44324,13.44324,0,0,0,5.489,2.823c2.356.472,5.087-1.161,6.451-2.217a24.91172,24.91172,0,0,0-5.313-7.173A33.01041,33.01041,0,0,1,60.876,22.361Z" transform="translate(-0.003)"/><path d="M49.456,7.907c.585-.032,1.179-.052,1.788-.052.608,0,1.202.021,1.788.055a11.22735,11.22735,0,0,1,.13-4.183L51.244,0,49.326,3.727A11.25287,11.25287,0,0,1,49.456,7.907Z" transform="translate(-0.003)"/><path d="M55.811,8.2c.029.006.059.003.087.011A24.54259,24.54259,0,0,1,66.1,12.224a12.1923,12.1923,0,0,1,.302-3.332c-3.806-1.148-8.627-3.733-9.862-7.311-1.665,1.597-1.882,4.214-1.44,6.526C55.337,8.137,55.577,8.164,55.811,8.2Z" transform="translate(-0.003)"/><path d="M47.527,10.102a36.21223,36.21223,0,0,1,.902,11.207c1.332.584,2.858.988,3.399.743a7.44262,7.44262,0,0,0,1.242-2.591c.005-.013.007-.026.013-.038a28.30392,28.30392,0,0,0,1.603-9.363,29.24161,29.24161,0,0,0-3.442-.205A28.34767,28.34767,0,0,0,47.527,10.102Z" transform="translate(-0.003)"/><path d="M65.969,14.51a22.14211,22.14211,0,0,0-9.286-4.133,31.74105,31.74105,0,0,1-1.606,9.403c.509,1.073,1.406,2.34,2.06,2.34C58.295,22.12,63.151,18.409,65.969,14.51Z" transform="translate(-0.003)"/><path d="M38.532,32.837a1.0391,1.0391,0,0,1-.053.148,1.02812,1.02812,0,0,1-.147.19.97616.97616,0,0,1-.091.101,2.40024,2.40024,0,0,1-.347.187c-.016.005-.028.017-.045.021a1.04566,1.04566,0,0,1-.158.008.8856.8856,0,0,1-.146.021c-1.94-.117-2.524,1.561-3.431,5.411-.651,2.766-1.424,6.006-3.717,7.757a5.85183,5.85183,0,0,1,1.84,1.044,8.85564,8.85564,0,0,1,2.126,3.16,9.99056,9.99056,0,0,1,3.753-.242,8.25541,8.25541,0,0,1,3.465,1.495,12.955,12.955,0,0,1,9.662-3.908,12.955,12.955,0,0,1,9.662,3.908,8.24958,8.24958,0,0,1,3.465-1.495,9.98534,9.98534,0,0,1,3.753.242,8.85577,8.85577,0,0,1,2.126-3.16,8.62087,8.62087,0,0,1,4.262-1.643c-.92-3.126-3.1-9.192-7.958-11.677a1.0001,1.0001,0,0,1-.064-1.745,9.24771,9.24771,0,0,1,1.744-.824,7.96307,7.96307,0,0,1-2.786-4.817,16.29247,16.29247,0,0,1-6.349-3.538,4.60976,4.60976,0,0,1-1.963.639,3.98362,3.98362,0,0,1-3.026-2.012,3.878,3.878,0,0,1-1.452,1.763,3.06781,3.06781,0,0,1-1.276.242,9.389,9.389,0,0,1-3.235-.754c-.294,1.472-.763,2.561-1.442,2.942a3.031,3.031,0,0,1-1.496.34,8.65149,8.65149,0,0,1-2.877-.622c.414,1.771.653,3.861-.084,4.647a3.876,3.876,0,0,1-2.742.73c-.409,0-.843-.027-1.285-.065a4.85978,4.85978,0,0,1,.32.84l.008.025c.007.026.018.049.025.075a.8758.8758,0,0,1,.007.153.9464.9464,0,0,1,.021.151c-.001.016-.01.028-.012.044A.82486.82486,0,0,1,38.532,32.837ZM61.244,48.855a2,2,0,1,1,2-2A1.99945,1.99945,0,0,1,61.244,48.855ZM59.07,35.854a8.9411,8.9411,0,0,1,6.026,1.168.99935.99935,0,1,1-1.151,1.634,7.03723,7.03723,0,0,0-4.532-.832.99982.99982,0,1,1-.343-1.97ZM41.244,48.855a2,2,0,1,1,2-2A1.99945,1.99945,0,0,1,41.244,48.855Zm2.169-13.001a.99973.99973,0,0,1-.342,1.97,6.99954,6.99954,0,0,0-4.529.832.99934.99934,0,1,1-1.151-1.634A8.92543,8.92543,0,0,1,43.413,35.854Z" transform="translate(-0.003)"/><path d="M29.612,83.445a10.408,10.408,0,0,1-.321,2.17,6.63593,6.63593,0,0,1,1.38.022,7.0333,7.0333,0,0,1,1.564-3.338,6.39966,6.39966,0,0,1,4.393-2.063,9.80349,9.80349,0,0,1-.629-4.347c-1.657-.305-4.819-1.273-6.025-4.294a11.38563,11.38563,0,0,1-.548-4.428,14.94111,14.94111,0,0,0-.658-5.321,6.35559,6.35559,0,0,1-1.888-.322,19.25518,19.25518,0,0,1-.824,6.079,12.53542,12.53542,0,0,0-.615,4.083c.15,1.734,1.265,3.503,2.248,5.063a10.68265,10.68265,0,0,1,1.755,3.63,15.49477,15.49477,0,0,1,.17,3.02C29.614,83.414,29.613,83.429,29.612,83.445Z" transform="translate(-0.003)"/><path d="M36.39,12.159A24.60122,24.60122,0,0,1,47.389,8.098c.441-2.31.222-4.922-1.441-6.518-1.235,3.578-6.056,6.163-9.862,7.311A12.24284,12.24284,0,0,1,36.39,12.159Z" transform="translate(-0.003)"/><path d="M71.456,31.409a8.534,8.534,0,0,1,4.485,1.822,34.1307,34.1307,0,0,0-2.055-7.883.96434.96434,0,0,1-.1-.244c-.038-.094-.076-.189-.115-.282a11.97949,11.97949,0,0,1-6.119,2.433A6.0556,6.0556,0,0,0,71.456,31.409Z" transform="translate(-0.003)"/><path d="M23.704,55.69a6.16976,6.16976,0,0,0,4.345,4.057,65.82684,65.82684,0,0,1-2.214-11.43C23.563,49.484,22.596,52.678,23.704,55.69Z" transform="translate(-0.003)"/><path d="M34.24,30.643c-2.179-.372-5.518.958-8.057,4.781a16.8315,16.8315,0,0,0-2.238,11.72,5.63323,5.63323,0,0,1,2.563-1.174c.015-.003.029.003.044,0,.015-.002.026-.011.041-.013.008-.001.015.003.023.002s.014-.005.022-.006c3.55-.191,4.495-3.089,5.531-7.489.668-2.836,1.43-5.984,3.921-6.767A2.9393,2.9393,0,0,0,34.24,30.643Z" transform="translate(-0.003)"/><path d="M72.122,60.417a61.0718,61.0718,0,0,0,2.543-12.331,6.65321,6.65321,0,0,0-3.087,1.133,7.70033,7.70033,0,0,0-1.873,3.163,1.00293,1.00293,0,0,1-1.314.665,8.61409,8.61409,0,0,0-3.722-.427,6.12439,6.12439,0,0,0-2.496,1.072,9.848,9.848,0,0,1,.777,6.805,9.52285,9.52285,0,0,1-1.315,3.121,5.96884,5.96884,0,0,0-1.14,3.251,6.9694,6.9694,0,0,0,.715,2.537,10.30417,10.30417,0,0,1,1.033,4.491A24.44037,24.44037,0,0,1,60.42,81.52a4.81105,4.81105,0,0,0,3.017-1.186c1.284-1.263,1.133-4.141.966-5.143a1.00148,1.00148,0,0,1,.932-1.165c.039-.002,4.161-.279,5.317-3.173a9.81127,9.81127,0,0,0,.405-3.674,15.90941,15.90941,0,0,1,1.053-6.75C72.115,60.425,72.12,60.422,72.122,60.417Z" transform="translate(-0.003)"/><path d="M39.047,80.334a3.465,3.465,0,0,0,.526.417,6.05011,6.05011,0,0,1,.861.431,7.04578,7.04578,0,0,0,2.967.321,1.00376,1.00376,0,0,1,1.074.633,6.94688,6.94688,0,0,0,6.768,4.336c.105,0,.196-.019.299-.022a10.583,10.583,0,0,1-.935-3.004,5.46138,5.46138,0,0,0-.76-2.296,6.08249,6.08249,0,0,0-1.81-.935c-1.758-.71-4.167-1.682-5.156-4.555a12.31023,12.31023,0,0,1-.173-6.261,7.58806,7.58806,0,0,0,.129-3.092,9.61107,9.61107,0,0,0-1.675-2.857,7.7356,7.7356,0,0,1-1.741-3.275,10.52056,10.52056,0,0,1,.893-6.481,6.116,6.116,0,0,0-2.498-1.073,8.61636,8.61636,0,0,0-3.724.427,1.001,1.001,0,0,1-1.312-.667,7.69062,7.69062,0,0,0-1.872-3.161,6.70351,6.70351,0,0,0-3.087-1.132,61.06458,61.06458,0,0,0,2.543,12.329l.009.013a15.9208,15.9208,0,0,1,1.053,6.75,9.80337,9.80337,0,0,0,.405,3.673c1.156,2.895,5.278,3.171,5.319,3.174a1.00266,1.00266,0,0,1,.93,1.164C37.914,76.193,37.763,79.071,39.047,80.334Z" transform="translate(-0.003)"/><path d="M47.264,115.944a89.52173,89.52173,0,0,1-9.721-27.345c-2.065,1.905-1.715,4.94-.95,9.692a.99979.99979,0,0,1-.829,1.146.9668.9668,0,0,1-.16.013,1.00052,1.00052,0,0,1-.986-.841c-.825-5.128-1.598-9.97,3.07-12.551.014-.009.027-.017.041-.025l.02-.012.007-.006a39.98933,39.98933,0,0,1,5.182-2.42c-.009-.018-.02-.036-.029-.055a8.089,8.089,0,0,1-4.146-.95,4.46082,4.46082,0,0,0-5.091,1.101c-2.117,2.187-1.552,10.761-.699,15.652a.9999.9999,0,0,1-.813,1.157,1.01952,1.01952,0,0,1-.173.015,1.00011,1.00011,0,0,1-.984-.828,50.20591,50.20591,0,0,1-.656-12.071,2.75886,2.75886,0,0,0-2.994,1.315c-1.869,3.867,1.371,17.79,8.312,30.663a81.29213,81.29213,0,0,1-2.815-13.172.99987.99987,0,0,1,1.986-.234,83.21356,83.21356,0,0,0,3.297,14.667H50.24q-1.53751-2.343-2.916-4.8A.97839.97839,0,0,1,47.264,115.944Z" transform="translate(-0.003)"/><path d="M75.17,76.12a16.09889,16.09889,0,0,0,1.9-5.351,10.00853,10.00853,0,0,0-.624-3.735,15.45,15.45,0,0,1-.842-5.509,6.34265,6.34265,0,0,1-1.886.322,14.94394,14.94394,0,0,0-.658,5.321,11.3882,11.3882,0,0,1-.548,4.428c-1.206,3.021-4.368,3.989-6.025,4.293.092,1.494.002,4.251-1.645,5.871a7.30342,7.30342,0,0,1-5.264,1.78c-.009.017-.019.034-.028.052a42.088,42.088,0,0,1,14.348,9.301,7.778,7.778,0,0,0,1.06-3.809,25.22383,25.22383,0,0,0-.645-4.316,15.89814,15.89814,0,0,1-.548-5.078A13.79293,13.79293,0,0,1,75.17,76.12Z" transform="translate(-0.003)"/><path d="M30.201,116.557a1,1,0,0,1,0-2h.781a91.25088,91.25088,0,0,1-4.315-11.702c-1.613-3.35-3.997-5.113-7.288-5.386a1.00045,1.00045,0,1,1,.166-1.994,10.01952,10.01952,0,0,1,5.922,2.457c-.83-4.242-.916-7.8.087-9.873a4.24477,4.24477,0,0,1,1.019-1.354,5.10515,5.10515,0,0,0,1-2.806c-5.889-3.35-10.99-10.916-13.745-20.288L5.448,81.928A55.00276,55.00276,0,0,0,8.024,87.91c2.52,4.901,7.346,11.018,11.604,16.414,3.827,4.849,6.85,8.68,7.562,10.78a25.7722,25.7722,0,0,1,.88,5.751h6.005c-.748-1.381-1.479-2.82-2.178-4.298Z" transform="translate(-0.003)"/><path d="M10.664,57.579a.99969.99969,0,0,1-.97-1.244l1.776-7.046a3.79665,3.79665,0,0,1-1.523-.485A3.2777,3.2777,0,0,1,8.34,50.172a5.07244,5.07244,0,0,1-2.971.218L3.49,58.827H6.243a1.0008,1.0008,0,0,1,.979,1.203L2.213,84.192l1.239-2.709c.007-.015.013-.029.02-.043L14.388,57.578H10.664Z" transform="translate(-0.003)"/><path d="M64.712,109.366a.83.83,0,1,0,.83.83A.83051.83051,0,0,0,64.712,109.366Z" transform="translate(-0.003)"/><path d="M41.563,23.494c1.564.794,3.555,1.403,4.163,1.064a5.97466,5.97466,0,0,0,.644-2.598.96151.96151,0,0,1,.034-.3,33.28161,33.28161,0,0,0-.854-11.226,21.96184,21.96184,0,0,0-10.588,5.48C38.723,17.408,40.697,21.241,41.563,23.494Z" transform="translate(-0.003)"/><path d="M86.938,120.855C80.655,96.974,66.714,88.361,58.424,85.303a9.08578,9.08578,0,0,1-7.18,3.169,9.08669,9.08669,0,0,1-7.176-3.164,37.65076,37.65076,0,0,0-4.699,2.114c.126.705.272,1.399.413,2.096a24.22126,24.22126,0,0,1,6.035.431,5.04817,5.04817,0,0,1,2.722,2.882,1.0001,1.0001,0,0,1-1.885.669,3.04282,3.04282,0,0,0-1.509-1.668,21.89939,21.89939,0,0,0-4.97-.319,86.52859,86.52859,0,0,0,8.519,22.851c1.335-.593,1.552-2.433,1.551-3.573V98.876a1,1,0,0,1,2,0v11.916h0a4.50043,4.50043,0,0,0,.952,3.168,2.14459,2.14459,0,0,0,1.601.597H70.16a1,1,0,0,1,0,2H54.797a4.15738,4.15738,0,0,1-3.017-1.183,4.3102,4.3102,0,0,1-.53-.687,4.0165,4.0165,0,0,1-1.573,1.406c.943,1.624,1.927,3.217,2.979,4.762H74.248v-8.66a1,1,0,0,1,2,0v8.66ZM57.343,91.833a3.04352,3.04352,0,0,0-1.509,1.668,1.0047,1.0047,0,0,1-.942.66.98758.98758,0,0,1-.336-.059.99763.99763,0,0,1-.607-1.271,5.04758,5.04758,0,0,1,2.723-2.882c1.642-.585,6.136-.38,6.643-.354a.99972.99972,0,1,1-.099,1.997A24.72256,24.72256,0,0,0,57.343,91.833Zm7.369,21.192a2.83,2.83,0,1,1,2.83-2.83A2.83316,2.83316,0,0,1,64.712,113.025Z" transform="translate(-0.003)"/><path d="M79.993,38.538a25.57323,25.57323,0,0,0,1.208-6.896,21.00117,21.00117,0,0,0-1.063-5.236c-.853-2.997-1.88-6.608-1.371-10.554-1.465,1.535-2.467,4.529-2.994,8.929a35.90265,35.90265,0,0,1,2.413,10.707A14.28867,14.28867,0,0,1,79.993,38.538Z" transform="translate(-0.003)"/><path d="M5.015,60.827H2.244a1.00088,1.00088,0,0,1-.976-1.218L3.662,48.86a.89188.89188,0,0,1,.055-.122.88463.88463,0,0,1,.04-.133c.011-.02.03-.032.042-.051a.99821.99821,0,0,1,.121-.146.9245.9245,0,0,1,.148-.139.941.941,0,0,1,.144-.076.98762.98762,0,0,1,.201-.079.99038.99038,0,0,1,.163-.017.9942.9942,0,0,1,.218.003c.021.003.041-.004.062.001a.91658.91658,0,0,1,.124.055.87252.87252,0,0,1,.132.04,3.10131,3.10131,0,0,0,2.458.13,1.17439,1.17439,0,0,0,.738-.733c.233-.795-.778-2.384-1.804-2.834-1.105-.485-4.81-.812-5.949-.076-.695.905-.695,8.115-.216,13.983A105.08083,105.08083,0,0,0,2.634,72.325Z" transform="translate(-0.003)"/><path d="M33.917,14.107c.881-1.626.505-4.858-.573-7.05a19.57874,19.57874,0,0,1-6.35,10.324,21.2366,21.2366,0,0,1,1.225,4.126A26.86071,26.86071,0,0,1,33.917,14.107Z" transform="translate(-0.003)"/><path d="M6.055,34.055h.213a.21386.21386,0,0,1,.027.006c2.223.102,4.681,1.951,5.202,3.65a4.20674,4.20674,0,0,1,.161,1.267c.059-.003.117-.011.176-.011a3.76,3.76,0,0,1,2.072.658l2.076-8.234H9.946a1.00006,1.00006,0,0,1-.961-1.275l5.166-18.069L1.184,34.052l4.767.003C5.985,34.054,6.021,34.055,6.055,34.055Z" transform="translate(-0.003)"/><path d="M34.578,28.672a5.566,5.566,0,0,1,.845.22,16.561,16.561,0,0,0,5.293.411,15.18468,15.18468,0,0,0-2.203-7.565,8.45327,8.45327,0,0,0-5.108-4.222,29.73183,29.73183,0,0,0-6.58,14.047C29.574,28.981,32.555,28.323,34.578,28.672Z" transform="translate(-0.003)"/><path d="M24.378,34.55a36.3422,36.3422,0,0,1,2.335-9.773c-.527-4.398-1.529-7.39-2.994-8.924.509,3.946-.518,7.558-1.371,10.554a21.02931,21.02931,0,0,0-1.063,5.236,26.19669,26.19669,0,0,0,1.241,6.901A16.4073,16.4073,0,0,1,24.378,34.55Z" transform="translate(-0.003)"/><path d="M6.015,39.868c-1.751-.698-3.12-.737-3.569-.415-.819.591-.963,1.895-.921,2.891a13.36789,13.36789,0,0,1,5.78.584A4.86231,4.86231,0,0,1,8.78,44.002a1.68018,1.68018,0,0,0,.588-1.632C9.253,41.765,7.939,40.636,6.015,39.868Z" transform="translate(-0.003)"/><path d="M9.585,38.297a4.2793,4.2793,0,0,0-3.754-2.226c-.471.075-1,.633-1.439,1.278a11.34933,11.34933,0,0,1,2.364.661,11.91164,11.91164,0,0,1,2.845,1.596A3.04538,3.04538,0,0,0,9.585,38.297Z" transform="translate(-0.003)"/><path d="M9.918,45.651a4.83307,4.83307,0,0,1,.25.686,2.10223,2.10223,0,0,0,1.665.976c1.266,0,2.335-1.453,2.335-3.173s-1.069-3.173-2.335-3.173a1.72819,1.72819,0,0,0-.508.085c-.053.181-.103.337-.149.471a2.55632,2.55632,0,0,1,.156.477A3.68269,3.68269,0,0,1,9.918,45.651Z" transform="translate(-0.003)"/></svg>