<svg id="Ebene_1" data-name="Ebene 1" xmlns="http://www.w3.org/2000/svg" viewBox="0 0 121.60853 120.81301"><path d="M113.105,54.257c1.108-3.013.141-6.206-2.131-7.373a65.84646,65.84646,0,0,1-2.215,11.432A6.16449,6.16449,0,0,0,113.105,54.257Z" transform="translate(-0.00047)"/><polygon points="51.166 101.55 49.728 101.632 50.597 102.53 51.166 101.55"/><polygon points="4.07 95.61 5.358 94.878 3.826 94.267 4.07 95.61"/><path d="M11.367,93.25a19.52846,19.52846,0,0,1-.193-4.663,9.31192,9.31192,0,0,1,1.719-3.982,9.19529,9.19529,0,0,1,.282-7.031,14.67978,14.67978,0,0,0-2.779-.218,1.07011,1.07011,0,0,1-.848-.453.99961.99961,0,0,1-.075-.958c.492-1.092.194-2.381-.886-3.84-1.848,1.326-2.526,3.207-2.192,5.986a.99964.99964,0,0,1-.424.941,6.10371,6.10371,0,0,0-1.9,2.493,16.20439,16.20439,0,0,0-.568,3.438c-.199,1.924-.387,3.74-1.049,4.773-.388.605-1.082,1.86-2.008,3.63a3.75282,3.75282,0,0,0,.735,4.524A7.26307,7.26307,0,0,0,4.08,99.392a3.89023,3.89023,0,0,0,2.865-.355l4.69-2.543C11.622,95.538,11.49,94.351,11.367,93.25ZM6.656,96.441,3.833,98.045a.99966.99966,0,0,1-1.478-.691l-.549-3.018a1.78684,1.78684,0,0,1,.636-1.724,1.90767,1.90767,0,0,1,1.918-.287l2.033.812a1.85711,1.85711,0,0,1,1.185,1.604A1.80452,1.80452,0,0,1,6.656,96.441Zm.786-9.977a1.893,1.893,0,0,1-2.189-1.476,1.89364,1.89364,0,0,1,.928-2.472A1.893,1.893,0,0,1,8.37,83.992,1.89237,1.89237,0,0,1,7.442,86.464Z" transform="translate(-0.00047)"/><path d="M68.686,49.451a9.953,9.953,0,0,1,3.754-.242,8.24276,8.24276,0,0,1,3.465,1.495,13.893,13.893,0,0,1,19.322,0,8.24272,8.24272,0,0,1,3.465-1.495,9.953,9.953,0,0,1,3.754.242,8.86493,8.86493,0,0,1,2.125-3.16,6.65461,6.65461,0,0,1,2.571-1.284c-1.612-1.591-2.057-4.028-2.458-6.259a17.45731,17.45731,0,0,0-1.248-4.588,13.174,13.174,0,0,1-.258,1.49c-.008.032-.027.057-.038.088a.97335.97335,0,0,1-.181.317.99283.99283,0,0,1-.093.102,1.03159,1.03159,0,0,1-.215.143c-.026.013-.043.036-.071.047-.008.003-.016.002-.023.005a1.00357,1.00357,0,0,1-.34.067l-.012.002c-.006,0-.012-.003-.019-.003a.973.973,0,0,1-.212-.025c-.008-.002-.014-.008-.022-.01a.97269.97269,0,0,1-.32-.148.79661.79661,0,0,1-.061-.055.933.933,0,0,1-.241-.297.97033.97033,0,0,1-.052-.088c-.993-2.45-3.558-3.66-6.525-5.06-3.378-1.594-7.365-3.481-9.187-7.891-1.821,4.409-5.809,6.297-9.187,7.891-2.968,1.4-5.532,2.61-6.525,5.06a.84941.84941,0,0,1-.052.088.94768.94768,0,0,1-.061.102,1.00408,1.00408,0,0,1-.179.194.80041.80041,0,0,1-.061.055,1.01079,1.01079,0,0,1-.32.147c-.008.002-.014.008-.022.01a1.03922,1.03922,0,0,1-.212.025c-.006,0-.012.003-.019.003l-.012-.002a.9808.9808,0,0,1-.341-.067c-.008-.003-.016-.001-.023-.005-.027-.011-.044-.033-.069-.046a.98646.98646,0,0,1-.217-.144.79884.79884,0,0,1-.092-.101.9231.9231,0,0,1-.123-.184.94522.94522,0,0,1-.058-.135c-.01-.031-.03-.056-.038-.088a13.17631,13.17631,0,0,1-.258-1.49,17.43642,17.43642,0,0,0-1.248,4.588c-.401,2.231-.846,4.668-2.458,6.259a6.64765,6.64765,0,0,1,2.571,1.284A8.93506,8.93506,0,0,1,68.686,49.451Zm26.88-2.03a2,2,0,1,1,2-2A1.99945,1.99945,0,0,1,95.566,47.421Zm-7.73-13.105a1.00135,1.00135,0,0,1,1.389.269l1.148,1.7a1.25127,1.25127,0,0,0,1.459.478l6.396-2.284a.99966.99966,0,0,1,.672,1.883l-6.395,2.284a3.25015,3.25015,0,0,1-3.789-1.242l-1.149-1.701A.99844.99844,0,0,1,87.836,34.316ZM75.566,47.421a2,2,0,1,1,2-2A1.99945,1.99945,0,0,1,75.566,47.421ZM71.627,35.084a.99934.99934,0,0,1,1.278-.605l6.394,2.284a1.25266,1.25266,0,0,0,1.46-.479l1.147-1.7a1.00055,1.00055,0,0,1,1.659,1.119l-1.148,1.7a3.252,3.252,0,0,1-3.791,1.243l-6.394-2.284A.99935.99935,0,0,1,71.627,35.084Z" transform="translate(-0.00047)"/><path d="M85.566,6.421A25.26772,25.26772,0,0,1,95.924,8.445l1.555-4.402L95.287,5.778a1.93006,1.93006,0,0,1-1.904.284A1.95156,1.95156,0,0,1,92.16,4.548l-.13-.744L90.545,4.859a1.93876,1.93876,0,0,1-2.853-.718L85.566,0l-2.13,4.148a1.94009,1.94009,0,0,1-2.846.714L79.101,3.804l-.13.751a1.94525,1.94525,0,0,1-1.222,1.507,1.92437,1.92437,0,0,1-1.898-.279l-2.198-1.74,1.555,4.402A25.25133,25.25133,0,0,1,85.566,6.421Z" transform="translate(-0.00047)"/><path d="M54.431,56.691c-.024.047-2.43,4.767-1.074,9.474a11.31078,11.31078,0,0,0,5.25,6.656.9999.9999,0,0,1,.309,1.559c-.106.122-2.645,3.095-1.368,6.66,1.249,3.49,3.993,3.797,4.109,3.809a1.00473,1.00473,0,0,1,.817,1.422,6.073,6.073,0,0,0-.5,3.573,3.61711,3.61711,0,0,0,.972,1.624,43.40156,43.40156,0,0,1,9.172-6.901,8.67924,8.67924,0,0,1-.121-1.129c-1.882-.05-5.585-.546-6.9-3.554-1.198-2.737-.372-5.747.22-7.287a7.61828,7.61828,0,0,1-4.261-6.729,11.299,11.299,0,0,1,.993-5.551,8.08011,8.08011,0,0,1-5.899-5.371c-1.452-3.947-.08-8.215,3.055-9.849a6.20692,6.20692,0,0,1-1.16-4.785,6.15763,6.15763,0,0,1,2.305-4.28,10.65173,10.65173,0,0,1-.092-6.319,8.94672,8.94672,0,0,1,3.516-4.731,1.02192,1.02192,0,0,1,1.426.146.98322.98322,0,0,1-.138,1.394c-.035.028-.099.073-.188.131a6.98978,6.98978,0,0,0-2.724,3.708,9.2355,9.2355,0,0,0,.339,5.74,1.00139,1.00139,0,0,1-.632,1.346c-.037.014-1.437.542-1.836,3.166a4.25782,4.25782,0,0,0,1.206,3.774c2.176-.773,2.679-2.814,3.252-5.995.475-2.637,1.03-5.599,3.336-7.602a14.14273,14.14273,0,0,1,3.427-6.148c1.218-1.479,2.27-2.757,2.27-4.223a1,1,0,0,1,2,0c0,2.184-1.324,3.792-2.726,5.494-1.533,1.862-3.1,3.778-3.171,6.708a19.70168,19.70168,0,0,1,5.909-3.695c4.649-2.193,9.04-4.265,9.04-11.613a1,1,0,1,1,2,0c0,7.349,4.391,9.42,9.04,11.613a19.72867,19.72867,0,0,1,5.909,3.695c-.071-2.93-1.638-4.846-3.17-6.708-1.402-1.703-2.726-3.311-2.726-5.494a1,1,0,0,1,2,0c0,1.466,1.052,2.744,2.27,4.223a14.1543,14.1543,0,0,1,3.427,6.148c2.306,2.002,2.861,4.965,3.336,7.601.573,3.181,1.076,5.221,3.253,5.995a4.271,4.271,0,0,0,1.205-3.775c-.399-2.624-1.798-3.152-1.857-3.173a1.02946,1.02946,0,0,1-.592-.544,1.01461,1.01461,0,0,1-.018-.796,9.23669,9.23669,0,0,0,.338-5.738,6.98852,6.98852,0,0,0-2.724-3.709c-.089-.059-.152-.103-.188-.131a1.00024,1.00024,0,0,1,1.228-1.579,8.98449,8.98449,0,0,1,3.576,4.771,10.65156,10.65156,0,0,1-.092,6.319,6.16135,6.16135,0,0,1,2.305,4.28,6.211,6.211,0,0,1-1.16,4.785c3.135,1.633,4.508,5.901,3.056,9.849a8.082,8.082,0,0,1-5.899,5.371,11.2989,11.2989,0,0,1,.993,5.551,7.61825,7.61825,0,0,1-4.261,6.729c.592,1.54,1.418,4.55.221,7.287-1.316,3.007-5.02,3.504-6.901,3.554a8.4948,8.4948,0,0,1-.12,1.128l.047.026a42.44236,42.44236,0,0,1,7.161,5.044c.674.582,1.329,1.196,1.973,1.825a3.60507,3.60507,0,0,0,.962-1.616,6.07694,6.07694,0,0,0-.5-3.576,1.00149,1.00149,0,0,1,.827-1.42c.107-.011,2.851-.317,4.101-3.808,1.275-3.565-1.263-6.538-1.371-6.663a1.00077,1.00077,0,0,1,.31-1.556,11.42447,11.42447,0,0,0,5.25-6.656c1.355-4.707-1.05-9.427-1.074-9.474a1.00367,1.00367,0,0,1,.02-.96c.028-.049,2.796-4.945,2.11-9.721-.683-4.768-4.903-8.747-4.945-8.787a1.006,1.006,0,0,1-.283-1c.014-.048,1.313-4.884-.678-8.913-1.982-4.015-7.105-5.932-7.156-5.95-.02-.007-.033-.024-.052-.032a1.00623,1.00623,0,0,1-.234-.143.9594.9594,0,0,1-.076-.065,1.00109,1.00109,0,0,1-.188-.259c-.004-.008-.011-.014-.014-.022l-.001-.002C101.43,12.598,94.823,8.421,85.566,8.421S69.702,12.598,65.929,20.837l-.001.002a1.00262,1.00262,0,0,1-.562.521l-.003.002c-.051.019-5.174,1.936-7.156,5.95-1.999,4.049-.691,8.863-.679,8.912a1.00088,1.00088,0,0,1-.282,1.001c-.042.04-4.263,4.019-4.945,8.787-.688,4.794,2.082,9.672,2.109,9.721A.99432.99432,0,0,1,54.431,56.691Z" transform="translate(-0.00047)"/><path d="M58.026,54.256a6.17976,6.17976,0,0,0,4.345,4.059,65.85256,65.85256,0,0,1-2.215-11.431C57.885,48.05,56.919,51.244,58.026,54.256Z" transform="translate(-0.00047)"/><path d="M98.181,81.425c.047,0,4.84.36,6.022-2.342,1.273-2.91-.592-6.543-.611-6.579a1.00243,1.00243,0,0,1,.638-1.434,5.52633,5.52633,0,0,0,3.848-5.288A8.44731,8.44731,0,0,0,106.574,60l-.002-.003a18.06113,18.06113,0,0,0-1.374-1.61,8.69657,8.69657,0,0,1-2.5-4.042.99946.99946,0,1,1,1.949-.444,6.95066,6.95066,0,0,0,2.019,3.128c.096.103.193.209.291.316a66.05381,66.05381,0,0,0,2.031-10.693,6.65321,6.65321,0,0,0-3.087,1.133,7.77487,7.77487,0,0,0-1.872,3.161,1.00024,1.00024,0,0,1-1.315.666,8.63859,8.63859,0,0,0-3.722-.426,6.71345,6.71345,0,0,0-3.151,1.585,1.00135,1.00135,0,0,1-1.415-.034,11.9258,11.9258,0,0,0-17.72,0,1.00145,1.00145,0,0,1-.702.31h-.022a.998.998,0,0,1-.692-.279,6.72056,6.72056,0,0,0-3.149-1.583,8.68073,8.68073,0,0,0-3.722.426,1.00024,1.00024,0,0,1-1.315-.666,7.70331,7.70331,0,0,0-1.872-3.161,6.64907,6.64907,0,0,0-3.087-1.133,66.11993,66.11993,0,0,0,2.031,10.693q.147-.1605.291-.316A6.959,6.959,0,0,0,66.486,53.9a.99946.99946,0,1,1,1.949.444,8.698,8.698,0,0,1-2.499,4.042,8.70458,8.70458,0,0,0-2.881,7.395,5.55327,5.55327,0,0,0,3.848,5.288,1.00243,1.00243,0,0,1,.638,1.434c-.02.036-1.885,3.669-.61,6.579,1.183,2.703,5.977,2.343,6.021,2.342.016-.002.031.002.047.001.008,0,.014-.005.022-.005.279-.009,2.818-.182,3.243-3.403.643-4.867-1.369-7.348-1.455-7.451a.99987.99987,0,0,1,1.522-1.297c.11.129,2.682,3.204,1.915,9.01a5.54475,5.54475,0,0,1-4.248,5.016,5.60263,5.60263,0,0,0,1.466,3.728c1.751,1.824,4.536,1.155,4.563,1.149a1.00634,1.00634,0,0,1,1.143.535c.015.031,1.652,3.309,4.397,3.309s4.383-3.277,4.398-3.311c.004-.008.01-.012.014-.02.003-.007.003-.014.006-.02a31.4763,31.4763,0,0,0,3.34-13.245c0-6.883-5.618-13.271-5.675-13.334a1,1,0,0,1,1.492-1.332c.252.282,6.183,7.01,6.183,14.666a32.67037,32.67037,0,0,1-2.937,12.871,4.52826,4.52826,0,0,0,3.281-1.268,5.81088,5.81088,0,0,0,1.439-4.455,1.00792,1.00792,0,0,1,.262-.83A.958.958,0,0,1,98.181,81.425ZM73.242,61.101c-2.403,1.647-4.479,3.071-3.288,7.305a.99983.99983,0,0,1-.692,1.233,1.01667,1.01667,0,0,1-.271.037.99971.99971,0,0,1-.962-.729c-1.579-5.613,1.561-7.766,4.083-9.496,1.852-1.269,2.986-2.127,2.986-3.711a1,1,0,0,1,2,0C77.098,58.458,75.05,59.862,73.242,61.101ZM85.096,85.416a1.00035,1.00035,0,0,1-.338,1.941.98317.98317,0,0,1-.336-.059c-.21-.074-5.132-1.881-5.132-6.111,0-2.12,1.57-3.756,2.956-5.2,1.304-1.359,2.536-2.643,2.331-4.037-.483-3.28-3.483-6.799-3.514-6.834a.99973.99973,0,0,1,1.514-1.306c.14.161,3.408,3.988,3.978,7.849.349,2.363-1.359,4.143-2.867,5.713-1.233,1.286-2.398,2.5-2.398,3.815C81.289,84.004,85.058,85.402,85.096,85.416Zm3.742-33.062a11.79307,11.79307,0,0,1-6.544,0,.99937.99937,0,1,1,.545-1.923,9.84159,9.84159,0,0,0,5.455,0,.99923.99923,0,1,1,.544,1.923Zm5.195,3.386a1,1,0,1,1,2,0c0,1.583,1.135,2.442,2.986,3.711,2.522,1.73,5.662,3.882,4.083,9.496a.99979.99979,0,0,1-1.925-.541c1.191-4.233-.885-5.657-3.288-7.305C96.081,59.862,94.033,58.458,94.033,55.74Z" transform="translate(-0.00047)"/><path d="M23.537,79.951c.027-.712.032-1.435-.01-2.176a5.23506,5.23506,0,0,0-3.452,1.157,5.36905,5.36905,0,0,1,.255,1.285A20.21825,20.21825,0,0,1,23.537,79.951Z" transform="translate(-0.00047)"/><circle cx="72.56853" cy="108.959" r="0.857"/><path d="M85.635,112.281c-.899,1.497-2.316,2.756-3.643,2.756H65.568a1,1,0,1,1,0-2H81.991c.767,0,2.574-2.14,2.574-3.616l-.007-11.999a.99973.99973,0,0,1,.999-1.001h.001a.99951.99951,0,0,1,1,.999l.007,12v.001h0c0,1.15,1.47,2.836,2.472,3.405a139.98943,139.98943,0,0,0,7.782-24.159,6.95815,6.95815,0,0,1-5.431,1.576c-.773,1.241-2.731,3.774-5.823,3.774s-5.05-2.533-5.823-3.774a6.82925,6.82925,0,0,1-5.724-1.834,6.98965,6.98965,0,0,1-1.291-1.891c-5.752,3.291-13.346,9.602-18.794,21.422l-.001-.001a.8623.8623,0,0,1-.041.08,71.1804,71.1804,0,0,0-4.363,12.792H60.565v-10.77a1,1,0,0,1,2,0v10.77H74.771a4.67313,4.67313,0,0,1,3.392-4.001,1.0007,1.0007,0,0,1,.484,1.942,2.66362,2.66362,0,0,0-1.87,2.06h7.788v-2.37a.99909.99909,0,0,1,1-1,.98592.98592,0,0,1,.95.751c.595-1.175,1.157-2.358,1.696-3.547A7.51543,7.51543,0,0,1,85.635,112.281Zm-13.066-6.179a2.857,2.857,0,1,1-2.857,2.857A2.86069,2.86069,0,0,1,72.569,106.102Z" transform="translate(-0.00047)"/><path d="M121.609,120.811a67.15346,67.15346,0,0,0-6.376-16.738,35.6079,35.6079,0,0,1-4.808,13.571,1.00081,1.00081,0,0,1-1.709-1.042,34.058,34.058,0,0,0,4.822-15.376,46.8464,46.8464,0,0,0-7.169-8.752,56.39465,56.39465,0,0,1-5.198,17.993.99886.99886,0,0,1-.903.569.98492.98492,0,0,1-.43-.098.99969.99969,0,0,1-.472-1.333,54.19488,54.19488,0,0,0,5.157-18.78,40.59919,40.59919,0,0,0-5.284-3.804,143.66326,143.66326,0,0,1-8.707,27.395l-.007.017-.005.012a.98452.98452,0,0,1-.061.116c-.926,2.103-1.966,4.191-3.059,6.248h15.749a30.05924,30.05924,0,0,0,1.424-5.987,1.0001,1.0001,0,1,1,1.984.254,31.89572,31.89572,0,0,1-1.298,5.733h8.993a26.47591,26.47591,0,0,0,1.115-4.359.99973.99973,0,1,1,1.974.318,27.97314,27.97314,0,0,1-.976,4.041h5.244Z" transform="translate(-0.00047)"/><path d="M38.488,117.975a1.01176,1.01176,0,0,1-.309.049.9998.9998,0,0,1-.308-1.951c3.726-1.209,10.003-3.705,13.222-7.548-.794-.003-1.558-.01-1.724-.017a5.93719,5.93719,0,0,1-3.92-1.724l-4.847-4.81a.99986.99986,0,1,1,1.408-1.42l4.848,4.81a3.99173,3.99173,0,0,0,2.601,1.146c.251.011,1.999.021,2.938.018.44-.93.895-1.821,1.359-2.685.002-.007.001-.014.003-.021.762-2.022.625-5.248.39-8.138a.98092.98092,0,0,1,.019-.286c.094-.449.202-.914.311-1.376a14.11986,14.11986,0,0,0,.529-3.151,5.35192,5.35192,0,0,0-.997-2.688,1.00433,1.00433,0,0,1-.112-1.072c1.153-2.302,1.098-4.118-.206-5.788-1.463.957-2.143,1.98-2.022,3.047a1.001,1.001,0,0,1-1.298,1.065,13.12749,13.12749,0,0,0-7.438-.595,1.00151,1.00151,0,0,1-1.188-1.132,4.56988,4.56988,0,0,0-2.125-3.788,31.05861,31.05861,0,0,0-1.892,5.945,23.3278,23.3278,0,0,1-.48,5.251,13.28019,13.28019,0,0,0,1.786,6.482,1.00062,1.00062,0,0,1-1.711,1.038A13.68455,13.68455,0,0,1,35.923,95.4c-.228.545-.482,1.086-.752,1.623.063,3.398.537,5.864,1.451,7.52a1.00033,1.00033,0,0,1-1.752.966,14.65956,14.65956,0,0,1-1.508-5.422c-.136.201-.265.404-.408.605a1.00078,1.00078,0,1,1-1.629-1.163,22.03964,22.03964,0,0,0,3.429-19.932,6.17623,6.17623,0,0,0-4.313,2.841,1.00771,1.00771,0,0,1-1.167.431,18.069,18.069,0,0,0-9.802-.445,1,1,0,0,1-1.201-1.182c.313-1.473-.411-2.965-2.151-4.443-1.929,2.053-2.283,4.458-1.163,7.686a1.00036,1.00036,0,0,1-.213,1.011,7.28882,7.28882,0,0,0-1.596,3.414,19.02593,19.02593,0,0,0,.206,4.12c.249,2.229.485,4.334,0,5.642-.296.796-.779,2.409-1.396,4.665a4.56158,4.56158,0,0,0,2.049,5.185,8.68715,8.68715,0,0,0,3.764,1.019,4.74451,4.74451,0,0,0,3.308-1.163l6.324-5.449a.99979.99979,0,0,1,1.305,1.515l-6.323,5.449a6.847,6.847,0,0,1-2.141,1.253,10.36836,10.36836,0,0,0,4.407,5.557,1.00013,1.00013,0,0,1-1.104,1.668,12.41108,12.41108,0,0,1-5.27-6.848c-.086.003-.17.024-.257.024-.119,0-.238-.004-.358-.011a10.64164,10.64164,0,0,1-4.623-1.266,6.49942,6.49942,0,0,1-3.009-7.462q.6525-2.3835,1.088-3.754l-3.217,1.745a6.208,6.208,0,0,1-.755.342,56.15255,56.15255,0,0,1,2.055,8.858c.835,4.853,1.498,8.71,4.619,10.814H47.47a77.18422,77.18422,0,0,1,2.538-8.503A38.91488,38.91488,0,0,1,38.488,117.975Zm11.715-26.19a1.952,1.952,0,0,1,2.519-.664,1.67422,1.67422,0,0,1,.107,2.444,1.952,1.952,0,0,1-2.519.664A1.67333,1.67333,0,0,1,50.203,91.785Zm-2.666,9.027a1.83546,1.83546,0,0,1,1.641-1.151l2.166-.124a1.88775,1.88775,0,0,1,1.747.887,1.68486,1.68486,0,0,1,.022,1.758l-1.452,2.495a.99566.99566,0,0,1-.743.489.81985.81985,0,0,1-.121.008.9987.9987,0,0,1-.718-.304l-2.161-2.23A1.71192,1.71192,0,0,1,47.537,100.812Zm-7.146-9.79a1.95949,1.95949,0,0,1,2.553.536,1.67348,1.67348,0,0,1,.035,2.446,1.95966,1.95966,0,0,1-2.553-.536A1.67267,1.67267,0,0,1,40.391,91.022ZM15.978,89.54a2.2158,2.2158,0,0,1,2.871,1.143,2.21584,2.21584,0,0,1-.446,3.058,2.2158,2.2158,0,0,1-2.871-1.143A2.21677,2.21677,0,0,1,15.978,89.54Zm3.899,15.68-2.83,2.538a.99852.99852,0,0,1-.668.256,1.04553,1.04553,0,0,1-.221-.024.9989.9989,0,0,1-.702-.592l-1.379-3.313a1.92051,1.92051,0,0,1,.275-1.959,2.06442,2.06442,0,0,1,1.958-.743l2.528.422a2.00282,2.00282,0,0,1,1.617,1.415A1.93852,1.93852,0,0,1,19.877,105.22ZM30.111,93.995a2.21589,2.21589,0,0,1-3.069.361,2.21589,2.21589,0,0,1,.361-3.069,2.21589,2.21589,0,0,1,3.069-.361A2.21589,2.21589,0,0,1,30.111,93.995Z" transform="translate(-0.00047)"/><polygon points="16.773 105.318 18.541 103.732 15.982 103.355 16.773 105.318"/></svg>